{
.appVersion = "1342";
DisplayStrings = (
"/u.ss01/uacute.ss01",
"/w.ss01",
"/y.ss01/yacute.ss01",
"/z.ss01/zacute.ss01",
"/dcroat/uhorn a/space/dcroat ôi/space bàn/space tay/space/acircumflexacute m/space áp",
"/A.ss01",
"/C.ss01/Cacute.ss01",
"/D.ss01/Dcaron.ss01",
"/E.ss01/Eacute.ss01",
"/E.ss01/Ecircumflextilde.ss01",
"/G.ss01/Gcommaaccent.ss01",
"/I.ss01/Iacute.ss01",
"/K.ss01",
"/L.ss01/Lacute.ss01",
"/N.ss01",
"/O.ss01/Ocircumflexdotbelow.ss01",
"/Q.ss01",
"/R.ss01",
"/S.ss01",
"/T.ss01/Tcaron.ss01",
"/U.ss01/Uacute.ss01",
"/W.ss01/Wacute.ss01",
"/Y.ss01",
"/Z.ss01",
"¼",
"/uni2074",
"-",
"/divisionslash",
"÷",
"/minus",
"/hookabovecomb.case",
"/acutecomb.case",
"/circumflexcomb.case",
"/hungarumlautcomb.case",
"/caroncomb.case",
"/brevecomb.case",
"/ringcomb.case",
"/commaturnedabovecomb.case",
"/circumflexcomb_tildecomb",
"/hookabovecomb/brevecomb_hookabovecomb.case",
"/lessequal",
"/caron.alt",
"/caroncomb.alt",

glyphs = (
{
glyphname = A;
lastChange = "2021-04-08 07:25:46 +0000";
layers = (
{
anchors = (
{
name = bottom;
position = "{310, 0}";
},
{
name = ogonek;
position = "{557, 10}";
},
{
name = top;
position = "{435, 650}";
}
);
background = {
paths = (
{
closed = 1;
nodes = (
"565 278 OFFCURVE",
"576 284 OFFCURVE",
"576 290 CURVE SMOOTH",
"576 296 OFFCURVE",
"565 300 OFFCURVE",
"543 301 CURVE",
"528 414 OFFCURVE",
"486 579 OFFCURVE",
"464 636 CURVE",
"466 641 OFFCURVE",
"467 645 OFFCURVE",
"467 650 CURVE SMOOTH",
"467 661 OFFCURVE",
"460 671 OFFCURVE",
"444 671 CURVE SMOOTH",
"411 671 OFFCURVE",
"400 651 OFFCURVE",
"400 640 CURVE SMOOTH",
"400 634 OFFCURVE",
"403 628 OFFCURVE",
"406 624 CURVE",
"320 529 OFFCURVE",
"226 407 OFFCURVE",
"160 300 CURVE",
"110 300 LINE SMOOTH",
"96 300 OFFCURVE",
"83 285 OFFCURVE",
"83 276 CURVE SMOOTH",
"83 272 OFFCURVE",
"86 269 OFFCURVE",
"93 269 CURVE SMOOTH",
"116 269 OFFCURVE",
"125 270 OFFCURVE",
"143 270 CURVE",
"100 195 OFFCURVE",
"58 107 OFFCURVE",
"42 16 CURVE SMOOTH",
"41 8 OFFCURVE",
"40 3 OFFCURVE",
"40 0 CURVE SMOOTH",
"40 -9 OFFCURVE",
"47 -7 OFFCURVE",
"59 -7 CURVE SMOOTH",
"68 -7 OFFCURVE",
"78 -6 OFFCURVE",
"79 4 CURVE SMOOTH",
"92 96 OFFCURVE",
"138 188 OFFCURVE",
"183 270 CURVE",
"286 270 OFFCURVE",
"401 272 OFFCURVE",
"503 273 CURVE",
"508 239 OFFCURVE",
"523 72 OFFCURVE",
"523 16 CURVE SMOOTH",
"523 4 LINE SMOOTH",
"523 -2 OFFCURVE",
"528 -4 OFFCURVE",
"535 -4 CURVE SMOOTH",
"551 -4 OFFCURVE",
"577 9 OFFCURVE",
"577 23 CURVE SMOOTH",
"577 72 OFFCURVE",
"544 275 OFFCURVE",
"546 275 CURVE SMOOTH"
);
},
{
closed = 1;
nodes = (
"197 298 LINE",
"250 395 OFFCURVE",
"353 525 OFFCURVE",
"429 605 CURVE",
"439 575 OFFCURVE",
"484 424 OFFCURVE",
"500 300 CURVE"
);
}
);
};
hints = (
{
horizontal = 1;
place = "{-7, 21}";
target = up;
type = BottomGhost;
},
{
horizontal = 1;
place = "{270, 29}";
type = Stem;
},
{
horizontal = 1;
place = "{671, -20}";
target = down;
type = TopGhost;
},
{
place = "{523, 54}";
type = Stem;
},
{
horizontal = 1;
place = "{-4, 21}";
target = up;
type = BottomGhost;
}
);
layerId = "3787E0F5-978F-4E40-B775-08CB0E3B1585";
paths = (
{
closed = 1;
nodes = (
"68 -7 OFFCURVE",
"78 -6 OFFCURVE",
"79 4 CURVE SMOOTH",
"92 96 OFFCURVE",
"138 188 OFFCURVE",
"183 270 CURVE",
"286 270 OFFCURVE",
"401 272 OFFCURVE",
"503 273 CURVE",
"508 239 OFFCURVE",
"523 72 OFFCURVE",
"523 16 CURVE SMOOTH",
"523 4 LINE SMOOTH",
"523 -2 OFFCURVE",
"528 -4 OFFCURVE",
"535 -4 CURVE SMOOTH",
"551 -4 OFFCURVE",
"577 9 OFFCURVE",
"577 23 CURVE SMOOTH",
"577 72 OFFCURVE",
"544 275 OFFCURVE",
"546 275 CURVE SMOOTH",
"565 278 OFFCURVE",
"576 284 OFFCURVE",
"576 290 CURVE SMOOTH",
"576 296 OFFCURVE",
"565 300 OFFCURVE",
"543 301 CURVE",
"528 414 OFFCURVE",
"486 579 OFFCURVE",
"464 636 CURVE",
"466 641 OFFCURVE",
"467 645 OFFCURVE",
"467 650 CURVE SMOOTH",
"467 661 OFFCURVE",
"460 671 OFFCURVE",
"444 671 CURVE SMOOTH",
"411 671 OFFCURVE",
"400 651 OFFCURVE",
"400 640 CURVE SMOOTH",
"400 634 OFFCURVE",
"403 628 OFFCURVE",
"406 624 CURVE",
"320 529 OFFCURVE",
"226 407 OFFCURVE",
"160 300 CURVE",
"110 300 LINE SMOOTH",
"96 300 OFFCURVE",
"83 285 OFFCURVE",
"83 276 CURVE SMOOTH",
"83 272 OFFCURVE",
"86 269 OFFCURVE",
"93 269 CURVE SMOOTH",
"116 269 OFFCURVE",
"125 270 OFFCURVE",
"143 270 CURVE",
"100 195 OFFCURVE",
"58 107 OFFCURVE",
"42 16 CURVE SMOOTH",
"41 8 OFFCURVE",
"40 3 OFFCURVE",
"40 0 CURVE SMOOTH",
"40 -6 OFFCURVE",
"43 -7 OFFCURVE",
"49 -7 CURVE SMOOTH",
"52 -7 OFFCURVE",
"55 -7 OFFCURVE",
"59 -7 CURVE SMOOTH"
);
},
{
closed = 1;
nodes = (
"250 395 OFFCURVE",
"353 525 OFFCURVE",
"429 605 CURVE",
"439 575 OFFCURVE",
"484 424 OFFCURVE",
"500 300 CURVE",
"197 298 LINE"
);
}
);
width = 619;
}
);
note = A;
unicode = 0041;
},
{
glyphname = Aacute;
lastChange = "2021-04-22 11:18:27 +0000";
layers = (
{
background = {
paths = (
{
closed = 1;
nodes = (
"565 278 OFFCURVE",
"576 284 OFFCURVE",
"576 290 CURVE SMOOTH",
"576 296 OFFCURVE",
"565 300 OFFCURVE",
"543 301 CURVE",
"528 414 OFFCURVE",
"485 572 OFFCURVE",
"463 627 CURVE",
"465 632 OFFCURVE",
"466 636 OFFCURVE",
"466 641 CURVE SMOOTH",
"466 652 OFFCURVE",
"459 661 OFFCURVE",
"444 661 CURVE SMOOTH",
"411 661 OFFCURVE",
"400 642 OFFCURVE",
"400 631 CURVE SMOOTH",
"400 625 OFFCURVE",
"403 619 OFFCURVE",
"406 615 CURVE",
"320 523 OFFCURVE",
"226 407 OFFCURVE",
"160 300 CURVE",
"110 300 LINE SMOOTH",
"96 300 OFFCURVE",
"83 285 OFFCURVE",
"83 276 CURVE SMOOTH",
"83 272 OFFCURVE",
"86 269 OFFCURVE",
"93 269 CURVE SMOOTH",
"116 269 OFFCURVE",
"125 270 OFFCURVE",
"143 270 CURVE",
"100 195 OFFCURVE",
"58 107 OFFCURVE",
"42 16 CURVE SMOOTH",
"41 8 OFFCURVE",
"40 3 OFFCURVE",
"40 0 CURVE SMOOTH",
"40 -9 OFFCURVE",
"47 -7 OFFCURVE",
"59 -7 CURVE SMOOTH",
"68 -7 OFFCURVE",
"78 -6 OFFCURVE",
"79 4 CURVE SMOOTH",
"92 96 OFFCURVE",
"138 188 OFFCURVE",
"183 270 CURVE",
"286 270 OFFCURVE",
"401 272 OFFCURVE",
"503 273 CURVE",
"508 239 OFFCURVE",
"523 72 OFFCURVE",
"523 16 CURVE SMOOTH",
"523 4 LINE SMOOTH",
"523 -2 OFFCURVE",
"528 -4 OFFCURVE",
"535 -4 CURVE SMOOTH",
"551 -4 OFFCURVE",
"577 9 OFFCURVE",
"577 23 CURVE SMOOTH",
"577 72 OFFCURVE",
"544 275 OFFCURVE",
"546 275 CURVE SMOOTH"
);
},
{
closed = 1;
nodes = (
"197 298 LINE",
"250 395 OFFCURVE",
"353 519 OFFCURVE",
"429 597 CURVE",
"439 568 OFFCURVE",
"484 424 OFFCURVE",
"500 300 CURVE"
);
},
{
closed = 1;
nodes = (
"553 796 OFFCURVE",
"556 802 OFFCURVE",
"556 808 CURVE SMOOTH",
"556 820 OFFCURVE",
"547 835 OFFCURVE",
"535 835 CURVE SMOOTH",
"532 835 OFFCURVE",
"528 834 OFFCURVE",
"525 832 CURVE SMOOTH",
"454 785 OFFCURVE",
"378 726 OFFCURVE",
"378 714 CURVE SMOOTH",
"378 712 OFFCURVE",
"380 711 OFFCURVE",
"382 711 CURVE SMOOTH",
"383 711 OFFCURVE",
"385 711 OFFCURVE",
"387 712 CURVE SMOOTH",
"433 735 OFFCURVE",
"517 776 OFFCURVE",
"548 793 CURVE SMOOTH"
);
}
);
};
components = (
{
name = A;
},
{
name = acutecomb.case;
transform = "{1, 0, 0, 1, 326, 278}";
}
);
hints = (
{
horizontal = 1;
place = "{-7, 21}";
target = up;
type = BottomGhost;
},
{
horizontal = 1;
place = "{270, 29}";
type = Stem;
},
{
horizontal = 1;
place = "{835, -20}";
target = down;
type = TopGhost;
},
{
place = "{523, 54}";
type = Stem;
},
{
horizontal = 1;
place = "{-4, 21}";
target = up;
type = BottomGhost;
}
);
layerId = "3787E0F5-978F-4E40-B775-08CB0E3B1585";
width = 619;
}
);
note = Aacute;
unicode = 00C1;
},
{
color = 9;
glyphname = Acircumflex;
lastChange = "2021-04-22 11:18:27 +0000";
layers = (
{
background = {
paths = (
{
closed = 1;
nodes = (
"565 278 OFFCURVE",
"576 284 OFFCURVE",
"576 290 CURVE SMOOTH",
"576 296 OFFCURVE",
"565 300 OFFCURVE",
"543 301 CURVE",
"528 414 OFFCURVE",
"485 572 OFFCURVE",
"463 627 CURVE",
"465 632 OFFCURVE",
"466 636 OFFCURVE",
"466 641 CURVE SMOOTH",
"466 652 OFFCURVE",
"459 661 OFFCURVE",
"444 661 CURVE SMOOTH",
"411 661 OFFCURVE",
"400 642 OFFCURVE",
"400 631 CURVE SMOOTH",
"400 625 OFFCURVE",
"403 619 OFFCURVE",
"406 615 CURVE",
"320 523 OFFCURVE",
"226 407 OFFCURVE",
"160 300 CURVE",
"110 300 LINE SMOOTH",
"96 300 OFFCURVE",
"83 285 OFFCURVE",
"83 276 CURVE SMOOTH",
"83 272 OFFCURVE",
"86 269 OFFCURVE",
"93 269 CURVE SMOOTH",
"116 269 OFFCURVE",
"125 270 OFFCURVE",
"143 270 CURVE",
"100 195 OFFCURVE",
"58 107 OFFCURVE",
"42 16 CURVE SMOOTH",
"41 8 OFFCURVE",
"40 3 OFFCURVE",
"40 0 CURVE SMOOTH",
"40 -9 OFFCURVE",
"47 -7 OFFCURVE",
"59 -7 CURVE SMOOTH",
"68 -7 OFFCURVE",
"78 -6 OFFCURVE",
"79 4 CURVE SMOOTH",
"92 96 OFFCURVE",
"138 188 OFFCURVE",
"183 270 CURVE",
"286 270 OFFCURVE",
"401 272 OFFCURVE",
"503 273 CURVE",
"508 239 OFFCURVE",
"523 72 OFFCURVE",
"523 16 CURVE SMOOTH",
"523 4 LINE SMOOTH",
"523 -2 OFFCURVE",
"528 -4 OFFCURVE",
"535 -4 CURVE SMOOTH",
"551 -4 OFFCURVE",
"577 9 OFFCURVE",
"577 23 CURVE SMOOTH",
"577 72 OFFCURVE",
"544 275 OFFCURVE",
"546 275 CURVE SMOOTH"
);
},
{
closed = 1;
nodes = (
"197 298 LINE",
"250 395 OFFCURVE",
"353 519 OFFCURVE",
"429 597 CURVE",
"439 568 OFFCURVE",
"484 424 OFFCURVE",
"500 300 CURVE"
);
},
{
closed = 1;
nodes = (
"537 699 OFFCURVE",
"538 698 OFFCURVE",
"539 698 CURVE SMOOTH",
"542 698 OFFCURVE",
"544 702 OFFCURVE",
"544 706 CURVE SMOOTH",
"544 708 OFFCURVE",
"544 711 OFFCURVE",
"543 713 CURVE SMOOTH",
"535 728 OFFCURVE",
"479 820 OFFCURVE",
"471 823 CURVE",
"457 820 OFFCURVE",
"355 721 OFFCURVE",
"346 710 CURVE SMOOTH",
"343 706 OFFCURVE",
"342 703 OFFCURVE",
"342 701 CURVE SMOOTH",
"342 699 OFFCURVE",
"343 698 OFFCURVE",
"344 698 CURVE SMOOTH",
"348 698 OFFCURVE",
"436 766 OFFCURVE",
"458 786 CURVE",
"472 765 OFFCURVE",
"521 713 OFFCURVE",
"536 700 CURVE SMOOTH"
);
}
);
};
components = (
{
name = A;
},
{
name = circumflexcomb.case;
transform = "{1, 0, 0, 1, 299, 278}";
}
);
hints = (
{
horizontal = 1;
place = "{-7, 21}";
target = up;
type = BottomGhost;
},
{
horizontal = 1;
place = "{270, 29}";
type = Stem;
},
{
horizontal = 1;
place = "{698, -20}";
target = down;
type = TopGhost;
},
{
horizontal = 1;
place = "{823, -20}";
target = down;
type = TopGhost;
},
{
place = "{523, 54}";
type = Stem;
},
{
horizontal = 1;
place = "{-4, 21}";
target = up;
type = BottomGhost;
}
);
layerId = "3787E0F5-978F-4E40-B775-08CB0E3B1585";
width = 619;
}
);
note = Acircumflex;
unicode = 00C2;
},
{
color = 9;
glyphname = Adieresis;
lastChange = "2021-04-22 11:07:19 +0000";
layers = (
{
background = {
paths = (
{
closed = 1;
nodes = (
"565 278 OFFCURVE",
"576 284 OFFCURVE",
"576 290 CURVE SMOOTH",
"576 296 OFFCURVE",
"565 300 OFFCURVE",
"543 301 CURVE",
"528 414 OFFCURVE",
"485 572 OFFCURVE",
"463 627 CURVE",
"465 632 OFFCURVE",
"466 636 OFFCURVE",
"466 641 CURVE SMOOTH",
"466 652 OFFCURVE",
"459 661 OFFCURVE",
"444 661 CURVE SMOOTH",
"411 661 OFFCURVE",
"400 642 OFFCURVE",
"400 631 CURVE SMOOTH",
"400 625 OFFCURVE",
"403 619 OFFCURVE",
"406 615 CURVE",
"320 523 OFFCURVE",
"226 407 OFFCURVE",
"160 300 CURVE",
"110 300 LINE SMOOTH",
"96 300 OFFCURVE",
"83 285 OFFCURVE",
"83 276 CURVE SMOOTH",
"83 272 OFFCURVE",
"86 269 OFFCURVE",
"93 269 CURVE SMOOTH",
"116 269 OFFCURVE",
"125 270 OFFCURVE",
"143 270 CURVE",
"100 195 OFFCURVE",
"58 107 OFFCURVE",
"42 16 CURVE SMOOTH",
"41 8 OFFCURVE",
"40 3 OFFCURVE",
"40 0 CURVE SMOOTH",
"40 -9 OFFCURVE",
"47 -7 OFFCURVE",
"59 -7 CURVE SMOOTH",
"68 -7 OFFCURVE",
"78 -6 OFFCURVE",
"79 4 CURVE SMOOTH",
"92 96 OFFCURVE",
"138 188 OFFCURVE",
"183 270 CURVE",
"286 270 OFFCURVE",
"401 272 OFFCURVE",
"503 273 CURVE",
"508 239 OFFCURVE",
"523 72 OFFCURVE",
"523 16 CURVE SMOOTH",
"523 4 LINE SMOOTH",
"523 -2 OFFCURVE",
"528 -4 OFFCURVE",
"535 -4 CURVE SMOOTH",
"551 -4 OFFCURVE",
"577 9 OFFCURVE",
"577 23 CURVE SMOOTH",
"577 72 OFFCURVE",
"544 275 OFFCURVE",
"546 275 CURVE SMOOTH"
);
},
{
closed = 1;
nodes = (
"197 298 LINE",
"250 395 OFFCURVE",
"353 519 OFFCURVE",
"429 597 CURVE",
"439 568 OFFCURVE",
"484 424 OFFCURVE",
"500 300 CURVE"
);
},
{
closed = 1;
nodes = (
"544 832 OFFCURVE",
"542 833 OFFCURVE",
"539 833 CURVE SMOOTH",
"517 833 OFFCURVE",
"488 805 OFFCURVE",
"488 781 CURVE SMOOTH",
"488 768 OFFCURVE",
"490 754 OFFCURVE",
"506 754 CURVE",
"517 757 OFFCURVE",
"533 761 OFFCURVE",
"533 775 CURVE SMOOTH",
"533 781 OFFCURVE",
"545 812 OFFCURVE",
"545 830 CURVE"
);
},
{
closed = 1;
nodes = (
"416 832 OFFCURVE",
"414 833 OFFCURVE",
"412 833 CURVE SMOOTH",
"389 833 OFFCURVE",
"361 805 OFFCURVE",
"361 781 CURVE SMOOTH",
"361 768 OFFCURVE",
"364 754 OFFCURVE",
"378 754 CURVE",
"389 757 OFFCURVE",
"405 761 OFFCURVE",
"405 775 CURVE SMOOTH",
"405 781 OFFCURVE",
"417 812 OFFCURVE",
"417 830 CURVE"
);
}
);
};
components = (
{
name = A;
},
{
name = dieresiscomb.case;
transform = "{1, 0, 0, 1, 238, 275}";
}
);
hints = (
{
place = "{374, 53}";
type = Stem;
},
{
place = "{526, 53}";
type = Stem;
}
);
layerId = "3787E0F5-978F-4E40-B775-08CB0E3B1585";
width = 619;
}
);
note = Adieresis;
unicode = 00C4;
},
{
glyphname = Agrave;
lastChange = "2021-04-22 11:18:27 +0000";
layers = (
{
background = {
paths = (
{
closed = 1;
nodes = (
"565 278 OFFCURVE",
"576 284 OFFCURVE",
"576 290 CURVE SMOOTH",
"576 296 OFFCURVE",
"565 300 OFFCURVE",
"543 301 CURVE",
"528 414 OFFCURVE",
"485 572 OFFCURVE",
"463 627 CURVE",
"465 632 OFFCURVE",
"466 636 OFFCURVE",
"466 641 CURVE SMOOTH",
"466 652 OFFCURVE",
"459 661 OFFCURVE",
"444 661 CURVE SMOOTH",
"411 661 OFFCURVE",
"400 642 OFFCURVE",
"400 631 CURVE SMOOTH",
"400 625 OFFCURVE",
"403 619 OFFCURVE",
"406 615 CURVE",
"320 523 OFFCURVE",
"226 407 OFFCURVE",
"160 300 CURVE",
"110 300 LINE SMOOTH",
"96 300 OFFCURVE",
"83 285 OFFCURVE",
"83 276 CURVE SMOOTH",
"83 272 OFFCURVE",
"86 269 OFFCURVE",
"93 269 CURVE SMOOTH",
"116 269 OFFCURVE",
"125 270 OFFCURVE",
"143 270 CURVE",
"100 195 OFFCURVE",
"58 107 OFFCURVE",
"42 16 CURVE SMOOTH",
"41 8 OFFCURVE",
"40 3 OFFCURVE",
"40 0 CURVE SMOOTH",
"40 -9 OFFCURVE",
"47 -7 OFFCURVE",
"59 -7 CURVE SMOOTH",
"68 -7 OFFCURVE",
"78 -6 OFFCURVE",
"79 4 CURVE SMOOTH",
"92 96 OFFCURVE",
"138 188 OFFCURVE",
"183 270 CURVE",
"286 270 OFFCURVE",
"401 272 OFFCURVE",
"503 273 CURVE",
"508 239 OFFCURVE",
"523 72 OFFCURVE",
"523 16 CURVE SMOOTH",
"523 4 LINE SMOOTH",
"523 -2 OFFCURVE",
"528 -4 OFFCURVE",
"535 -4 CURVE SMOOTH",
"551 -4 OFFCURVE",
"577 9 OFFCURVE",
"577 23 CURVE SMOOTH",
"577 72 OFFCURVE",
"544 275 OFFCURVE",
"546 275 CURVE SMOOTH"
);
},
{
closed = 1;
nodes = (
"197 298 LINE",
"250 395 OFFCURVE",
"353 519 OFFCURVE",
"429 597 CURVE",
"439 568 OFFCURVE",
"484 424 OFFCURVE",
"500 300 CURVE"
);
},
{
closed = 1;
nodes = (
"375 777 OFFCURVE",
"459 736 OFFCURVE",
"505 713 CURVE SMOOTH",
"507 712 OFFCURVE",
"508 712 OFFCURVE",
"510 712 CURVE SMOOTH",
"512 712 OFFCURVE",
"513 713 OFFCURVE",
"513 715 CURVE SMOOTH",
"513 727 OFFCURVE",
"438 786 OFFCURVE",
"367 833 CURVE SMOOTH",
"363 835 OFFCURVE",
"360 836 OFFCURVE",
"357 836 CURVE SMOOTH",
"345 836 OFFCURVE",
"336 821 OFFCURVE",
"336 809 CURVE SMOOTH",
"336 803 OFFCURVE",
"338 797 OFFCURVE",
"344 794 CURVE SMOOTH"
);
}
);
};
components = (
{
name = A;
},
{
name = gravecomb.case;
transform = "{1, 0, 0, 1, 320, 278}";
}
);
hints = (
{
horizontal = 1;
place = "{-7, 21}";
target = up;
type = BottomGhost;
},
{
horizontal = 1;
place = "{270, 29}";
type = Stem;
},
{
horizontal = 1;
place = "{836, -20}";
target = down;
type = TopGhost;
},
{
place = "{523, 54}";
type = Stem;
},
{
horizontal = 1;
place = "{-4, 21}";
target = up;
type = BottomGhost;
}
);
layerId = "3787E0F5-978F-4E40-B775-08CB0E3B1585";
width = 619;
}
);
note = Agrave;
unicode = 00C0;
},
{
color = 9;
glyphname = Aring;
lastChange = "2021-04-22 11:07:19 +0000";
layers = (
{
background = {
paths = (
{
closed = 1;
nodes = (
"522 768 OFFCURVE",
"506 792 OFFCURVE",
"479 792 CURVE SMOOTH",
"438 792 OFFCURVE",
"389 739 OFFCURVE",
"389 687 CURVE SMOOTH",
"389 669 OFFCURVE",
"398 657 OFFCURVE",
"412 652 CURVE",
"403 646 OFFCURVE",
"400 638 OFFCURVE",
"400 631 CURVE SMOOTH",
"400 625 OFFCURVE",
"402 619 OFFCURVE",
"406 615 CURVE",
"320 523 OFFCURVE",
"226 407 OFFCURVE",
"160 300 CURVE",
"110 300 LINE SMOOTH",
"96 300 OFFCURVE",
"83 285 OFFCURVE",
"83 276 CURVE SMOOTH",
"83 272 OFFCURVE",
"86 269 OFFCURVE",
"93 269 CURVE SMOOTH",
"116 269 OFFCURVE",
"125 270 OFFCURVE",
"143 270 CURVE",
"100 195 OFFCURVE",
"58 107 OFFCURVE",
"42 16 CURVE SMOOTH",
"41 8 OFFCURVE",
"40 3 OFFCURVE",
"40 0 CURVE SMOOTH",
"40 -9 OFFCURVE",
"47 -7 OFFCURVE",
"59 -7 CURVE SMOOTH",
"68 -7 OFFCURVE",
"78 -6 OFFCURVE",
"79 4 CURVE SMOOTH",
"92 96 OFFCURVE",
"138 188 OFFCURVE",
"183 270 CURVE",
"286 270 OFFCURVE",
"401 272 OFFCURVE",
"503 273 CURVE",
"508 239 OFFCURVE",
"523 72 OFFCURVE",
"523 16 CURVE SMOOTH",
"523 4 LINE SMOOTH",
"523 -2 OFFCURVE",
"528 -4 OFFCURVE",
"535 -4 CURVE SMOOTH",
"551 -4 OFFCURVE",
"577 9 OFFCURVE",
"577 23 CURVE SMOOTH",
"577 72 OFFCURVE",
"544 275 OFFCURVE",
"546 275 CURVE SMOOTH",
"565 278 OFFCURVE",
"576 284 OFFCURVE",
"576 290 CURVE SMOOTH",
"576 296 OFFCURVE",
"565 300 OFFCURVE",
"543 301 CURVE",
"528 414 OFFCURVE",
"485 572 OFFCURVE",
"463 627 CURVE",
"464 631 OFFCURVE",
"465 635 OFFCURVE",
"465 639 CURVE SMOOTH",
"465 645 OFFCURVE",
"463 651 OFFCURVE",
"460 655 CURVE",
"495 669 OFFCURVE",
"522 706 OFFCURVE",
"522 743 CURVE SMOOTH"
);
},
{
closed = 1;
nodes = (
"197 298 LINE",
"250 395 OFFCURVE",
"353 519 OFFCURVE",
"429 597 CURVE",
"439 568 OFFCURVE",
"484 424 OFFCURVE",
"500 300 CURVE"
);
},
{
closed = 1;
nodes = (
"502 706 OFFCURVE",
"475 668 OFFCURVE",
"441 668 CURVE SMOOTH",
"420 668 OFFCURVE",
"412 680 OFFCURVE",
"412 696 CURVE SMOOTH",
"412 740 OFFCURVE",
"453 777 OFFCURVE",
"476 777 CURVE SMOOTH",
"494 777 OFFCURVE",
"502 763 OFFCURVE",
"502 743 CURVE SMOOTH"
);
}
);
};
components = (
{
name = A;
},
{
name = ringcomb.case;
transform = "{1, 0, 0, 1, 357, 275}";
}
);
hints = (
{
horizontal = 1;
place = "{649, 19}";
type = Stem;
},
{
horizontal = 1;
place = "{776, 19}";
type = Stem;
},
{
place = "{389, 37}";
type = Stem;
},
{
place = "{498, 24}";
type = Stem;
}
);
layerId = "3787E0F5-978F-4E40-B775-08CB0E3B1585";
width = 619;
}
);
note = Aring;
unicode = 00C5;
},
{
color = 9;
glyphname = Atilde;
lastChange = "2021-04-22 11:18:27 +0000";
layers = (
{
background = {
paths = (
{
closed = 1;
nodes = (
"565 278 OFFCURVE",
"576 284 OFFCURVE",
"576 290 CURVE SMOOTH",
"576 296 OFFCURVE",
"565 300 OFFCURVE",
"543 301 CURVE",
"528 414 OFFCURVE",
"485 572 OFFCURVE",
"463 627 CURVE",
"465 632 OFFCURVE",
"466 636 OFFCURVE",
"466 641 CURVE SMOOTH",
"466 652 OFFCURVE",
"459 661 OFFCURVE",
"444 661 CURVE SMOOTH",
"411 661 OFFCURVE",
"400 642 OFFCURVE",
"400 631 CURVE SMOOTH",
"400 625 OFFCURVE",
"403 619 OFFCURVE",
"406 615 CURVE",
"320 523 OFFCURVE",
"226 407 OFFCURVE",
"160 300 CURVE",
"110 300 LINE SMOOTH",
"96 300 OFFCURVE",
"83 285 OFFCURVE",
"83 276 CURVE SMOOTH",
"83 272 OFFCURVE",
"86 269 OFFCURVE",
"93 269 CURVE SMOOTH",
"116 269 OFFCURVE",
"125 270 OFFCURVE",
"143 270 CURVE",
"100 195 OFFCURVE",
"58 107 OFFCURVE",
"42 16 CURVE SMOOTH",
"41 8 OFFCURVE",
"40 3 OFFCURVE",
"40 0 CURVE SMOOTH",
"40 -9 OFFCURVE",
"47 -7 OFFCURVE",
"59 -7 CURVE SMOOTH",
"68 -7 OFFCURVE",
"78 -6 OFFCURVE",
"79 4 CURVE SMOOTH",
"92 96 OFFCURVE",
"138 188 OFFCURVE",
"183 270 CURVE",
"286 270 OFFCURVE",
"401 272 OFFCURVE",
"503 273 CURVE",
"508 239 OFFCURVE",
"523 72 OFFCURVE",
"523 16 CURVE SMOOTH",
"523 4 LINE SMOOTH",
"523 -2 OFFCURVE",
"528 -4 OFFCURVE",
"535 -4 CURVE SMOOTH",
"551 -4 OFFCURVE",
"577 9 OFFCURVE",
"577 23 CURVE SMOOTH",
"577 72 OFFCURVE",
"544 275 OFFCURVE",
"546 275 CURVE SMOOTH"
);
},
{
closed = 1;
nodes = (
"197 298 LINE",
"250 395 OFFCURVE",
"353 519 OFFCURVE",
"429 597 CURVE",
"439 568 OFFCURVE",
"484 424 OFFCURVE",
"500 300 CURVE"
);
},
{
closed = 1;
nodes = (
"560 793 OFFCURVE",
"556 794 OFFCURVE",
"554 794 CURVE",
"543 781 OFFCURVE",
"530 773 OFFCURVE",
"512 773 CURVE SMOOTH",
"480 773 OFFCURVE",
"450 794 OFFCURVE",
"417 794 CURVE SMOOTH",
"404 794 OFFCURVE",
"392 791 OFFCURVE",
"381 784 CURVE SMOOTH",
"372 779 OFFCURVE",
"338 753 OFFCURVE",
"338 743 CURVE SMOOTH",
"338 742 OFFCURVE",
"338 741 OFFCURVE",
"340 741 CURVE SMOOTH",
"353 741 OFFCURVE",
"364 767 OFFCURVE",
"394 767 CURVE SMOOTH",
"428 767 OFFCURVE",
"458 740 OFFCURVE",
"493 740 CURVE SMOOTH",
"500 740 OFFCURVE",
"560 760 OFFCURVE",
"560 790 CURVE SMOOTH"
);
}
);
};
components = (
{
name = A;
},
{
name = tildecomb.case;
transform = "{1, 0, 0, 1, 306, 277}";
}
);
hints = (
{
horizontal = 1;
place = "{688, 27}";
type = Stem;
}
);
layerId = "3787E0F5-978F-4E40-B775-08CB0E3B1585";
width = 619;
}
);
note = Atilde;
unicode = 00C3;
},
{
glyphname = AE;
lastChange = "2021-04-08 07:25:46 +0000";
layers = (
{
background = {
paths = (
{
closed = 1;
nodes = (
"948 46 LINE",
"913 35 OFFCURVE",
"862 30 OFFCURVE",
"833 30 CURVE SMOOTH",
"699 30 OFFCURVE",
"605 31 OFFCURVE",
"557 31 CURVE",
"556 34 OFFCURVE",
"556 39 OFFCURVE",
"556 45 CURVE SMOOTH",
"556 100 OFFCURVE",
"571 247 OFFCURVE",
"577 271 CURVE",
"819 271 LINE",
"845 275 OFFCURVE",
"857 291 OFFCURVE",
"857 299 CURVE SMOOTH",
"857 303 OFFCURVE",
"855 305 OFFCURVE",
"851 305 CURVE SMOOTH",
"805 303 OFFCURVE",
"630 302 OFFCURVE",
"582 302 CURVE",
"587 360 OFFCURVE",
"627 593 OFFCURVE",
"637 620 CURVE",
"696 619 OFFCURVE",
"725 618 OFFCURVE",
"760 618 CURVE SMOOTH",
"774 618 OFFCURVE",
"789 619 OFFCURVE",
"807 619 CURVE SMOOTH",
"829 619 OFFCURVE",
"875 619 OFFCURVE",
"892 617 CURVE SMOOTH",
"911 615 OFFCURVE",
"916 591 OFFCURVE",
"926 591 CURVE SMOOTH",
"940 591 OFFCURVE",
"957 621 OFFCURVE",
"957 635 CURVE SMOOTH",
"957 643 OFFCURVE",
"953 650 OFFCURVE",
"942 650 CURVE SMOOTH",
"868 650 OFFCURVE",
"812 649 OFFCURVE",
"771 649 CURVE SMOOTH",
"687 649 OFFCURVE",
"660 650 OFFCURVE",
"647 650 CURVE",
"653 665 OFFCURVE",
"650 656 OFFCURVE",
"656 668 CURVE",
"656 679 OFFCURVE",
"646 683 OFFCURVE",
"636 683 CURVE SMOOTH",
"600 683 OFFCURVE",
"601 652 OFFCURVE",
"578 650 CURVE SMOOTH",
"540 646 OFFCURVE",
"509 647 OFFCURVE",
"509 633 CURVE SMOOTH",
"509 629 OFFCURVE",
"515 625 OFFCURVE",
"531 625 CURVE SMOOTH",
"544 625 LINE",
"434 534 OFFCURVE",
"313 405 OFFCURVE",
"219 300 CURVE",
"169 300 LINE SMOOTH",
"154 300 OFFCURVE",
"136 283 OFFCURVE",
"136 274 CURVE SMOOTH",
"136 271 OFFCURVE",
"138 269 OFFCURVE",
"144 269 CURVE SMOOTH",
"167 269 OFFCURVE",
"176 270 OFFCURVE",
"194 270 CURVE",
"131 195 OFFCURVE",
"65 107 OFFCURVE",
"25 16 CURVE SMOOTH",
"20 5 OFFCURVE",
"18 -1 OFFCURVE",
"18 -4 CURVE SMOOTH",
"18 -8 OFFCURVE",
"24 -7 OFFCURVE",
"35 -7 CURVE SMOOTH",
"44 -7 OFFCURVE",
"54 -6 OFFCURVE",
"57 4 CURVE",
"96 96 OFFCURVE",
"167 188 OFFCURVE",
"234 270 CURVE",
"335 270 OFFCURVE",
"431 272 OFFCURVE",
"531 273 CURVE",
"517 185 OFFCURVE",
"501 5 OFFCURVE",
"501 11 CURVE SMOOTH",
"501 3 OFFCURVE",
"505 -1 OFFCURVE",
"518 -1 CURVE SMOOTH",
"661 -1 OFFCURVE",
"790 0 OFFCURVE",
"923 0 CURVE SMOOTH",
"944 0 OFFCURVE",
"953 23 OFFCURVE",
"953 36 CURVE SMOOTH",
"953 42 OFFCURVE",
"952 46 OFFCURVE",
"949 46 CURVE SMOOTH"
);
},
{
closed = 1;
nodes = (
"575 555 OFFCURVE",
"548 403 OFFCURVE",
"534 300 CURVE",
"258 300 LINE",
"335 395 OFFCURVE",
"524 588 OFFCURVE",
"593 626 CURVE"
);
}
);
};
hints = (
{
horizontal = 1;
place = "{269, 33}";
type = Stem;
},
{
horizontal = 1;
place = "{655, 19}";
type = Stem;
},
{
place = "{-27, 37}";
type = Stem;
},
{
place = "{457, 35}";
type = Stem;
}
);
layerId = "3787E0F5-978F-4E40-B775-08CB0E3B1585";
paths = (
{
closed = 1;
nodes = (
"44 -7 OFFCURVE",
"54 -6 OFFCURVE",
"57 4 CURVE",
"96 96 OFFCURVE",
"167 188 OFFCURVE",
"234 270 CURVE",
"335 270 OFFCURVE",
"431 272 OFFCURVE",
"531 273 CURVE",
"517 185 OFFCURVE",
"501 5 OFFCURVE",
"501 11 CURVE SMOOTH",
"501 3 OFFCURVE",
"505 -1 OFFCURVE",
"518 -1 CURVE SMOOTH",
"661 -1 OFFCURVE",
"790 0 OFFCURVE",
"923 0 CURVE SMOOTH",
"944 0 OFFCURVE",
"953 23 OFFCURVE",
"953 36 CURVE SMOOTH",
"953 42 OFFCURVE",
"952 46 OFFCURVE",
"949 46 CURVE SMOOTH",
"948 46 LINE",
"913 35 OFFCURVE",
"862 30 OFFCURVE",
"833 30 CURVE SMOOTH",
"699 30 OFFCURVE",
"605 31 OFFCURVE",
"557 31 CURVE",
"556 34 OFFCURVE",
"556 39 OFFCURVE",
"556 45 CURVE SMOOTH",
"556 100 OFFCURVE",
"571 247 OFFCURVE",
"577 271 CURVE",
"819 271 LINE",
"845 275 OFFCURVE",
"857 291 OFFCURVE",
"857 299 CURVE SMOOTH",
"857 303 OFFCURVE",
"855 305 OFFCURVE",
"851 305 CURVE SMOOTH",
"805 303 OFFCURVE",
"630 302 OFFCURVE",
"582 302 CURVE",
"587 360 OFFCURVE",
"627 593 OFFCURVE",
"637 620 CURVE",
"696 619 OFFCURVE",
"725 618 OFFCURVE",
"760 618 CURVE SMOOTH",
"774 618 OFFCURVE",
"789 619 OFFCURVE",
"807 619 CURVE SMOOTH",
"829 619 OFFCURVE",
"875 619 OFFCURVE",
"892 617 CURVE SMOOTH",
"911 615 OFFCURVE",
"916 591 OFFCURVE",
"926 591 CURVE SMOOTH",
"940 591 OFFCURVE",
"957 621 OFFCURVE",
"957 635 CURVE SMOOTH",
"957 643 OFFCURVE",
"953 650 OFFCURVE",
"942 650 CURVE SMOOTH",
"868 650 OFFCURVE",
"812 649 OFFCURVE",
"771 649 CURVE SMOOTH",
"687 649 OFFCURVE",
"660 650 OFFCURVE",
"647 650 CURVE",
"653 665 OFFCURVE",
"650 656 OFFCURVE",
"656 668 CURVE",
"656 679 OFFCURVE",
"646 683 OFFCURVE",
"636 683 CURVE SMOOTH",
"600 683 OFFCURVE",
"601 652 OFFCURVE",
"578 650 CURVE SMOOTH",
"540 646 OFFCURVE",
"509 647 OFFCURVE",
"509 633 CURVE SMOOTH",
"509 629 OFFCURVE",
"515 625 OFFCURVE",
"531 625 CURVE SMOOTH",
"544 625 LINE",
"434 534 OFFCURVE",
"313 405 OFFCURVE",
"219 300 CURVE",
"169 300 LINE SMOOTH",
"154 300 OFFCURVE",
"136 283 OFFCURVE",
"136 274 CURVE SMOOTH",
"136 271 OFFCURVE",
"138 269 OFFCURVE",
"144 269 CURVE SMOOTH",
"167 269 OFFCURVE",
"176 270 OFFCURVE",
"194 270 CURVE",
"131 195 OFFCURVE",
"65 107 OFFCURVE",
"25 16 CURVE SMOOTH",
"20 5 OFFCURVE",
"18 -1 OFFCURVE",
"18 -4 CURVE SMOOTH",
"18 -7 OFFCURVE",
"21 -7 OFFCURVE",
"26 -7 CURVE SMOOTH",
"28 -7 OFFCURVE",
"31 -7 OFFCURVE",
"35 -7 CURVE SMOOTH"
);
},
{
closed = 1;
nodes = (
"335 395 OFFCURVE",
"524 588 OFFCURVE",
"593 626 CURVE",
"575 555 OFFCURVE",
"548 403 OFFCURVE",
"534 300 CURVE",
"258 300 LINE"
);
}
);
width = 960;
}
);
note = AE;
unicode = 00C6;
},
{
glyphname = B;
lastChange = "2021-04-08 07:25:40 +0000";
layers = (
{
background = {
paths = (
{
closed = 1;
nodes = (
"595 295 OFFCURVE",
"473 317 OFFCURVE",
"384 317 CURVE SMOOTH",
"365 317 OFFCURVE",
"348 316 OFFCURVE",
"334 315 CURVE",
"396 341 OFFCURVE",
"497 405 OFFCURVE",
"497 486 CURVE SMOOTH",
"497 612 OFFCURVE",
"304 639 OFFCURVE",
"219 647 CURVE",
"221 653 OFFCURVE",
"239 668 OFFCURVE",
"239 682 CURVE SMOOTH",
"239 689 OFFCURVE",
"232 692 OFFCURVE",
"224 692 CURVE SMOOTH",
"197 692 OFFCURVE",
"169 684 OFFCURVE",
"163 650 CURVE",
"124 650 LINE SMOOTH",
"101 650 OFFCURVE",
"82 640 OFFCURVE",
"82 633 CURVE SMOOTH",
"82 629 OFFCURVE",
"88 626 OFFCURVE",
"104 625 CURVE SMOOTH",
"157 625 LINE",
"129 510 OFFCURVE",
"101 289 OFFCURVE",
"101 138 CURVE SMOOTH",
"101 94 OFFCURVE",
"103 57 OFFCURVE",
"109 29 CURVE",
"101 31 OFFCURVE",
"98 32 OFFCURVE",
"96 32 CURVE SMOOTH",
"90 32 OFFCURVE",
"85 28 OFFCURVE",
"85 23 CURVE SMOOTH",
"85 10 OFFCURVE",
"114 -16 OFFCURVE",
"135 -16 CURVE SMOOTH",
"143 -16 OFFCURVE",
"150 -13 OFFCURVE",
"154 -4 CURVE",
"178 -9 OFFCURVE",
"206 -11 OFFCURVE",
"236 -11 CURVE SMOOTH",
"391 -11 OFFCURVE",
"595 55 OFFCURVE",
"595 197 CURVE SMOOTH"
);
},
{
closed = 1;
nodes = (
"549 58 OFFCURVE",
"376 14 OFFCURVE",
"238 14 CURVE SMOOTH",
"205 14 OFFCURVE",
"174 17 OFFCURVE",
"150 22 CURVE",
"146 63 OFFCURVE",
"144 129 OFFCURVE",
"144 186 CURVE SMOOTH",
"144 226 OFFCURVE",
"145 261 OFFCURVE",
"147 278 CURVE",
"207 287 OFFCURVE",
"259 296 OFFCURVE",
"321 296 CURVE SMOOTH",
"412 296 OFFCURVE",
"547 278 OFFCURVE",
"549 187 CURVE SMOOTH"
);
},
{
closed = 1;
nodes = (
"452 492 OFFCURVE",
"453 485 OFFCURVE",
"453 478 CURVE SMOOTH",
"453 332 OFFCURVE",
"205 309 OFFCURVE",
"172 309 CURVE SMOOTH",
"159 309 OFFCURVE",
"150 310 OFFCURVE",
"149 310 CURVE",
"153 369 OFFCURVE",
"194 572 OFFCURVE",
"211 623 CURVE",
"212 623 LINE SMOOTH",
"279 615 OFFCURVE",
"425 584 OFFCURVE",
"451 500 CURVE"
);
}
);
};
hints = (
{
horizontal = 1;
place = "{-16, 21}";
target = up;
type = BottomGhost;
},
{
horizontal = 1;
place = "{296, 21}";
type = Stem;
},
{
horizontal = 1;
place = "{625, 25}";
type = Stem;
},
{
horizontal = 1;
place = "{692, -20}";
target = down;
type = TopGhost;
},
{
place = "{101, 43}";
type = Stem;
},
{
place = "{453, 44}";
type = Stem;
},
{
place = "{549, 46}";
type = Stem;
},
{
horizontal = 1;
place = "{-11, 25}";
type = Stem;
}
);
layerId = "3787E0F5-978F-4E40-B775-08CB0E3B1585";
paths = (
{
closed = 1;
nodes = (
"143 -16 OFFCURVE",
"150 -13 OFFCURVE",
"154 -4 CURVE",
"178 -9 OFFCURVE",
"206 -11 OFFCURVE",
"236 -11 CURVE SMOOTH",
"391 -11 OFFCURVE",
"595 55 OFFCURVE",
"595 197 CURVE SMOOTH",
"595 295 OFFCURVE",
"473 317 OFFCURVE",
"384 317 CURVE SMOOTH",
"365 317 OFFCURVE",
"348 316 OFFCURVE",
"334 315 CURVE",
"396 341 OFFCURVE",
"497 405 OFFCURVE",
"497 486 CURVE SMOOTH",
"497 612 OFFCURVE",
"304 639 OFFCURVE",
"219 647 CURVE",
"221 653 OFFCURVE",
"239 668 OFFCURVE",
"239 682 CURVE SMOOTH",
"239 689 OFFCURVE",
"232 692 OFFCURVE",
"224 692 CURVE SMOOTH",
"197 692 OFFCURVE",
"169 684 OFFCURVE",
"163 650 CURVE",
"124 650 LINE SMOOTH",
"101 650 OFFCURVE",
"82 640 OFFCURVE",
"82 633 CURVE SMOOTH",
"82 629 OFFCURVE",
"88 626 OFFCURVE",
"104 625 CURVE SMOOTH",
"157 625 LINE",
"129 510 OFFCURVE",
"101 289 OFFCURVE",
"101 138 CURVE SMOOTH",
"101 94 OFFCURVE",
"103 57 OFFCURVE",
"109 29 CURVE",
"101 31 OFFCURVE",
"98 32 OFFCURVE",
"96 32 CURVE SMOOTH",
"90 32 OFFCURVE",
"85 28 OFFCURVE",
"85 23 CURVE SMOOTH",
"85 10 OFFCURVE",
"114 -16 OFFCURVE",
"135 -16 CURVE SMOOTH"
);
},
{
closed = 1;
nodes = (
"205 14 OFFCURVE",
"174 17 OFFCURVE",
"150 22 CURVE",
"146 63 OFFCURVE",
"144 129 OFFCURVE",
"144 186 CURVE SMOOTH",
"144 226 OFFCURVE",
"145 261 OFFCURVE",
"147 278 CURVE",
"207 287 OFFCURVE",
"259 296 OFFCURVE",
"321 296 CURVE SMOOTH",
"412 296 OFFCURVE",
"547 278 OFFCURVE",
"549 187 CURVE SMOOTH",
"549 58 OFFCURVE",
"376 14 OFFCURVE",
"238 14 CURVE SMOOTH"
);
},
{
closed = 1;
nodes = (
"159 309 OFFCURVE",
"150 310 OFFCURVE",
"149 310 CURVE",
"153 369 OFFCURVE",
"194 572 OFFCURVE",
"211 623 CURVE",
"212 623 LINE SMOOTH",
"279 615 OFFCURVE",
"425 584 OFFCURVE",
"451 500 CURVE",
"452 492 OFFCURVE",
"453 485 OFFCURVE",
"453 478 CURVE SMOOTH",
"453 332 OFFCURVE",
"205 309 OFFCURVE",
"172 309 CURVE SMOOTH"
);
}
);
width = 631;
}
);
note = B;
unicode = 0042;
},
{
glyphname = C;
lastChange = "2021-04-08 07:25:40 +0000";
layers = (
{
anchors = (
{
name = bottom;
position = "{342, 0}";
},
{
name = top;
position = "{440, 650}";
}
);
background = {
paths = (
{
closed = 1;
nodes = (
"613 125 OFFCURVE",
"524 7 OFFCURVE",
"339 7 CURVE SMOOTH",
"182 7 OFFCURVE",
"108 133 OFFCURVE",
"108 271 CURVE SMOOTH",
"108 454 OFFCURVE",
"234 633 OFFCURVE",
"442 633 CURVE SMOOTH",
"502 633 OFFCURVE",
"574 602 OFFCURVE",
"574 553 CURVE SMOOTH",
"574 535 OFFCURVE",
"554 516 OFFCURVE",
"554 493 CURVE SMOOTH",
"554 482 OFFCURVE",
"561 474 OFFCURVE",
"575 474 CURVE SMOOTH",
"597 474 OFFCURVE",
"615 495 OFFCURVE",
"615 536 CURVE SMOOTH",
"615 641 OFFCURVE",
"518 658 OFFCURVE",
"440 658 CURVE SMOOTH",
"194 658 OFFCURVE",
"59 478 OFFCURVE",
"59 274 CURVE SMOOTH",
"59 99 OFFCURVE",
"158 -16 OFFCURVE",
"348 -16 CURVE SMOOTH",
"457 -16 OFFCURVE",
"651 42 OFFCURVE",
"651 152 CURVE SMOOTH",
"651 161 OFFCURVE",
"649 167 OFFCURVE",
"646 167 CURVE SMOOTH",
"644 167 OFFCURVE",
"642 165 OFFCURVE",
"639 162 CURVE"
);
}
);
};
layerId = "3787E0F5-978F-4E40-B775-08CB0E3B1585";
paths = (
{
closed = 1;
nodes = (
"457 -13 OFFCURVE",
"651 45 OFFCURVE",
"651 155 CURVE SMOOTH",
"651 164 OFFCURVE",
"649 170 OFFCURVE",
"646 170 CURVE SMOOTH",
"644 170 OFFCURVE",
"642 168 OFFCURVE",
"639 165 CURVE",
"613 128 OFFCURVE",
"524 10 OFFCURVE",
"339 10 CURVE SMOOTH",
"182 10 OFFCURVE",
"108 136 OFFCURVE",
"108 274 CURVE SMOOTH",
"108 457 OFFCURVE",
"234 636 OFFCURVE",
"442 636 CURVE SMOOTH",
"502 636 OFFCURVE",
"574 605 OFFCURVE",
"574 556 CURVE SMOOTH",
"574 538 OFFCURVE",
"554 519 OFFCURVE",
"554 496 CURVE SMOOTH",
"554 485 OFFCURVE",
"561 477 OFFCURVE",
"575 477 CURVE SMOOTH",
"597 477 OFFCURVE",
"615 498 OFFCURVE",
"615 539 CURVE SMOOTH",
"615 644 OFFCURVE",
"518 661 OFFCURVE",
"440 661 CURVE SMOOTH",
"194 661 OFFCURVE",
"59 481 OFFCURVE",
"59 277 CURVE SMOOTH",
"59 102 OFFCURVE",
"158 -13 OFFCURVE",
"348 -13 CURVE SMOOTH"
);
}
);
width = 684;
}
);
leftKerningGroup = Ccedilla;
note = C;
rightKerningGroup = Ccedilla;
unicode = 0043;
},
{
color = 9;
glyphname = Ccedilla;
lastChange = "2021-04-22 11:07:19 +0000";
layers = (
{
background = {
paths = (
{
closed = 1;
nodes = (
"370 -117 OFFCURVE",
"313 -87 OFFCURVE",
"313 -61 CURVE SMOOTH",
"313 -43 OFFCURVE",
"319 -28 OFFCURVE",
"333 -16 CURVE",
"348 -16 LINE SMOOTH",
"457 -16 OFFCURVE",
"651 42 OFFCURVE",
"651 152 CURVE SMOOTH",
"651 161 OFFCURVE",
"649 167 OFFCURVE",
"646 167 CURVE SMOOTH",
"633 167 OFFCURVE",
"546 7 OFFCURVE",
"339 7 CURVE SMOOTH",
"182 7 OFFCURVE",
"108 133 OFFCURVE",
"108 271 CURVE SMOOTH",
"108 454 OFFCURVE",
"234 633 OFFCURVE",
"442 633 CURVE SMOOTH",
"502 633 OFFCURVE",
"574 602 OFFCURVE",
"574 553 CURVE SMOOTH",
"574 535 OFFCURVE",
"554 516 OFFCURVE",
"554 493 CURVE SMOOTH",
"554 482 OFFCURVE",
"561 474 OFFCURVE",
"575 474 CURVE SMOOTH",
"597 474 OFFCURVE",
"615 495 OFFCURVE",
"615 536 CURVE SMOOTH",
"615 641 OFFCURVE",
"518 658 OFFCURVE",
"440 658 CURVE SMOOTH",
"194 658 OFFCURVE",
"59 478 OFFCURVE",
"59 274 CURVE SMOOTH",
"59 113 OFFCURVE",
"142 3 OFFCURVE",
"303 -13 CURVE",
"284 -30 OFFCURVE",
"278 -53 OFFCURVE",
"278 -76 CURVE SMOOTH",
"278 -110 OFFCURVE",
"329 -145 OFFCURVE",
"329 -171 CURVE SMOOTH",
"329 -252 OFFCURVE",
"215 -213 OFFCURVE",
"215 -240 CURVE SMOOTH",
"215 -245 OFFCURVE",
"219 -250 OFFCURVE",
"224 -250 CURVE SMOOTH",
"280 -250 OFFCURVE",
"370 -224 OFFCURVE",
"370 -162 CURVE SMOOTH"
);
}
);
};
components = (
{
name = C;
},
{
name = cedillacomb;
transform = "{1, 0, 0, 1, 206, 0}";
}
);
hints = (
{
place = "{275, 36}";
type = Stem;
},
{
place = "{327, 42}";
type = Stem;
}
);
layerId = "3787E0F5-978F-4E40-B775-08CB0E3B1585";
width = 684;
}
);
leftKerningGroup = Ccedilla;
note = Ccedilla;
rightKerningGroup = Ccedilla;
unicode = 00C7;
},
{
glyphname = D;
lastChange = "2021-04-08 07:25:40 +0000";
layers = (
{
anchors = (
{
name = bottom;
position = "{388, 0}";
},
{
name = center;
position = "{388, 325}";
},
{
name = top;
position = "{388, 650}";
}
);
background = {
paths = (
{
closed = 1;
nodes = (
"233 689 OFFCURVE",
"227 692 OFFCURVE",
"219 692 CURVE SMOOTH",
"186 692 OFFCURVE",
"172 677 OFFCURVE",
"167 648 CURVE",
"128 648 LINE SMOOTH",
"104 648 OFFCURVE",
"92 627 OFFCURVE",
"92 615 CURVE SMOOTH",
"92 609 OFFCURVE",
"94 605 OFFCURVE",
"99 605 CURVE SMOOTH",
"105 605 OFFCURVE",
"133 611 OFFCURVE",
"151 611 CURVE SMOOTH",
"159 611 LINE",
"130 499 OFFCURVE",
"99 283 OFFCURVE",
"99 137 CURVE SMOOTH",
"99 99 OFFCURVE",
"101 65 OFFCURVE",
"106 40 CURVE",
"103 41 OFFCURVE",
"102 41 OFFCURVE",
"100 41 CURVE SMOOTH",
"94 41 OFFCURVE",
"93 37 OFFCURVE",
"93 33 CURVE SMOOTH",
"93 9 OFFCURVE",
"135 -9 OFFCURVE",
"204 -9 CURVE SMOOTH",
"382 -9 OFFCURVE",
"725 109 OFFCURVE",
"725 344 CURVE SMOOTH",
"725 565 OFFCURVE",
"466 651 OFFCURVE",
"247 651 CURVE SMOOTH",
"221 651 LINE",
"228 671 OFFCURVE",
"229 672 OFFCURVE",
"233 681 CURVE"
);
},
{
closed = 1;
nodes = (
"143 122 OFFCURVE",
"143 139 OFFCURVE",
"143 157 CURVE SMOOTH",
"143 306 OFFCURVE",
"169 471 OFFCURVE",
"211 613 CURVE",
"246 613 LINE SMOOTH",
"329 613 OFFCURVE",
"688 598 OFFCURVE",
"688 377 CURVE SMOOTH",
"688 318 OFFCURVE",
"667 265 OFFCURVE",
"614 197 CURVE SMOOTH",
"543 105 OFFCURVE",
"356 18 OFFCURVE",
"234 18 CURVE SMOOTH",
"159 18 OFFCURVE",
"146 45 OFFCURVE",
"144 105 CURVE SMOOTH"
);
}
);
};
hints = (
{
horizontal = 1;
place = "{-9, 27}";
type = Stem;
},
{
horizontal = 1;
place = "{611, 81}";
type = Stem;
},
{
place = "{99, 44}";
type = Stem;
},
{
place = "{688, 37}";
type = Stem;
},
{
horizontal = 1;
place = "{611, 40}";
type = Stem;
}
);
layerId = "3787E0F5-978F-4E40-B775-08CB0E3B1585";
paths = (
{
closed = 1;
nodes = (
"382 -9 OFFCURVE",
"725 109 OFFCURVE",
"725 344 CURVE SMOOTH",
"725 565 OFFCURVE",
"466 651 OFFCURVE",
"247 651 CURVE SMOOTH",
"221 651 LINE",
"228 671 OFFCURVE",
"229 672 OFFCURVE",
"233 681 CURVE",
"233 689 OFFCURVE",
"227 692 OFFCURVE",
"219 692 CURVE SMOOTH",
"186 692 OFFCURVE",
"172 677 OFFCURVE",
"167 648 CURVE",
"128 648 LINE SMOOTH",
"104 648 OFFCURVE",
"92 627 OFFCURVE",
"92 615 CURVE SMOOTH",
"92 609 OFFCURVE",
"94 605 OFFCURVE",
"99 605 CURVE SMOOTH",
"105 605 OFFCURVE",
"133 611 OFFCURVE",
"151 611 CURVE SMOOTH",
"159 611 LINE",
"130 499 OFFCURVE",
"99 283 OFFCURVE",
"99 137 CURVE SMOOTH",
"99 99 OFFCURVE",
"101 65 OFFCURVE",
"106 40 CURVE",
"103 41 OFFCURVE",
"102 41 OFFCURVE",
"100 41 CURVE SMOOTH",
"94 41 OFFCURVE",
"93 37 OFFCURVE",
"93 33 CURVE SMOOTH",
"93 9 OFFCURVE",
"135 -9 OFFCURVE",
"204 -9 CURVE SMOOTH"
);
},
{
closed = 1;
nodes = (
"159 18 OFFCURVE",
"146 45 OFFCURVE",
"144 105 CURVE SMOOTH",
"143 122 OFFCURVE",
"143 139 OFFCURVE",
"143 157 CURVE SMOOTH",
"143 306 OFFCURVE",
"169 471 OFFCURVE",
"211 613 CURVE",
"246 613 LINE SMOOTH",
"329 613 OFFCURVE",
"688 598 OFFCURVE",
"688 377 CURVE SMOOTH",
"688 318 OFFCURVE",
"667 265 OFFCURVE",
"614 197 CURVE SMOOTH",
"543 105 OFFCURVE",
"356 18 OFFCURVE",
"234 18 CURVE SMOOTH"
);
}
);
width = 775;
}
);
note = D;
rightKerningGroup = Eth;
unicode = 0044;
},
{
glyphname = Eth;
lastChange = "2021-04-08 07:25:40 +0000";
layers = (
{
background = {
paths = (
{
closed = 1;
nodes = (
"233 689 OFFCURVE",
"227 692 OFFCURVE",
"219 692 CURVE SMOOTH",
"183 692 OFFCURVE",
"170 674 OFFCURVE",
"164 640 CURVE",
"125 640 LINE SMOOTH",
"101 640 OFFCURVE",
"89 619 OFFCURVE",
"89 607 CURVE SMOOTH",
"89 601 OFFCURVE",
"91 597 OFFCURVE",
"96 597 CURVE SMOOTH",
"102 597 OFFCURVE",
"130 603 OFFCURVE",
"148 603 CURVE SMOOTH",
"156 603 LINE",
"135 521 OFFCURVE",
"113 385 OFFCURVE",
"103 262 CURVE",
"89 263 OFFCURVE",
"71 264 OFFCURVE",
"55 264 CURVE SMOOTH",
"22 264 OFFCURVE",
"12 258 OFFCURVE",
"12 247 CURVE SMOOTH",
"12 235 OFFCURVE",
"31 227 OFFCURVE",
"48 227 CURVE SMOOTH",
"64 227 OFFCURVE",
"82 227 OFFCURVE",
"101 228 CURVE",
"99 198 OFFCURVE",
"98 169 OFFCURVE",
"98 142 CURVE SMOOTH",
"98 102 OFFCURVE",
"100 67 OFFCURVE",
"106 40 CURVE",
"103 41 OFFCURVE",
"102 41 OFFCURVE",
"100 41 CURVE SMOOTH",
"94 41 OFFCURVE",
"93 37 OFFCURVE",
"93 33 CURVE SMOOTH",
"93 9 OFFCURVE",
"135 -9 OFFCURVE",
"204 -9 CURVE SMOOTH",
"382 -9 OFFCURVE",
"725 109 OFFCURVE",
"725 344 CURVE SMOOTH",
"725 558 OFFCURVE",
"461 644 OFFCURVE",
"262 644 CURVE SMOOTH",
"247 644 OFFCURVE",
"232 644 OFFCURVE",
"218 643 CURVE",
"225 663 OFFCURVE",
"229 672 OFFCURVE",
"233 681 CURVE"
);
},
{
closed = 1;
nodes = (
"143 125 OFFCURVE",
"142 146 OFFCURVE",
"142 167 CURVE SMOOTH",
"142 188 OFFCURVE",
"143 209 OFFCURVE",
"144 231 CURVE",
"206 237 OFFCURVE",
"263 245 OFFCURVE",
"263 256 CURVE SMOOTH",
"263 263 OFFCURVE",
"176 262 OFFCURVE",
"146 262 CURVE",
"154 378 OFFCURVE",
"176 496 OFFCURVE",
"208 605 CURVE",
"222 606 OFFCURVE",
"235 606 OFFCURVE",
"247 606 CURVE SMOOTH",
"456 606 OFFCURVE",
"688 537 OFFCURVE",
"688 377 CURVE SMOOTH",
"688 318 OFFCURVE",
"667 265 OFFCURVE",
"614 197 CURVE SMOOTH",
"543 105 OFFCURVE",
"356 18 OFFCURVE",
"234 18 CURVE SMOOTH",
"159 18 OFFCURVE",
"146 45 OFFCURVE",
"144 105 CURVE SMOOTH"
);
}
);
};
hints = (
{
horizontal = 1;
place = "{-9, 27}";
type = Stem;
},
{
horizontal = 1;
place = "{227, 37}";
type = Stem;
},
{
horizontal = 1;
place = "{606, 86}";
type = Stem;
},
{
place = "{98, 44}";
type = Stem;
},
{
place = "{688, 37}";
type = Stem;
},
{
horizontal = 1;
place = "{606, 38}";
type = Stem;
}
);
layerId = "3787E0F5-978F-4E40-B775-08CB0E3B1585";
paths = (
{
closed = 1;
nodes = (
"382 -9 OFFCURVE",
"725 109 OFFCURVE",
"725 344 CURVE SMOOTH",
"725 558 OFFCURVE",
"461 644 OFFCURVE",
"262 644 CURVE SMOOTH",
"247 644 OFFCURVE",
"232 644 OFFCURVE",
"218 643 CURVE",
"225 663 OFFCURVE",
"229 672 OFFCURVE",
"233 681 CURVE",
"233 689 OFFCURVE",
"227 692 OFFCURVE",
"219 692 CURVE SMOOTH",
"183 692 OFFCURVE",
"170 674 OFFCURVE",
"164 640 CURVE",
"125 640 LINE SMOOTH",
"101 640 OFFCURVE",
"89 619 OFFCURVE",
"89 607 CURVE SMOOTH",
"89 601 OFFCURVE",
"91 597 OFFCURVE",
"96 597 CURVE SMOOTH",
"102 597 OFFCURVE",
"130 603 OFFCURVE",
"148 603 CURVE SMOOTH",
"156 603 LINE",
"135 521 OFFCURVE",
"113 385 OFFCURVE",
"103 262 CURVE",
"89 263 OFFCURVE",
"71 264 OFFCURVE",
"55 264 CURVE SMOOTH",
"22 264 OFFCURVE",
"12 258 OFFCURVE",
"12 247 CURVE SMOOTH",
"12 235 OFFCURVE",
"31 227 OFFCURVE",
"48 227 CURVE SMOOTH",
"64 227 OFFCURVE",
"82 227 OFFCURVE",
"101 228 CURVE",
"99 198 OFFCURVE",
"98 169 OFFCURVE",
"98 142 CURVE SMOOTH",
"98 102 OFFCURVE",
"100 67 OFFCURVE",
"106 40 CURVE",
"103 41 OFFCURVE",
"102 41 OFFCURVE",
"100 41 CURVE SMOOTH",
"94 41 OFFCURVE",
"93 37 OFFCURVE",
"93 33 CURVE SMOOTH",
"93 9 OFFCURVE",
"135 -9 OFFCURVE",
"204 -9 CURVE SMOOTH"
);
},
{
closed = 1;
nodes = (
"159 18 OFFCURVE",
"146 45 OFFCURVE",
"144 105 CURVE SMOOTH",
"143 125 OFFCURVE",
"142 146 OFFCURVE",
"142 167 CURVE SMOOTH",
"142 188 OFFCURVE",
"143 209 OFFCURVE",
"144 231 CURVE",
"206 237 OFFCURVE",
"263 245 OFFCURVE",
"263 256 CURVE SMOOTH",
"263 263 OFFCURVE",
"176 262 OFFCURVE",
"146 262 CURVE",
"154 378 OFFCURVE",
"176 496 OFFCURVE",
"208 605 CURVE",
"222 606 OFFCURVE",
"235 606 OFFCURVE",
"247 606 CURVE SMOOTH",
"456 606 OFFCURVE",
"688 537 OFFCURVE",
"688 377 CURVE SMOOTH",
"688 318 OFFCURVE",
"667 265 OFFCURVE",
"614 197 CURVE SMOOTH",
"543 105 OFFCURVE",
"356 18 OFFCURVE",
"234 18 CURVE SMOOTH"
);
}
);
width = 775;
}
);
note = Eth;
rightKerningGroup = Eth;
unicode = 00D0;
},
{
glyphname = E;
lastChange = "2021-04-08 07:25:46 +0000";
layers = (
{
anchors = (
{
name = bottom;
position = "{289, 0}";
},
{
name = ogonek;
position = "{393, 10}";
},
{
name = top;
position = "{368, 650}";
},
{
name = topleft;
position = "{20, 650}";
}
);
background = {
paths = (
{
closed = 1;
nodes = (
"445 649 OFFCURVE",
"389 648 OFFCURVE",
"348 648 CURVE SMOOTH",
"264 648 OFFCURVE",
"237 649 OFFCURVE",
"224 649 CURVE",
"229 661 OFFCURVE",
"239 672 OFFCURVE",
"239 682 CURVE SMOOTH",
"239 689 OFFCURVE",
"232 692 OFFCURVE",
"224 692 CURVE SMOOTH",
"196 692 OFFCURVE",
"174 685 OFFCURVE",
"167 648 CURVE",
"128 648 LINE SMOOTH",
"105 648 OFFCURVE",
"86 638 OFFCURVE",
"86 632 CURVE SMOOTH",
"86 628 OFFCURVE",
"92 625 OFFCURVE",
"108 624 CURVE SMOOTH",
"161 624 LINE",
"144 560 OFFCURVE",
"127 451 OFFCURVE",
"114 345 CURVE",
"100 344 OFFCURVE",
"88 330 OFFCURVE",
"88 321 CURVE SMOOTH",
"88 317 OFFCURVE",
"91 314 OFFCURVE",
"98 314 CURVE SMOOTH",
"111 314 LINE",
"100 214 OFFCURVE",
"89 110 OFFCURVE",
"89 59 CURVE SMOOTH",
"89 51 OFFCURVE",
"89 44 OFFCURVE",
"90 39 CURVE",
"75 36 OFFCURVE",
"55 15 OFFCURVE",
"55 5 CURVE SMOOTH",
"55 -4 OFFCURVE",
"302 -1 OFFCURVE",
"356 -1 CURVE SMOOTH",
"404 -1 OFFCURVE",
"451 0 OFFCURVE",
"495 0 CURVE SMOOTH",
"516 0 OFFCURVE",
"525 23 OFFCURVE",
"525 36 CURVE SMOOTH",
"525 42 OFFCURVE",
"524 46 OFFCURVE",
"521 46 CURVE SMOOTH",
"520 46 LINE",
"485 35 OFFCURVE",
"434 30 OFFCURVE",
"405 30 CURVE SMOOTH",
"271 30 OFFCURVE",
"193 31 OFFCURVE",
"145 31 CURVE",
"142 47 OFFCURVE",
"141 69 OFFCURVE",
"141 93 CURVE SMOOTH",
"141 166 OFFCURVE",
"151 262 OFFCURVE",
"156 314 CURVE",
"414 314 LINE",
"440 318 OFFCURVE",
"452 334 OFFCURVE",
"452 342 CURVE SMOOTH",
"452 346 OFFCURVE",
"450 348 OFFCURVE",
"446 348 CURVE SMOOTH",
"406 346 OFFCURVE",
"239 345 OFFCURVE",
"160 345 CURVE",
"169 417 OFFCURVE",
"193 548 OFFCURVE",
"214 619 CURVE",
"273 618 OFFCURVE",
"302 617 OFFCURVE",
"337 617 CURVE SMOOTH",
"351 617 OFFCURVE",
"366 618 OFFCURVE",
"384 618 CURVE SMOOTH",
"406 618 OFFCURVE",
"452 618 OFFCURVE",
"469 616 CURVE SMOOTH",
"488 614 OFFCURVE",
"493 590 OFFCURVE",
"503 590 CURVE SMOOTH",
"517 590 OFFCURVE",
"534 620 OFFCURVE",
"534 634 CURVE SMOOTH",
"534 642 OFFCURVE",
"530 649 OFFCURVE",
"519 649 CURVE SMOOTH"
);
}
);
};
hints = (
{
horizontal = 1;
place = "{-1, 31}";
type = Stem;
},
{
horizontal = 1;
place = "{314, 31}";
type = Stem;
},
{
horizontal = 1;
place = "{624, 24}";
type = Stem;
},
{
place = "{89, 52}";
type = Stem;
},
{
horizontal = 1;
place = "{624, 68}";
type = Stem;
},
{
horizontal = 1;
place = "{0, 21}";
target = up;
type = BottomGhost;
}
);
layerId = "3787E0F5-978F-4E40-B775-08CB0E3B1585";
paths = (
{
closed = 1;
nodes = (
"404 -1 OFFCURVE",
"451 0 OFFCURVE",
"495 0 CURVE SMOOTH",
"516 0 OFFCURVE",
"525 23 OFFCURVE",
"525 36 CURVE SMOOTH",
"525 42 OFFCURVE",
"524 46 OFFCURVE",
"521 46 CURVE SMOOTH",
"520 46 LINE",
"485 35 OFFCURVE",
"434 30 OFFCURVE",
"405 30 CURVE SMOOTH",
"271 30 OFFCURVE",
"193 31 OFFCURVE",
"145 31 CURVE",
"142 47 OFFCURVE",
"141 69 OFFCURVE",
"141 93 CURVE SMOOTH",
"141 166 OFFCURVE",
"151 262 OFFCURVE",
"156 314 CURVE",
"414 314 LINE",
"440 318 OFFCURVE",
"452 334 OFFCURVE",
"452 342 CURVE SMOOTH",
"452 346 OFFCURVE",
"450 348 OFFCURVE",
"446 348 CURVE SMOOTH",
"406 346 OFFCURVE",
"239 345 OFFCURVE",
"160 345 CURVE",
"169 417 OFFCURVE",
"193 548 OFFCURVE",
"214 619 CURVE",
"273 618 OFFCURVE",
"302 617 OFFCURVE",
"337 617 CURVE SMOOTH",
"351 617 OFFCURVE",
"366 618 OFFCURVE",
"384 618 CURVE SMOOTH",
"406 618 OFFCURVE",
"452 618 OFFCURVE",
"469 616 CURVE SMOOTH",
"488 614 OFFCURVE",
"493 590 OFFCURVE",
"503 590 CURVE SMOOTH",
"517 590 OFFCURVE",
"534 620 OFFCURVE",
"534 634 CURVE SMOOTH",
"534 642 OFFCURVE",
"530 649 OFFCURVE",
"519 649 CURVE SMOOTH",
"445 649 OFFCURVE",
"389 648 OFFCURVE",
"348 648 CURVE SMOOTH",
"264 648 OFFCURVE",
"237 649 OFFCURVE",
"224 649 CURVE",
"229 661 OFFCURVE",
"239 672 OFFCURVE",
"239 682 CURVE SMOOTH",
"239 689 OFFCURVE",
"232 692 OFFCURVE",
"224 692 CURVE SMOOTH",
"196 692 OFFCURVE",
"174 685 OFFCURVE",
"167 648 CURVE",
"128 648 LINE SMOOTH",
"105 648 OFFCURVE",
"86 638 OFFCURVE",
"86 632 CURVE SMOOTH",
"86 628 OFFCURVE",
"92 624 OFFCURVE",
"108 624 CURVE SMOOTH",
"161 624 LINE",
"144 560 OFFCURVE",
"127 451 OFFCURVE",
"114 345 CURVE",
"100 344 OFFCURVE",
"88 330 OFFCURVE",
"88 321 CURVE SMOOTH",
"88 317 OFFCURVE",
"91 314 OFFCURVE",
"98 314 CURVE SMOOTH",
"111 314 LINE",
"100 214 OFFCURVE",
"89 110 OFFCURVE",
"89 59 CURVE SMOOTH",
"89 51 OFFCURVE",
"89 44 OFFCURVE",
"90 39 CURVE",
"75 36 OFFCURVE",
"55 15 OFFCURVE",
"55 5 CURVE SMOOTH",
"55 0 OFFCURVE",
"144 -1 OFFCURVE",
"227 -1 CURVE SMOOTH",
"282 -1 OFFCURVE",
"334 -1 OFFCURVE",
"356 -1 CURVE SMOOTH"
);
}
);
width = 577;
}
);
note = E;
unicode = 0045;
},
{
glyphname = Eacute;
lastChange = "2021-04-22 11:18:27 +0000";
layers = (
{
background = {
paths = (
{
closed = 1;
nodes = (
"441 635 OFFCURVE",
"385 634 OFFCURVE",
"344 634 CURVE SMOOTH",
"260 634 OFFCURVE",
"233 635 OFFCURVE",
"220 635 CURVE",
"225 648 OFFCURVE",
"239 673 OFFCURVE",
"239 682 CURVE SMOOTH",
"239 689 OFFCURVE",
"232 692 OFFCURVE",
"224 692 CURVE SMOOTH",
"189 692 OFFCURVE",
"171 680 OFFCURVE",
"163 634 CURVE",
"124 634 LINE SMOOTH",
"101 634 OFFCURVE",
"82 624 OFFCURVE",
"82 618 CURVE SMOOTH",
"82 614 OFFCURVE",
"88 611 OFFCURVE",
"104 610 CURVE SMOOTH",
"157 610 LINE",
"140 546 OFFCURVE",
"123 437 OFFCURVE",
"110 331 CURVE",
"96 330 OFFCURVE",
"84 316 OFFCURVE",
"84 307 CURVE SMOOTH",
"84 303 OFFCURVE",
"87 300 OFFCURVE",
"94 300 CURVE SMOOTH",
"107 300 LINE",
"96 205 OFFCURVE",
"89 116 OFFCURVE",
"89 65 CURVE SMOOTH",
"89 55 OFFCURVE",
"89 46 OFFCURVE",
"90 39 CURVE",
"75 36 OFFCURVE",
"55 15 OFFCURVE",
"55 5 CURVE SMOOTH",
"55 -4 OFFCURVE",
"302 -1 OFFCURVE",
"356 -1 CURVE SMOOTH",
"404 -1 OFFCURVE",
"451 0 OFFCURVE",
"495 0 CURVE SMOOTH",
"516 0 OFFCURVE",
"525 23 OFFCURVE",
"525 36 CURVE SMOOTH",
"525 42 OFFCURVE",
"524 46 OFFCURVE",
"521 46 CURVE SMOOTH",
"520 46 LINE",
"485 35 OFFCURVE",
"434 30 OFFCURVE",
"405 30 CURVE SMOOTH",
"271 30 OFFCURVE",
"193 31 OFFCURVE",
"145 31 CURVE",
"142 50 OFFCURVE",
"140 77 OFFCURVE",
"140 106 CURVE SMOOTH",
"140 172 OFFCURVE",
"147 252 OFFCURVE",
"152 300 CURVE",
"410 300 LINE",
"436 304 OFFCURVE",
"448 320 OFFCURVE",
"448 328 CURVE SMOOTH",
"448 332 OFFCURVE",
"446 334 OFFCURVE",
"442 334 CURVE SMOOTH",
"402 332 OFFCURVE",
"235 331 OFFCURVE",
"156 331 CURVE",
"165 403 OFFCURVE",
"189 534 OFFCURVE",
"210 605 CURVE",
"269 604 OFFCURVE",
"298 603 OFFCURVE",
"333 603 CURVE SMOOTH",
"347 603 OFFCURVE",
"362 604 OFFCURVE",
"380 604 CURVE SMOOTH",
"402 604 OFFCURVE",
"448 604 OFFCURVE",
"465 602 CURVE SMOOTH",
"484 600 OFFCURVE",
"489 576 OFFCURVE",
"499 576 CURVE SMOOTH",
"513 576 OFFCURVE",
"530 606 OFFCURVE",
"530 620 CURVE SMOOTH",
"530 628 OFFCURVE",
"526 635 OFFCURVE",
"515 635 CURVE SMOOTH"
);
},
{
closed = 1;
nodes = (
"451 804 OFFCURVE",
"454 810 OFFCURVE",
"454 816 CURVE SMOOTH",
"454 828 OFFCURVE",
"445 843 OFFCURVE",
"433 843 CURVE SMOOTH",
"430 843 OFFCURVE",
"426 842 OFFCURVE",
"423 840 CURVE SMOOTH",
"352 793 OFFCURVE",
"276 734 OFFCURVE",
"276 722 CURVE SMOOTH",
"276 720 OFFCURVE",
"278 719 OFFCURVE",
"280 719 CURVE SMOOTH",
"281 719 OFFCURVE",
"283 719 OFFCURVE",
"285 720 CURVE SMOOTH",
"331 743 OFFCURVE",
"415 784 OFFCURVE",
"446 801 CURVE SMOOTH"
);
}
);
};
components = (
{
name = E;
},
{
name = acutecomb.case;
transform = "{1, 0, 0, 1, 259, 278}";
}
);
hints = (
{
horizontal = 1;
place = "{-1, 31}";
type = Stem;
},
{
horizontal = 1;
place = "{300, 31}";
type = Stem;
},
{
horizontal = 1;
place = "{610, 24}";
type = Stem;
},
{
horizontal = 1;
place = "{843, -20}";
target = down;
type = TopGhost;
},
{
place = "{89, 51}";
type = Stem;
},
{
horizontal = 1;
place = "{610, 82}";
type = Stem;
},
{
horizontal = 1;
place = "{0, 21}";
target = up;
type = BottomGhost;
}
);
layerId = "3787E0F5-978F-4E40-B775-08CB0E3B1585";
width = 577;
}
);
note = Eacute;
unicode = 00C9;
},
{
color = 9;
glyphname = Ecircumflex;
lastChange = "2021-04-22 11:18:27 +0000";
layers = (
{
background = {
paths = (
{
closed = 1;
nodes = (
"441 635 OFFCURVE",
"385 634 OFFCURVE",
"344 634 CURVE SMOOTH",
"260 634 OFFCURVE",
"233 635 OFFCURVE",
"220 635 CURVE",
"225 648 OFFCURVE",
"239 673 OFFCURVE",
"239 682 CURVE SMOOTH",
"239 689 OFFCURVE",
"232 692 OFFCURVE",
"224 692 CURVE SMOOTH",
"189 692 OFFCURVE",
"171 680 OFFCURVE",
"163 634 CURVE",
"124 634 LINE SMOOTH",
"101 634 OFFCURVE",
"82 624 OFFCURVE",
"82 618 CURVE SMOOTH",
"82 614 OFFCURVE",
"88 611 OFFCURVE",
"104 610 CURVE SMOOTH",
"157 610 LINE",
"140 546 OFFCURVE",
"123 437 OFFCURVE",
"110 331 CURVE",
"96 330 OFFCURVE",
"84 316 OFFCURVE",
"84 307 CURVE SMOOTH",
"84 303 OFFCURVE",
"87 300 OFFCURVE",
"94 300 CURVE SMOOTH",
"107 300 LINE",
"96 205 OFFCURVE",
"89 116 OFFCURVE",
"89 65 CURVE SMOOTH",
"89 55 OFFCURVE",
"89 46 OFFCURVE",
"90 39 CURVE",
"75 36 OFFCURVE",
"55 15 OFFCURVE",
"55 5 CURVE SMOOTH",
"55 -4 OFFCURVE",
"302 -1 OFFCURVE",
"356 -1 CURVE SMOOTH",
"404 -1 OFFCURVE",
"451 0 OFFCURVE",
"495 0 CURVE SMOOTH",
"516 0 OFFCURVE",
"525 23 OFFCURVE",
"525 36 CURVE SMOOTH",
"525 42 OFFCURVE",
"524 46 OFFCURVE",
"521 46 CURVE SMOOTH",
"520 46 LINE",
"485 35 OFFCURVE",
"434 30 OFFCURVE",
"405 30 CURVE SMOOTH",
"271 30 OFFCURVE",
"193 31 OFFCURVE",
"145 31 CURVE",
"142 50 OFFCURVE",
"140 77 OFFCURVE",
"140 106 CURVE SMOOTH",
"140 172 OFFCURVE",
"147 252 OFFCURVE",
"152 300 CURVE",
"410 300 LINE",
"436 304 OFFCURVE",
"448 320 OFFCURVE",
"448 328 CURVE SMOOTH",
"448 332 OFFCURVE",
"446 334 OFFCURVE",
"442 334 CURVE SMOOTH",
"402 332 OFFCURVE",
"235 331 OFFCURVE",
"156 331 CURVE",
"165 403 OFFCURVE",
"189 534 OFFCURVE",
"210 605 CURVE",
"269 604 OFFCURVE",
"298 603 OFFCURVE",
"333 603 CURVE SMOOTH",
"347 603 OFFCURVE",
"362 604 OFFCURVE",
"380 604 CURVE SMOOTH",
"402 604 OFFCURVE",
"448 604 OFFCURVE",
"465 602 CURVE SMOOTH",
"484 600 OFFCURVE",
"489 576 OFFCURVE",
"499 576 CURVE SMOOTH",
"513 576 OFFCURVE",
"530 606 OFFCURVE",
"530 620 CURVE SMOOTH",
"530 628 OFFCURVE",
"526 635 OFFCURVE",
"515 635 CURVE SMOOTH"
);
},
{
closed = 1;
nodes = (
"435 699 OFFCURVE",
"436 698 OFFCURVE",
"437 698 CURVE SMOOTH",
"440 698 OFFCURVE",
"442 702 OFFCURVE",
"442 706 CURVE SMOOTH",
"442 708 OFFCURVE",
"442 711 OFFCURVE",
"441 713 CURVE SMOOTH",
"433 728 OFFCURVE",
"377 820 OFFCURVE",
"369 823 CURVE",
"355 820 OFFCURVE",
"253 721 OFFCURVE",
"244 710 CURVE SMOOTH",
"241 706 OFFCURVE",
"240 703 OFFCURVE",
"240 701 CURVE SMOOTH",
"240 699 OFFCURVE",
"241 698 OFFCURVE",
"242 698 CURVE SMOOTH",
"246 698 OFFCURVE",
"334 766 OFFCURVE",
"356 786 CURVE",
"370 765 OFFCURVE",
"419 713 OFFCURVE",
"434 700 CURVE SMOOTH"
);
}
);
};
components = (
{
name = E;
},
{
name = circumflexcomb.case;
transform = "{1, 0, 0, 1, 232, 278}";
}
);
hints = (
{
horizontal = 1;
place = "{-1, 31}";
type = Stem;
},
{
horizontal = 1;
place = "{300, 31}";
type = Stem;
},
{
horizontal = 1;
place = "{610, 24}";
type = Stem;
},
{
horizontal = 1;
place = "{698, -20}";
target = down;
type = TopGhost;
},
{
horizontal = 1;
place = "{823, -20}";
target = down;
type = TopGhost;
},
{
place = "{89, 51}";
type = Stem;
},
{
horizontal = 1;
place = "{610, 82}";
type = Stem;
},
{
horizontal = 1;
place = "{0, 21}";
target = up;
type = BottomGhost;
}
);
layerId = "3787E0F5-978F-4E40-B775-08CB0E3B1585";
width = 577;
}
);
note = Ecircumflex;
unicode = 00CA;
},
{
color = 9;
glyphname = Edieresis;
lastChange = "2021-04-22 11:07:19 +0000";
layers = (
{
background = {
paths = (
{
closed = 1;
nodes = (
"441 635 OFFCURVE",
"385 634 OFFCURVE",
"344 634 CURVE SMOOTH",
"260 634 OFFCURVE",
"233 635 OFFCURVE",
"220 635 CURVE",
"225 648 OFFCURVE",
"239 673 OFFCURVE",
"239 682 CURVE SMOOTH",
"239 689 OFFCURVE",
"232 692 OFFCURVE",
"224 692 CURVE SMOOTH",
"189 692 OFFCURVE",
"171 680 OFFCURVE",
"163 634 CURVE",
"124 634 LINE SMOOTH",
"101 634 OFFCURVE",
"82 624 OFFCURVE",
"82 618 CURVE SMOOTH",
"82 614 OFFCURVE",
"88 611 OFFCURVE",
"104 610 CURVE SMOOTH",
"157 610 LINE",
"140 546 OFFCURVE",
"123 437 OFFCURVE",
"110 331 CURVE",
"96 330 OFFCURVE",
"84 316 OFFCURVE",
"84 307 CURVE SMOOTH",
"84 303 OFFCURVE",
"87 300 OFFCURVE",
"94 300 CURVE SMOOTH",
"107 300 LINE",
"96 205 OFFCURVE",
"89 116 OFFCURVE",
"89 65 CURVE SMOOTH",
"89 55 OFFCURVE",
"89 46 OFFCURVE",
"90 39 CURVE",
"75 36 OFFCURVE",
"55 15 OFFCURVE",
"55 5 CURVE SMOOTH",
"55 -4 OFFCURVE",
"302 -1 OFFCURVE",
"356 -1 CURVE SMOOTH",
"404 -1 OFFCURVE",
"451 0 OFFCURVE",
"495 0 CURVE SMOOTH",
"516 0 OFFCURVE",
"525 23 OFFCURVE",
"525 36 CURVE SMOOTH",
"525 42 OFFCURVE",
"524 46 OFFCURVE",
"521 46 CURVE SMOOTH",
"520 46 LINE",
"485 35 OFFCURVE",
"434 30 OFFCURVE",
"405 30 CURVE SMOOTH",
"271 30 OFFCURVE",
"193 31 OFFCURVE",
"145 31 CURVE",
"142 50 OFFCURVE",
"140 77 OFFCURVE",
"140 106 CURVE SMOOTH",
"140 172 OFFCURVE",
"147 252 OFFCURVE",
"152 300 CURVE",
"410 300 LINE",
"436 304 OFFCURVE",
"448 320 OFFCURVE",
"448 328 CURVE SMOOTH",
"448 332 OFFCURVE",
"446 334 OFFCURVE",
"442 334 CURVE SMOOTH",
"402 332 OFFCURVE",
"235 331 OFFCURVE",
"156 331 CURVE",
"165 403 OFFCURVE",
"189 534 OFFCURVE",
"210 605 CURVE",
"269 604 OFFCURVE",
"298 603 OFFCURVE",
"333 603 CURVE SMOOTH",
"347 603 OFFCURVE",
"362 604 OFFCURVE",
"380 604 CURVE SMOOTH",
"402 604 OFFCURVE",
"448 604 OFFCURVE",
"465 602 CURVE SMOOTH",
"484 600 OFFCURVE",
"489 576 OFFCURVE",
"499 576 CURVE SMOOTH",
"513 576 OFFCURVE",
"530 606 OFFCURVE",
"530 620 CURVE SMOOTH",
"530 628 OFFCURVE",
"526 635 OFFCURVE",
"515 635 CURVE SMOOTH"
);
},
{
closed = 1;
nodes = (
"461 832 OFFCURVE",
"459 833 OFFCURVE",
"456 833 CURVE SMOOTH",
"434 833 OFFCURVE",
"405 805 OFFCURVE",
"405 781 CURVE SMOOTH",
"405 768 OFFCURVE",
"407 754 OFFCURVE",
"423 754 CURVE",
"434 757 OFFCURVE",
"450 761 OFFCURVE",
"450 775 CURVE SMOOTH",
"450 781 OFFCURVE",
"462 812 OFFCURVE",
"462 830 CURVE"
);
},
{
closed = 1;
nodes = (
"333 832 OFFCURVE",
"331 833 OFFCURVE",
"329 833 CURVE SMOOTH",
"306 833 OFFCURVE",
"278 805 OFFCURVE",
"278 781 CURVE SMOOTH",
"278 768 OFFCURVE",
"281 754 OFFCURVE",
"295 754 CURVE",
"306 757 OFFCURVE",
"322 761 OFFCURVE",
"322 775 CURVE SMOOTH",
"322 781 OFFCURVE",
"334 812 OFFCURVE",
"334 830 CURVE"
);
}
);
};
components = (
{
name = E;
},
{
name = dieresiscomb.case;
transform = "{1, 0, 0, 1, 171, 275}";
}
);
hints = (
{
place = "{289, 53}";
type = Stem;
},
{
place = "{441, 53}";
type = Stem;
}
);
layerId = "3787E0F5-978F-4E40-B775-08CB0E3B1585";
width = 577;
}
);
note = Edieresis;
unicode = 00CB;
},
{
glyphname = Egrave;
lastChange = "2021-04-22 11:18:27 +0000";
layers = (
{
background = {
paths = (
{
closed = 1;
nodes = (
"441 635 OFFCURVE",
"385 634 OFFCURVE",
"344 634 CURVE SMOOTH",
"260 634 OFFCURVE",
"233 635 OFFCURVE",
"220 635 CURVE",
"225 648 OFFCURVE",
"239 673 OFFCURVE",
"239 682 CURVE SMOOTH",
"239 689 OFFCURVE",
"232 692 OFFCURVE",
"224 692 CURVE SMOOTH",
"189 692 OFFCURVE",
"171 680 OFFCURVE",
"163 634 CURVE",
"124 634 LINE SMOOTH",
"101 634 OFFCURVE",
"82 624 OFFCURVE",
"82 618 CURVE SMOOTH",
"82 614 OFFCURVE",
"88 611 OFFCURVE",
"104 610 CURVE SMOOTH",
"157 610 LINE",
"140 546 OFFCURVE",
"123 437 OFFCURVE",
"110 331 CURVE",
"96 330 OFFCURVE",
"84 316 OFFCURVE",
"84 307 CURVE SMOOTH",
"84 303 OFFCURVE",
"87 300 OFFCURVE",
"94 300 CURVE SMOOTH",
"107 300 LINE",
"96 205 OFFCURVE",
"89 116 OFFCURVE",
"89 65 CURVE SMOOTH",
"89 55 OFFCURVE",
"89 46 OFFCURVE",
"90 39 CURVE",
"75 36 OFFCURVE",
"55 15 OFFCURVE",
"55 5 CURVE SMOOTH",
"55 -4 OFFCURVE",
"302 -1 OFFCURVE",
"356 -1 CURVE SMOOTH",
"404 -1 OFFCURVE",
"451 0 OFFCURVE",
"495 0 CURVE SMOOTH",
"516 0 OFFCURVE",
"525 23 OFFCURVE",
"525 36 CURVE SMOOTH",
"525 42 OFFCURVE",
"524 46 OFFCURVE",
"521 46 CURVE SMOOTH",
"520 46 LINE",
"485 35 OFFCURVE",
"434 30 OFFCURVE",
"405 30 CURVE SMOOTH",
"271 30 OFFCURVE",
"193 31 OFFCURVE",
"145 31 CURVE",
"142 50 OFFCURVE",
"140 77 OFFCURVE",
"140 106 CURVE SMOOTH",
"140 172 OFFCURVE",
"147 252 OFFCURVE",
"152 300 CURVE",
"410 300 LINE",
"436 304 OFFCURVE",
"448 320 OFFCURVE",
"448 328 CURVE SMOOTH",
"448 332 OFFCURVE",
"446 334 OFFCURVE",
"442 334 CURVE SMOOTH",
"402 332 OFFCURVE",
"235 331 OFFCURVE",
"156 331 CURVE",
"165 403 OFFCURVE",
"189 534 OFFCURVE",
"210 605 CURVE",
"269 604 OFFCURVE",
"298 603 OFFCURVE",
"333 603 CURVE SMOOTH",
"347 603 OFFCURVE",
"362 604 OFFCURVE",
"380 604 CURVE SMOOTH",
"402 604 OFFCURVE",
"448 604 OFFCURVE",
"465 602 CURVE SMOOTH",
"484 600 OFFCURVE",
"489 576 OFFCURVE",
"499 576 CURVE SMOOTH",
"513 576 OFFCURVE",
"530 606 OFFCURVE",
"530 620 CURVE SMOOTH",
"530 628 OFFCURVE",
"526 635 OFFCURVE",
"515 635 CURVE SMOOTH"
);
},
{
closed = 1;
nodes = (
"290 791 OFFCURVE",
"374 750 OFFCURVE",
"420 727 CURVE SMOOTH",
"422 726 OFFCURVE",
"423 726 OFFCURVE",
"425 726 CURVE SMOOTH",
"427 726 OFFCURVE",
"428 727 OFFCURVE",
"428 729 CURVE SMOOTH",
"428 741 OFFCURVE",
"353 800 OFFCURVE",
"282 847 CURVE SMOOTH",
"278 849 OFFCURVE",
"275 850 OFFCURVE",
"272 850 CURVE SMOOTH",
"260 850 OFFCURVE",
"251 835 OFFCURVE",
"251 823 CURVE SMOOTH",
"251 817 OFFCURVE",
"253 811 OFFCURVE",
"259 808 CURVE SMOOTH"
);
}
);
};
components = (
{
name = E;
},
{
name = gravecomb.case;
transform = "{1, 0, 0, 1, 253, 278}";
}
);
hints = (
{
horizontal = 1;
place = "{-1, 31}";
type = Stem;
},
{
horizontal = 1;
place = "{300, 31}";
type = Stem;
},
{
horizontal = 1;
place = "{610, 24}";
type = Stem;
},
{
horizontal = 1;
place = "{850, -20}";
target = down;
type = TopGhost;
},
{
place = "{89, 51}";
type = Stem;
},
{
horizontal = 1;
place = "{610, 82}";
type = Stem;
},
{
horizontal = 1;
place = "{0, 21}";
target = up;
type = BottomGhost;
}
);
layerId = "3787E0F5-978F-4E40-B775-08CB0E3B1585";
width = 577;
}
);
note = Egrave;
unicode = 00C8;
},
{
glyphname = F;
lastChange = "2021-04-08 07:25:40 +0000";
layers = (
{
background = {
paths = (
{
closed = 1;
nodes = (
"406 347 OFFCURVE",
"236 346 OFFCURVE",
"158 346 CURVE",
"172 443 OFFCURVE",
"191 545 OFFCURVE",
"215 620 CURVE",
"274 619 OFFCURVE",
"303 618 OFFCURVE",
"338 618 CURVE SMOOTH",
"352 618 OFFCURVE",
"367 619 OFFCURVE",
"385 619 CURVE SMOOTH",
"407 619 OFFCURVE",
"453 619 OFFCURVE",
"470 617 CURVE SMOOTH",
"489 615 OFFCURVE",
"494 591 OFFCURVE",
"504 591 CURVE SMOOTH",
"518 591 OFFCURVE",
"535 621 OFFCURVE",
"535 635 CURVE SMOOTH",
"535 643 OFFCURVE",
"531 650 OFFCURVE",
"520 650 CURVE SMOOTH",
"446 650 OFFCURVE",
"390 649 OFFCURVE",
"349 649 CURVE SMOOTH",
"265 649 OFFCURVE",
"238 650 OFFCURVE",
"225 650 CURVE",
"230 662 OFFCURVE",
"239 672 OFFCURVE",
"239 682 CURVE SMOOTH",
"239 689 OFFCURVE",
"232 692 OFFCURVE",
"224 692 CURVE SMOOTH",
"197 692 OFFCURVE",
"175 686 OFFCURVE",
"168 649 CURVE",
"129 649 LINE SMOOTH",
"106 649 OFFCURVE",
"87 639 OFFCURVE",
"87 633 CURVE SMOOTH",
"87 629 OFFCURVE",
"93 626 OFFCURVE",
"109 625 CURVE SMOOTH",
"162 625 LINE",
"140 532 OFFCURVE",
"126 439 OFFCURVE",
"115 346 CURVE",
"101 345 OFFCURVE",
"89 331 OFFCURVE",
"89 322 CURVE SMOOTH",
"89 318 OFFCURVE",
"92 315 OFFCURVE",
"99 315 CURVE SMOOTH",
"111 315 LINE",
"101 219 OFFCURVE",
"88 108 OFFCURVE",
"80 14 CURVE",
"80 0 OFFCURVE",
"90 -8 OFFCURVE",
"104 -8 CURVE SMOOTH",
"127 -8 OFFCURVE",
"137 10 OFFCURVE",
"137 43 CURVE SMOOTH",
"137 54 OFFCURVE",
"135 63 OFFCURVE",
"129 64 CURVE",
"129 101 OFFCURVE",
"141 210 OFFCURVE",
"154 315 CURVE",
"415 315 LINE",
"441 319 OFFCURVE",
"453 335 OFFCURVE",
"453 343 CURVE SMOOTH",
"453 347 OFFCURVE",
"451 349 OFFCURVE",
"447 349 CURVE SMOOTH"
);
}
);
};
hints = (
{
horizontal = 1;
place = "{-8, 21}";
target = up;
type = BottomGhost;
},
{
horizontal = 1;
place = "{315, 31}";
type = Stem;
},
{
horizontal = 1;
place = "{618, 32}";
type = Stem;
},
{
place = "{87, 50}";
type = Stem;
},
{
horizontal = 1;
place = "{618, 74}";
type = Stem;
}
);
layerId = "3787E0F5-978F-4E40-B775-08CB0E3B1585";
paths = (
{
closed = 1;
nodes = (
"127 -8 OFFCURVE",
"137 10 OFFCURVE",
"137 43 CURVE SMOOTH",
"137 54 OFFCURVE",
"135 63 OFFCURVE",
"129 64 CURVE",
"129 101 OFFCURVE",
"141 210 OFFCURVE",
"154 315 CURVE",
"415 315 LINE",
"441 319 OFFCURVE",
"453 335 OFFCURVE",
"453 343 CURVE SMOOTH",
"453 347 OFFCURVE",
"451 349 OFFCURVE",
"447 349 CURVE SMOOTH",
"406 347 OFFCURVE",
"236 346 OFFCURVE",
"158 346 CURVE",
"172 443 OFFCURVE",
"191 545 OFFCURVE",
"215 620 CURVE",
"274 619 OFFCURVE",
"303 618 OFFCURVE",
"338 618 CURVE SMOOTH",
"352 618 OFFCURVE",
"367 619 OFFCURVE",
"385 619 CURVE SMOOTH",
"407 619 OFFCURVE",
"453 619 OFFCURVE",
"470 617 CURVE SMOOTH",
"489 615 OFFCURVE",
"494 591 OFFCURVE",
"504 591 CURVE SMOOTH",
"518 591 OFFCURVE",
"535 621 OFFCURVE",
"535 635 CURVE SMOOTH",
"535 643 OFFCURVE",
"531 650 OFFCURVE",
"520 650 CURVE SMOOTH",
"446 650 OFFCURVE",
"390 649 OFFCURVE",
"349 649 CURVE SMOOTH",
"265 649 OFFCURVE",
"238 650 OFFCURVE",
"225 650 CURVE",
"230 662 OFFCURVE",
"239 672 OFFCURVE",
"239 682 CURVE SMOOTH",
"239 689 OFFCURVE",
"232 692 OFFCURVE",
"224 692 CURVE SMOOTH",
"197 692 OFFCURVE",
"175 686 OFFCURVE",
"168 649 CURVE",
"129 649 LINE SMOOTH",
"106 649 OFFCURVE",
"87 639 OFFCURVE",
"87 633 CURVE SMOOTH",
"87 629 OFFCURVE",
"93 626 OFFCURVE",
"109 625 CURVE SMOOTH",
"162 625 LINE",
"140 532 OFFCURVE",
"126 439 OFFCURVE",
"115 346 CURVE",
"101 345 OFFCURVE",
"89 331 OFFCURVE",
"89 322 CURVE SMOOTH",
"89 318 OFFCURVE",
"92 315 OFFCURVE",
"99 315 CURVE SMOOTH",
"111 315 LINE",
"101 219 OFFCURVE",
"88 108 OFFCURVE",
"80 14 CURVE",
"80 0 OFFCURVE",
"90 -8 OFFCURVE",
"104 -8 CURVE SMOOTH"
);
}
);
width = 540;
}
);
note = F;
unicode = 0046;
},
{
glyphname = G;
lastChange = "2021-04-08 07:25:40 +0000";
layers = (
{
anchors = (
{
name = bottom;
position = "{390, 0}";
},
{
name = top;
position = "{390, 650}";
}
);
background = {
paths = (
{
closed = 1;
nodes = (
"687 280 OFFCURVE",
"454 279 OFFCURVE",
"432 279 CURVE SMOOTH",
"418 279 OFFCURVE",
"405 264 OFFCURVE",
"405 255 CURVE SMOOTH",
"405 251 OFFCURVE",
"408 248 OFFCURVE",
"415 248 CURVE SMOOTH",
"646 248 LINE",
"642 222 OFFCURVE",
"638 194 OFFCURVE",
"632 166 CURVE",
"603 108 OFFCURVE",
"511 7 OFFCURVE",
"339 7 CURVE SMOOTH",
"182 7 OFFCURVE",
"108 133 OFFCURVE",
"108 271 CURVE SMOOTH",
"108 457 OFFCURVE",
"242 633 OFFCURVE",
"479 633 CURVE SMOOTH",
"557 633 OFFCURVE",
"627 606 OFFCURVE",
"627 547 CURVE SMOOTH",
"627 526 OFFCURVE",
"607 499 OFFCURVE",
"607 485 CURVE SMOOTH",
"607 478 OFFCURVE",
"612 474 OFFCURVE",
"626 474 CURVE SMOOTH",
"650 474 OFFCURVE",
"670 495 OFFCURVE",
"670 536 CURVE SMOOTH",
"670 641 OFFCURVE",
"563 658 OFFCURVE",
"477 658 CURVE SMOOTH",
"205 658 OFFCURVE",
"59 477 OFFCURVE",
"59 273 CURVE SMOOTH",
"59 98 OFFCURVE",
"159 -16 OFFCURVE",
"348 -16 CURVE SMOOTH",
"442 -16 OFFCURVE",
"559 13 OFFCURVE",
"618 97 CURVE",
"612 64 OFFCURVE",
"606 30 OFFCURVE",
"606 4 CURVE SMOOTH",
"606 -12 OFFCURVE",
"615 -20 OFFCURVE",
"625 -20 CURVE SMOOTH",
"639 -20 OFFCURVE",
"657 -4 OFFCURVE",
"657 22 CURVE SMOOTH",
"657 34 OFFCURVE",
"654 46 OFFCURVE",
"654 61 CURVE SMOOTH",
"654 169 OFFCURVE",
"674 213 OFFCURVE",
"685 248 CURVE",
"705 248 LINE",
"731 252 OFFCURVE",
"743 268 OFFCURVE",
"743 276 CURVE SMOOTH",
"743 280 OFFCURVE",
"741 282 OFFCURVE",
"737 282 CURVE SMOOTH"
);
}
);
};
hints = (
{
horizontal = 1;
place = "{-16, 23}";
type = Stem;
},
{
horizontal = 1;
place = "{248, 34}";
type = Stem;
},
{
horizontal = 1;
place = "{633, 25}";
type = Stem;
},
{
place = "{59, 49}";
type = Stem;
},
{
place = "{627, 43}";
type = Stem;
},
{
horizontal = 1;
place = "{474, 184}";
type = Stem;
},
{
horizontal = 1;
place = "{-20, 21}";
target = up;
type = BottomGhost;
},
{
place = "{606, 48}";
type = Stem;
}
);
layerId = "3787E0F5-978F-4E40-B775-08CB0E3B1585";
paths = (
{
closed = 1;
nodes = (
"639 -20 OFFCURVE",
"657 -4 OFFCURVE",
"657 22 CURVE SMOOTH",
"657 34 OFFCURVE",
"654 46 OFFCURVE",
"654 61 CURVE SMOOTH",
"654 169 OFFCURVE",
"674 213 OFFCURVE",
"685 248 CURVE",
"705 248 LINE",
"731 252 OFFCURVE",
"743 268 OFFCURVE",
"743 276 CURVE SMOOTH",
"743 280 OFFCURVE",
"741 282 OFFCURVE",
"737 282 CURVE SMOOTH",
"687 280 OFFCURVE",
"454 279 OFFCURVE",
"432 279 CURVE SMOOTH",
"418 279 OFFCURVE",
"405 264 OFFCURVE",
"405 255 CURVE SMOOTH",
"405 251 OFFCURVE",
"408 248 OFFCURVE",
"415 248 CURVE SMOOTH",
"646 248 LINE",
"642 222 OFFCURVE",
"638 194 OFFCURVE",
"632 166 CURVE",
"603 108 OFFCURVE",
"511 7 OFFCURVE",
"339 7 CURVE SMOOTH",
"182 7 OFFCURVE",
"108 133 OFFCURVE",
"108 271 CURVE SMOOTH",
"108 457 OFFCURVE",
"242 633 OFFCURVE",
"479 633 CURVE SMOOTH",
"557 633 OFFCURVE",
"627 606 OFFCURVE",
"627 547 CURVE SMOOTH",
"627 526 OFFCURVE",
"607 499 OFFCURVE",
"607 485 CURVE SMOOTH",
"607 478 OFFCURVE",
"612 474 OFFCURVE",
"626 474 CURVE SMOOTH",
"650 474 OFFCURVE",
"670 495 OFFCURVE",
"670 536 CURVE SMOOTH",
"670 641 OFFCURVE",
"563 658 OFFCURVE",
"477 658 CURVE SMOOTH",
"205 658 OFFCURVE",
"59 477 OFFCURVE",
"59 273 CURVE SMOOTH",
"59 98 OFFCURVE",
"159 -16 OFFCURVE",
"348 -16 CURVE SMOOTH",
"442 -16 OFFCURVE",
"559 13 OFFCURVE",
"618 97 CURVE",
"612 64 OFFCURVE",
"606 30 OFFCURVE",
"606 4 CURVE SMOOTH",
"606 -12 OFFCURVE",
"615 -20 OFFCURVE",
"625 -20 CURVE SMOOTH"
);
}
);
width = 780;
}
);
note = G;
unicode = 0047;
},
{
glyphname = H;
lastChange = "2021-04-08 07:25:40 +0000";
layers = (
{
background = {
paths = (
{
closed = 1;
nodes = (
"564 334 OFFCURVE",
"555 333 OFFCURVE",
"546 333 CURVE",
"563 454 OFFCURVE",
"590 565 OFFCURVE",
"625 645 CURVE",
"625 647 LINE SMOOTH",
"625 654 OFFCURVE",
"618 657 OFFCURVE",
"610 657 CURVE SMOOTH",
"555 657 OFFCURVE",
"535 613 OFFCURVE",
"535 569 CURVE SMOOTH",
"535 539 LINE",
"523 471 OFFCURVE",
"514 403 OFFCURVE",
"506 333 CURVE",
"400 332 OFFCURVE",
"215 331 OFFCURVE",
"147 331 CURVE",
"167 449 OFFCURVE",
"194 561 OFFCURVE",
"231 645 CURVE",
"231 647 LINE SMOOTH",
"231 654 OFFCURVE",
"224 657 OFFCURVE",
"216 657 CURVE SMOOTH",
"155 657 OFFCURVE",
"151 588 OFFCURVE",
"143 549 CURVE SMOOTH",
"128 477 OFFCURVE",
"116 403 OFFCURVE",
"107 331 CURVE",
"95 329 OFFCURVE",
"84 316 OFFCURVE",
"84 307 CURVE SMOOTH",
"84 303 OFFCURVE",
"87 300 OFFCURVE",
"94 300 CURVE SMOOTH",
"104 300 LINE",
"92 200 OFFCURVE",
"80 100 OFFCURVE",
"80 12 CURVE SMOOTH",
"80 -1 OFFCURVE",
"90 -8 OFFCURVE",
"101 -8 CURVE SMOOTH",
"113 -8 OFFCURVE",
"128 1 OFFCURVE",
"128 20 CURVE SMOOTH",
"128 30 OFFCURVE",
"121 36 OFFCURVE",
"121 56 CURVE SMOOTH",
"121 107 OFFCURVE",
"128 200 OFFCURVE",
"143 300 CURVE",
"502 300 LINE",
"492 207 OFFCURVE",
"483 112 OFFCURVE",
"474 14 CURVE",
"474 0 OFFCURVE",
"484 -8 OFFCURVE",
"498 -8 CURVE SMOOTH",
"513 -8 OFFCURVE",
"529 2 OFFCURVE",
"529 21 CURVE SMOOTH",
"529 29 OFFCURVE",
"524 29 OFFCURVE",
"522 47 CURVE",
"522 88 OFFCURVE",
"528 190 OFFCURVE",
"542 301 CURVE",
"565 306 OFFCURVE",
"575 320 OFFCURVE",
"575 328 CURVE SMOOTH",
"575 332 OFFCURVE",
"573 334 OFFCURVE",
"569 334 CURVE SMOOTH"
);
}
);
};
hints = (
{
horizontal = 1;
place = "{-8, 21}";
target = up;
type = BottomGhost;
},
{
horizontal = 1;
place = "{300, 33}";
type = Stem;
},
{
horizontal = 1;
place = "{657, -20}";
target = down;
type = TopGhost;
},
{
place = "{80, 41}";
type = Stem;
}
);
layerId = "3787E0F5-978F-4E40-B775-08CB0E3B1585";
paths = (
{
closed = 1;
nodes = (
"113 -8 OFFCURVE",
"128 1 OFFCURVE",
"128 20 CURVE SMOOTH",
"128 30 OFFCURVE",
"121 36 OFFCURVE",
"121 56 CURVE SMOOTH",
"121 107 OFFCURVE",
"128 200 OFFCURVE",
"143 300 CURVE",
"502 300 LINE",
"492 207 OFFCURVE",
"483 112 OFFCURVE",
"474 14 CURVE SMOOTH",
"474 0 OFFCURVE",
"484 -8 OFFCURVE",
"498 -8 CURVE SMOOTH",
"513 -8 OFFCURVE",
"529 2 OFFCURVE",
"529 21 CURVE SMOOTH",
"529 29 OFFCURVE",
"524 29 OFFCURVE",
"522 47 CURVE SMOOTH",
"522 88 OFFCURVE",
"528 190 OFFCURVE",
"542 301 CURVE",
"565 306 OFFCURVE",
"575 320 OFFCURVE",
"575 328 CURVE SMOOTH",
"575 332 OFFCURVE",
"573 334 OFFCURVE",
"569 334 CURVE SMOOTH",
"564 334 OFFCURVE",
"555 333 OFFCURVE",
"546 333 CURVE",
"563 454 OFFCURVE",
"590 565 OFFCURVE",
"625 645 CURVE",
"625 647 LINE SMOOTH",
"625 654 OFFCURVE",
"618 657 OFFCURVE",
"610 657 CURVE SMOOTH",
"555 657 OFFCURVE",
"535 613 OFFCURVE",
"535 569 CURVE SMOOTH",
"535 539 LINE",
"523 471 OFFCURVE",
"514 403 OFFCURVE",
"506 333 CURVE",
"400 332 OFFCURVE",
"215 331 OFFCURVE",
"147 331 CURVE",
"167 449 OFFCURVE",
"194 561 OFFCURVE",
"231 645 CURVE",
"231 647 LINE SMOOTH",
"231 654 OFFCURVE",
"224 657 OFFCURVE",
"216 657 CURVE SMOOTH",
"155 657 OFFCURVE",
"151 588 OFFCURVE",
"143 549 CURVE SMOOTH",
"128 477 OFFCURVE",
"116 403 OFFCURVE",
"107 331 CURVE",
"95 329 OFFCURVE",
"84 316 OFFCURVE",
"84 307 CURVE SMOOTH",
"84 303 OFFCURVE",
"87 300 OFFCURVE",
"94 300 CURVE SMOOTH",
"104 300 LINE",
"92 200 OFFCURVE",
"80 100 OFFCURVE",
"80 12 CURVE SMOOTH",
"80 -1 OFFCURVE",
"90 -8 OFFCURVE",
"101 -8 CURVE SMOOTH"
);
}
);
width = 689;
}
);
note = H;
unicode = 0048;
},
{
color = 9;
glyphname = I;
lastChange = "2021-04-08 07:25:40 +0000";
layers = (
{
anchors = (
{
name = bottom;
position = "{206, -8}";
},
{
name = ogonek;
position = "{311, 10}";
},
{
name = top;
position = "{309, 650}";
},
{
name = topleft;
position = "{20, 650}";
}
);
background = {
paths = (
{
closed = 1;
nodes = (
"320 618 LINE",
"429 618 LINE",
"455 622 OFFCURVE",
"467 638 OFFCURVE",
"467 646 CURVE SMOOTH",
"467 650 OFFCURVE",
"465 652 OFFCURVE",
"461 652 CURVE SMOOTH",
"440 651 OFFCURVE",
"388 650 OFFCURVE",
"332 650 CURVE",
"338 659 LINE",
"338 661 LINE SMOOTH",
"338 668 OFFCURVE",
"331 671 OFFCURVE",
"323 671 CURVE SMOOTH",
"288 671 OFFCURVE",
"271 663 OFFCURVE",
"265 649 CURVE",
"156 649 LINE SMOOTH",
"142 649 OFFCURVE",
"129 634 OFFCURVE",
"129 625 CURVE SMOOTH",
"129 621 OFFCURVE",
"132 618 OFFCURVE",
"139 618 CURVE SMOOTH",
"255 618 LINE",
"255 610 OFFCURVE",
"253 606 OFFCURVE",
"253 598 CURVE SMOOTH",
"253 568 LINE",
"220 397 OFFCURVE",
"201 211 OFFCURVE",
"184 31 CURVE",
"73 31 LINE SMOOTH",
"59 31 OFFCURVE",
"46 16 OFFCURVE",
"46 7 CURVE SMOOTH",
"46 3 OFFCURVE",
"49 0 OFFCURVE",
"56 0 CURVE SMOOTH",
"187 0 LINE",
"191 -5 OFFCURVE",
"198 -8 OFFCURVE",
"206 -8 CURVE SMOOTH",
"214 -8 OFFCURVE",
"222 -5 OFFCURVE",
"228 0 CURVE",
"346 0 LINE",
"372 4 OFFCURVE",
"384 20 OFFCURVE",
"384 28 CURVE SMOOTH",
"384 32 OFFCURVE",
"382 34 OFFCURVE",
"378 34 CURVE SMOOTH",
"355 33 OFFCURVE",
"295 32 OFFCURVE",
"234 31 CURVE",
"232 34 OFFCURVE",
"231 39 OFFCURVE",
"231 47 CURVE SMOOTH",
"231 125 OFFCURVE",
"263 455 OFFCURVE",
"320 616 CURVE"
);
}
);
};
hints = (
{
horizontal = 1;
place = "{0, 31}";
type = Stem;
},
{
horizontal = 1;
place = "{618, 32}";
type = Stem;
},
{
horizontal = 1;
place = "{618, 53}";
type = Stem;
},
{
horizontal = 1;
place = "{-8, 21}";
target = up;
type = BottomGhost;
}
);
layerId = "3787E0F5-978F-4E40-B775-08CB0E3B1585";
paths = (
{
closed = 1;
nodes = (
"214 -8 OFFCURVE",
"222 -5 OFFCURVE",
"228 0 CURVE",
"346 0 LINE",
"372 4 OFFCURVE",
"384 20 OFFCURVE",
"384 28 CURVE SMOOTH",
"384 32 OFFCURVE",
"382 34 OFFCURVE",
"378 34 CURVE SMOOTH",
"355 33 OFFCURVE",
"295 32 OFFCURVE",
"234 31 CURVE",
"232 34 OFFCURVE",
"231 39 OFFCURVE",
"231 47 CURVE SMOOTH",
"231 125 OFFCURVE",
"263 455 OFFCURVE",
"320 616 CURVE",
"320 618 LINE",
"429 618 LINE",
"455 622 OFFCURVE",
"467 638 OFFCURVE",
"467 646 CURVE SMOOTH",
"467 650 OFFCURVE",
"465 652 OFFCURVE",
"461 652 CURVE SMOOTH",
"440 651 OFFCURVE",
"388 650 OFFCURVE",
"332 650 CURVE",
"338 659 LINE",
"338 661 LINE SMOOTH",
"338 668 OFFCURVE",
"331 671 OFFCURVE",
"323 671 CURVE SMOOTH",
"288 671 OFFCURVE",
"271 663 OFFCURVE",
"265 649 CURVE",
"156 649 LINE SMOOTH",
"142 649 OFFCURVE",
"129 634 OFFCURVE",
"129 625 CURVE SMOOTH",
"129 621 OFFCURVE",
"132 618 OFFCURVE",
"139 618 CURVE SMOOTH",
"255 618 LINE",
"255 610 OFFCURVE",
"253 606 OFFCURVE",
"253 598 CURVE SMOOTH",
"253 568 LINE",
"220 397 OFFCURVE",
"201 211 OFFCURVE",
"184 31 CURVE",
"73 31 LINE SMOOTH",
"59 31 OFFCURVE",
"46 16 OFFCURVE",
"46 7 CURVE SMOOTH",
"46 3 OFFCURVE",
"49 0 OFFCURVE",
"56 0 CURVE SMOOTH",
"187 0 LINE",
"191 -5 OFFCURVE",
"198 -8 OFFCURVE",
"206 -8 CURVE SMOOTH"
);
}
);
width = 458;
}
);
note = I;
rightKerningGroup = I;
unicode = 0049;
},
{
color = 9;
glyphname = Iacute;
lastChange = "2021-04-22 11:18:27 +0000";
layers = (
{
background = {
paths = (
{
closed = 1;
nodes = (
"319 624 LINE",
"428 624 LINE",
"454 628 OFFCURVE",
"466 644 OFFCURVE",
"466 652 CURVE SMOOTH",
"466 656 OFFCURVE",
"464 658 OFFCURVE",
"460 658 CURVE SMOOTH",
"439 657 OFFCURVE",
"387 656 OFFCURVE",
"331 656 CURVE",
"342 680 LINE",
"342 682 LINE SMOOTH",
"342 689 OFFCURVE",
"335 692 OFFCURVE",
"327 692 CURVE SMOOTH",
"292 692 OFFCURVE",
"272 672 OFFCURVE",
"264 655 CURVE",
"155 655 LINE SMOOTH",
"141 655 OFFCURVE",
"128 640 OFFCURVE",
"128 631 CURVE SMOOTH",
"128 627 OFFCURVE",
"131 624 OFFCURVE",
"138 624 CURVE SMOOTH",
"254 624 LINE",
"254 616 OFFCURVE",
"252 612 OFFCURVE",
"252 604 CURVE SMOOTH",
"252 574 LINE",
"219 403 OFFCURVE",
"201 211 OFFCURVE",
"184 31 CURVE",
"73 31 LINE SMOOTH",
"59 31 OFFCURVE",
"46 16 OFFCURVE",
"46 7 CURVE SMOOTH",
"46 3 OFFCURVE",
"49 0 OFFCURVE",
"56 0 CURVE SMOOTH",
"187 0 LINE",
"191 -5 OFFCURVE",
"198 -8 OFFCURVE",
"206 -8 CURVE SMOOTH",
"214 -8 OFFCURVE",
"222 -5 OFFCURVE",
"228 0 CURVE",
"346 0 LINE",
"372 4 OFFCURVE",
"384 20 OFFCURVE",
"384 28 CURVE SMOOTH",
"384 32 OFFCURVE",
"382 34 OFFCURVE",
"378 34 CURVE SMOOTH",
"355 33 OFFCURVE",
"295 32 OFFCURVE",
"234 31 CURVE",
"232 34 OFFCURVE",
"231 39 OFFCURVE",
"231 47 CURVE SMOOTH",
"231 125 OFFCURVE",
"262 461 OFFCURVE",
"319 622 CURVE"
);
},
{
closed = 1;
nodes = (
"416 811 OFFCURVE",
"419 817 OFFCURVE",
"419 823 CURVE SMOOTH",
"419 835 OFFCURVE",
"410 850 OFFCURVE",
"398 850 CURVE SMOOTH",
"395 850 OFFCURVE",
"391 849 OFFCURVE",
"388 847 CURVE SMOOTH",
"317 800 OFFCURVE",
"241 741 OFFCURVE",
"241 729 CURVE SMOOTH",
"241 727 OFFCURVE",
"243 726 OFFCURVE",
"245 726 CURVE SMOOTH",
"246 726 OFFCURVE",
"248 726 OFFCURVE",
"250 727 CURVE SMOOTH",
"296 750 OFFCURVE",
"380 791 OFFCURVE",
"411 808 CURVE SMOOTH"
);
}
);
};
components = (
{
name = I;
},
{
name = acutecomb.case;
transform = "{1, 0, 0, 1, 200, 278}";
}
);
hints = (
{
horizontal = 1;
place = "{0, 31}";
type = Stem;
},
{
horizontal = 1;
place = "{624, 32}";
type = Stem;
},
{
horizontal = 1;
place = "{850, -20}";
target = down;
type = TopGhost;
},
{
horizontal = 1;
place = "{624, 68}";
type = Stem;
},
{
horizontal = 1;
place = "{-8, 21}";
target = up;
type = BottomGhost;
}
);
layerId = "3787E0F5-978F-4E40-B775-08CB0E3B1585";
width = 458;
}
);
note = Iacute;
unicode = 00CD;
},
{
color = 9;
glyphname = Icircumflex;
lastChange = "2021-04-22 11:18:27 +0000";
layers = (
{
background = {
paths = (
{
closed = 1;
nodes = (
"319 624 LINE",
"428 624 LINE",
"454 628 OFFCURVE",
"466 644 OFFCURVE",
"466 652 CURVE SMOOTH",
"466 656 OFFCURVE",
"464 658 OFFCURVE",
"460 658 CURVE SMOOTH",
"439 657 OFFCURVE",
"387 656 OFFCURVE",
"331 656 CURVE",
"342 680 LINE",
"342 682 LINE SMOOTH",
"342 689 OFFCURVE",
"335 692 OFFCURVE",
"327 692 CURVE SMOOTH",
"292 692 OFFCURVE",
"272 672 OFFCURVE",
"264 655 CURVE",
"155 655 LINE SMOOTH",
"141 655 OFFCURVE",
"128 640 OFFCURVE",
"128 631 CURVE SMOOTH",
"128 627 OFFCURVE",
"131 624 OFFCURVE",
"138 624 CURVE SMOOTH",
"254 624 LINE",
"254 616 OFFCURVE",
"252 612 OFFCURVE",
"252 604 CURVE SMOOTH",
"252 574 LINE",
"219 403 OFFCURVE",
"201 211 OFFCURVE",
"184 31 CURVE",
"73 31 LINE SMOOTH",
"59 31 OFFCURVE",
"46 16 OFFCURVE",
"46 7 CURVE SMOOTH",
"46 3 OFFCURVE",
"49 0 OFFCURVE",
"56 0 CURVE SMOOTH",
"187 0 LINE",
"191 -5 OFFCURVE",
"198 -8 OFFCURVE",
"206 -8 CURVE SMOOTH",
"214 -8 OFFCURVE",
"222 -5 OFFCURVE",
"228 0 CURVE",
"346 0 LINE",
"372 4 OFFCURVE",
"384 20 OFFCURVE",
"384 28 CURVE SMOOTH",
"384 32 OFFCURVE",
"382 34 OFFCURVE",
"378 34 CURVE SMOOTH",
"355 33 OFFCURVE",
"295 32 OFFCURVE",
"234 31 CURVE",
"232 34 OFFCURVE",
"231 39 OFFCURVE",
"231 47 CURVE SMOOTH",
"231 125 OFFCURVE",
"262 461 OFFCURVE",
"319 622 CURVE"
);
},
{
closed = 1;
nodes = (
"399 699 OFFCURVE",
"400 698 OFFCURVE",
"401 698 CURVE SMOOTH",
"404 698 OFFCURVE",
"406 702 OFFCURVE",
"406 706 CURVE SMOOTH",
"406 708 OFFCURVE",
"406 711 OFFCURVE",
"405 713 CURVE SMOOTH",
"397 728 OFFCURVE",
"341 820 OFFCURVE",
"333 823 CURVE",
"319 820 OFFCURVE",
"217 721 OFFCURVE",
"208 710 CURVE SMOOTH",
"205 706 OFFCURVE",
"204 703 OFFCURVE",
"204 701 CURVE SMOOTH",
"204 699 OFFCURVE",
"205 698 OFFCURVE",
"206 698 CURVE SMOOTH",
"210 698 OFFCURVE",
"298 766 OFFCURVE",
"320 786 CURVE",
"334 765 OFFCURVE",
"383 713 OFFCURVE",
"398 700 CURVE SMOOTH"
);
}
);
};
components = (
{
name = I;
},
{
name = circumflexcomb.case;
transform = "{1, 0, 0, 1, 173, 278}";
}
);
hints = (
{
horizontal = 1;
place = "{0, 31}";
type = Stem;
},
{
horizontal = 1;
place = "{624, 32}";
type = Stem;
},
{
horizontal = 1;
place = "{698, -20}";
target = down;
type = TopGhost;
},
{
horizontal = 1;
place = "{823, -20}";
target = down;
type = TopGhost;
},
{
horizontal = 1;
place = "{624, 68}";
type = Stem;
},
{
horizontal = 1;
place = "{-8, 21}";
target = up;
type = BottomGhost;
}
);
layerId = "3787E0F5-978F-4E40-B775-08CB0E3B1585";
width = 458;
}
);
note = Icircumflex;
rightKerningGroup = I;
unicode = 00CE;
},
{
color = 9;
glyphname = Idieresis;
lastChange = "2021-04-22 11:07:19 +0000";
layers = (
{
background = {
paths = (
{
closed = 1;
nodes = (
"319 624 LINE",
"428 624 LINE",
"454 628 OFFCURVE",
"466 644 OFFCURVE",
"466 652 CURVE SMOOTH",
"466 656 OFFCURVE",
"464 658 OFFCURVE",
"460 658 CURVE SMOOTH",
"439 657 OFFCURVE",
"387 656 OFFCURVE",
"331 656 CURVE",
"342 680 LINE",
"342 682 LINE SMOOTH",
"342 689 OFFCURVE",
"335 692 OFFCURVE",
"327 692 CURVE SMOOTH",
"292 692 OFFCURVE",
"272 672 OFFCURVE",
"264 655 CURVE",
"155 655 LINE SMOOTH",
"141 655 OFFCURVE",
"128 640 OFFCURVE",
"128 631 CURVE SMOOTH",
"128 627 OFFCURVE",
"131 624 OFFCURVE",
"138 624 CURVE SMOOTH",
"254 624 LINE",
"254 616 OFFCURVE",
"252 612 OFFCURVE",
"252 604 CURVE SMOOTH",
"252 574 LINE",
"219 403 OFFCURVE",
"201 211 OFFCURVE",
"184 31 CURVE",
"73 31 LINE SMOOTH",
"59 31 OFFCURVE",
"46 16 OFFCURVE",
"46 7 CURVE SMOOTH",
"46 3 OFFCURVE",
"49 0 OFFCURVE",
"56 0 CURVE SMOOTH",
"187 0 LINE",
"191 -5 OFFCURVE",
"198 -8 OFFCURVE",
"206 -8 CURVE SMOOTH",
"214 -8 OFFCURVE",
"222 -5 OFFCURVE",
"228 0 CURVE",
"346 0 LINE",
"372 4 OFFCURVE",
"384 20 OFFCURVE",
"384 28 CURVE SMOOTH",
"384 32 OFFCURVE",
"382 34 OFFCURVE",
"378 34 CURVE SMOOTH",
"355 33 OFFCURVE",
"295 32 OFFCURVE",
"234 31 CURVE",
"232 34 OFFCURVE",
"231 39 OFFCURVE",
"231 47 CURVE SMOOTH",
"231 125 OFFCURVE",
"262 461 OFFCURVE",
"319 622 CURVE"
);
},
{
closed = 1;
nodes = (
"416 832 OFFCURVE",
"414 833 OFFCURVE",
"411 833 CURVE SMOOTH",
"389 833 OFFCURVE",
"360 805 OFFCURVE",
"360 781 CURVE SMOOTH",
"360 768 OFFCURVE",
"362 754 OFFCURVE",
"378 754 CURVE",
"389 757 OFFCURVE",
"405 761 OFFCURVE",
"405 775 CURVE SMOOTH",
"405 781 OFFCURVE",
"417 812 OFFCURVE",
"417 830 CURVE"
);
},
{
closed = 1;
nodes = (
"288 832 OFFCURVE",
"286 833 OFFCURVE",
"284 833 CURVE SMOOTH",
"261 833 OFFCURVE",
"233 805 OFFCURVE",
"233 781 CURVE SMOOTH",
"233 768 OFFCURVE",
"236 754 OFFCURVE",
"250 754 CURVE",
"261 757 OFFCURVE",
"277 761 OFFCURVE",
"277 775 CURVE SMOOTH",
"277 781 OFFCURVE",
"289 812 OFFCURVE",
"289 830 CURVE"
);
}
);
};
components = (
{
name = I;
},
{
name = dieresiscomb.case;
transform = "{1, 0, 0, 1, 112, 275}";
}
);
hints = (
{
place = "{256, 53}";
type = Stem;
},
{
place = "{408, 53}";
type = Stem;
}
);
layerId = "3787E0F5-978F-4E40-B775-08CB0E3B1585";
width = 458;
}
);
note = Idieresis;
unicode = 00CF;
},
{
color = 9;
glyphname = Igrave;
lastChange = "2021-04-22 11:18:27 +0000";
layers = (
{
background = {
paths = (
{
closed = 1;
nodes = (
"319 624 LINE",
"428 624 LINE",
"454 628 OFFCURVE",
"466 644 OFFCURVE",
"466 652 CURVE SMOOTH",
"466 656 OFFCURVE",
"464 658 OFFCURVE",
"460 658 CURVE SMOOTH",
"439 657 OFFCURVE",
"387 656 OFFCURVE",
"331 656 CURVE",
"342 680 LINE",
"342 682 LINE SMOOTH",
"342 689 OFFCURVE",
"335 692 OFFCURVE",
"327 692 CURVE SMOOTH",
"292 692 OFFCURVE",
"272 672 OFFCURVE",
"264 655 CURVE",
"155 655 LINE SMOOTH",
"141 655 OFFCURVE",
"128 640 OFFCURVE",
"128 631 CURVE SMOOTH",
"128 627 OFFCURVE",
"131 624 OFFCURVE",
"138 624 CURVE SMOOTH",
"254 624 LINE",
"254 616 OFFCURVE",
"252 612 OFFCURVE",
"252 604 CURVE SMOOTH",
"252 574 LINE",
"219 403 OFFCURVE",
"201 211 OFFCURVE",
"184 31 CURVE",
"73 31 LINE SMOOTH",
"59 31 OFFCURVE",
"46 16 OFFCURVE",
"46 7 CURVE SMOOTH",
"46 3 OFFCURVE",
"49 0 OFFCURVE",
"56 0 CURVE SMOOTH",
"187 0 LINE",
"191 -5 OFFCURVE",
"198 -8 OFFCURVE",
"206 -8 CURVE SMOOTH",
"214 -8 OFFCURVE",
"222 -5 OFFCURVE",
"228 0 CURVE",
"346 0 LINE",
"372 4 OFFCURVE",
"384 20 OFFCURVE",
"384 28 CURVE SMOOTH",
"384 32 OFFCURVE",
"382 34 OFFCURVE",
"378 34 CURVE SMOOTH",
"355 33 OFFCURVE",
"295 32 OFFCURVE",
"234 31 CURVE",
"232 34 OFFCURVE",
"231 39 OFFCURVE",
"231 47 CURVE SMOOTH",
"231 125 OFFCURVE",
"262 461 OFFCURVE",
"319 622 CURVE"
);
},
{
closed = 1;
nodes = (
"253 791 OFFCURVE",
"337 750 OFFCURVE",
"383 727 CURVE SMOOTH",
"385 726 OFFCURVE",
"386 726 OFFCURVE",
"388 726 CURVE SMOOTH",
"390 726 OFFCURVE",
"391 727 OFFCURVE",
"391 729 CURVE SMOOTH",
"391 741 OFFCURVE",
"316 800 OFFCURVE",
"245 847 CURVE SMOOTH",
"241 849 OFFCURVE",
"238 850 OFFCURVE",
"235 850 CURVE SMOOTH",
"223 850 OFFCURVE",
"214 835 OFFCURVE",
"214 823 CURVE SMOOTH",
"214 817 OFFCURVE",
"216 811 OFFCURVE",
"222 808 CURVE SMOOTH"
);
}
);
};
components = (
{
name = I;
},
{
name = gravecomb.case;
transform = "{1, 0, 0, 1, 194, 278}";
}
);
hints = (
{
horizontal = 1;
place = "{0, 31}";
type = Stem;
},
{
horizontal = 1;
place = "{624, 32}";
type = Stem;
},
{
horizontal = 1;
place = "{850, -20}";
target = down;
type = TopGhost;
},
{
horizontal = 1;
place = "{624, 68}";
type = Stem;
},
{
horizontal = 1;
place = "{-8, 21}";
target = up;
type = BottomGhost;
}
);
layerId = "3787E0F5-978F-4E40-B775-08CB0E3B1585";
width = 458;
}
);
note = Igrave;
unicode = 00CC;
},
{
glyphname = J;
lastChange = "2021-04-08 07:25:40 +0000";
layers = (
{
background = {
paths = (
{
closed = 1;
nodes = (
"245 63 OFFCURVE",
"232 5 OFFCURVE",
"187 5 CURVE SMOOTH",
"102 5 OFFCURVE",
"59 167 OFFCURVE",
"48 167 CURVE SMOOTH",
"43 167 OFFCURVE",
"39 160 OFFCURVE",
"39 148 CURVE SMOOTH",
"39 92 OFFCURVE",
"129 -33 OFFCURVE",
"202 -33 CURVE SMOOTH",
"301 -33 OFFCURVE",
"310 180 OFFCURVE",
"327 346 CURVE SMOOTH",
"340 473 OFFCURVE",
"362 568 OFFCURVE",
"371 607 CURVE SMOOTH",
"374 618 LINE",
"463 618 LINE",
"489 622 OFFCURVE",
"501 638 OFFCURVE",
"501 646 CURVE SMOOTH",
"501 650 OFFCURVE",
"499 652 OFFCURVE",
"495 652 CURVE SMOOTH",
"476 651 OFFCURVE",
"433 650 OFFCURVE",
"387 650 CURVE",
"394 665 LINE",
"394 667 LINE SMOOTH",
"394 674 OFFCURVE",
"387 677 OFFCURVE",
"379 677 CURVE SMOOTH",
"358 677 OFFCURVE",
"339 666 OFFCURVE",
"330 649 CURVE",
"216 649 LINE SMOOTH",
"202 649 OFFCURVE",
"189 634 OFFCURVE",
"189 625 CURVE SMOOTH",
"189 621 OFFCURVE",
"192 618 OFFCURVE",
"199 618 CURVE SMOOTH",
"319 618 LINE",
"315 593 OFFCURVE",
"313 579 OFFCURVE",
"313 571 CURVE SMOOTH",
"313 565 OFFCURVE",
"313 562 OFFCURVE",
"315 561 CURVE",
"300 394 OFFCURVE",
"283 282 OFFCURVE",
"253 108 CURVE SMOOTH"
);
}
);
};
hints = (
{
horizontal = 1;
place = "{-33, 38}";
type = Stem;
},
{
horizontal = 1;
place = "{618, 31}";
type = Stem;
},
{
horizontal = 1;
place = "{618, 59}";
type = Stem;
}
);
layerId = "3787E0F5-978F-4E40-B775-08CB0E3B1585";
paths = (
{
closed = 1;
nodes = (
"301 -33 OFFCURVE",
"310 180 OFFCURVE",
"327 346 CURVE SMOOTH",
"340 473 OFFCURVE",
"362 568 OFFCURVE",
"371 607 CURVE SMOOTH",
"374 618 LINE",
"463 618 LINE",
"489 622 OFFCURVE",
"501 638 OFFCURVE",
"501 646 CURVE SMOOTH",
"501 650 OFFCURVE",
"499 652 OFFCURVE",
"495 652 CURVE SMOOTH",
"476 651 OFFCURVE",
"433 650 OFFCURVE",
"387 650 CURVE",
"394 665 LINE",
"394 667 LINE SMOOTH",
"394 674 OFFCURVE",
"387 677 OFFCURVE",
"379 677 CURVE SMOOTH",
"358 677 OFFCURVE",
"339 666 OFFCURVE",
"330 649 CURVE",
"216 649 LINE SMOOTH",
"202 649 OFFCURVE",
"189 634 OFFCURVE",
"189 625 CURVE SMOOTH",
"189 621 OFFCURVE",
"192 618 OFFCURVE",
"199 618 CURVE SMOOTH",
"319 618 LINE",
"315 593 OFFCURVE",
"313 579 OFFCURVE",
"313 571 CURVE SMOOTH",
"313 565 OFFCURVE",
"313 562 OFFCURVE",
"315 561 CURVE",
"300 394 OFFCURVE",
"283 282 OFFCURVE",
"253 108 CURVE SMOOTH",
"245 63 OFFCURVE",
"232 5 OFFCURVE",
"187 5 CURVE SMOOTH",
"102 5 OFFCURVE",
"59 167 OFFCURVE",
"48 167 CURVE SMOOTH",
"43 167 OFFCURVE",
"39 160 OFFCURVE",
"39 148 CURVE SMOOTH",
"39 92 OFFCURVE",
"129 -33 OFFCURVE",
"202 -33 CURVE SMOOTH"
);
}
);
width = 516;
}
);
note = J;
unicode = 004A;
},
{
glyphname = K;
lastChange = "2021-04-22 11:09:34 +0000";
layers = (
{
anchors = (
{
name = bottom;
position = "{278, 0}";
},
{
name = top;
position = "{377, 650}";
}
);
background = {
paths = (
{
closed = 1;
nodes = (
"273 115 OFFCURVE",
"422 -26 OFFCURVE",
"497 -26 CURVE SMOOTH",
"535 -26 OFFCURVE",
"590 12 OFFCURVE",
"590 110 CURVE SMOOTH",
"590 129 OFFCURVE",
"591 171 OFFCURVE",
"570 171 CURVE SMOOTH",
"565 171 OFFCURVE",
"561 167 OFFCURVE",
"561 155 CURVE SMOOTH",
"561 143 OFFCURVE",
"564 128 OFFCURVE",
"564 110 CURVE SMOOTH",
"564 60 OFFCURVE",
"554 6 OFFCURVE",
"516 6 CURVE",
"431 13 OFFCURVE",
"282 174 OFFCURVE",
"180 282 CURVE SMOOTH",
"173 289 OFFCURVE",
"168 297 OFFCURVE",
"168 303 CURVE SMOOTH",
"168 311 OFFCURVE",
"176 319 OFFCURVE",
"196 325 CURVE SMOOTH",
"319 361 OFFCURVE",
"659 615 OFFCURVE",
"659 676 CURVE SMOOTH",
"659 684 OFFCURVE",
"653 687 OFFCURVE",
"645 687 CURVE SMOOTH",
"626 687 OFFCURVE",
"595 670 OFFCURVE",
"595 656 CURVE SMOOTH",
"595 654 OFFCURVE",
"595 653 OFFCURVE",
"597 651 CURVE",
"562 621 OFFCURVE",
"425 446 OFFCURVE",
"208 361 CURVE SMOOTH",
"195 356 OFFCURVE",
"177 354 OFFCURVE",
"159 349 CURVE",
"175 465 OFFCURVE",
"201 568 OFFCURVE",
"235 645 CURVE",
"235 647 LINE SMOOTH",
"235 654 OFFCURVE",
"228 657 OFFCURVE",
"220 657 CURVE SMOOTH",
"165 657 OFFCURVE",
"145 613 OFFCURVE",
"145 569 CURVE SMOOTH",
"145 539 LINE",
"134 475 OFFCURVE",
"125 410 OFFCURVE",
"117 344 CURVE",
"109 344 LINE SMOOTH",
"96 344 OFFCURVE",
"85 346 OFFCURVE",
"80 351 CURVE",
"75 351 OFFCURVE",
"73 349 OFFCURVE",
"73 346 CURVE SMOOTH",
"73 336 OFFCURVE",
"91 315 OFFCURVE",
"111 293 CURVE",
"101 202 OFFCURVE",
"93 110 OFFCURVE",
"84 14 CURVE",
"84 0 OFFCURVE",
"94 -8 OFFCURVE",
"108 -8 CURVE SMOOTH",
"123 -8 OFFCURVE",
"139 2 OFFCURVE",
"139 21 CURVE SMOOTH",
"139 29 OFFCURVE",
"134 29 OFFCURVE",
"132 47 CURVE",
"132 82 OFFCURVE",
"136 163 OFFCURVE",
"147 256 CURVE",
"153 250 OFFCURVE",
"159 244 OFFCURVE",
"164 240 CURVE"
);
}
);
};
hints = (
{
horizontal = 1;
place = "{-26, 32}";
type = Stem;
},
{
horizontal = 1;
place = "{687, -20}";
target = down;
type = TopGhost;
},
{
place = "{564, 26}";
type = Stem;
},
{
horizontal = 1;
place = "{-8, 21}";
target = up;
type = BottomGhost;
}
);
layerId = "3787E0F5-978F-4E40-B775-08CB0E3B1585";
paths = (
{
closed = 1;
nodes = (
"536 -26 OFFCURVE",
"590 13 OFFCURVE",
"590 115 CURVE SMOOTH",
"590 136 OFFCURVE",
"589 171 OFFCURVE",
"570 171 CURVE SMOOTH",
"565 171 OFFCURVE",
"561 167 OFFCURVE",
"561 155 CURVE SMOOTH",
"561 143 OFFCURVE",
"564 128 OFFCURVE",
"564 110 CURVE SMOOTH",
"564 60 OFFCURVE",
"554 6 OFFCURVE",
"516 6 CURVE",
"431 13 OFFCURVE",
"282 174 OFFCURVE",
"180 282 CURVE SMOOTH",
"173 289 OFFCURVE",
"168 297 OFFCURVE",
"168 303 CURVE SMOOTH",
"168 311 OFFCURVE",
"176 319 OFFCURVE",
"196 325 CURVE SMOOTH",
"319 361 OFFCURVE",
"659 615 OFFCURVE",
"659 676 CURVE SMOOTH",
"659 684 OFFCURVE",
"653 687 OFFCURVE",
"645 687 CURVE SMOOTH",
"626 687 OFFCURVE",
"595 670 OFFCURVE",
"595 656 CURVE SMOOTH",
"595 654 OFFCURVE",
"595 653 OFFCURVE",
"597 651 CURVE",
"562 621 OFFCURVE",
"425 446 OFFCURVE",
"208 361 CURVE SMOOTH",
"195 356 OFFCURVE",
"177 354 OFFCURVE",
"159 349 CURVE",
"175 465 OFFCURVE",
"201 568 OFFCURVE",
"235 645 CURVE",
"235 647 LINE SMOOTH",
"235 654 OFFCURVE",
"228 657 OFFCURVE",
"220 657 CURVE SMOOTH",
"165 657 OFFCURVE",
"145 613 OFFCURVE",
"145 569 CURVE SMOOTH",
"145 539 LINE",
"134 475 OFFCURVE",
"125 410 OFFCURVE",
"117 344 CURVE",
"109 344 LINE SMOOTH",
"96 344 OFFCURVE",
"85 346 OFFCURVE",
"80 351 CURVE",
"75 351 OFFCURVE",
"73 349 OFFCURVE",
"73 346 CURVE SMOOTH",
"73 336 OFFCURVE",
"91 315 OFFCURVE",
"111 293 CURVE",
"101 202 OFFCURVE",
"93 110 OFFCURVE",
"84 14 CURVE",
"84 0 OFFCURVE",
"94 -8 OFFCURVE",
"108 -8 CURVE SMOOTH",
"123 -8 OFFCURVE",
"139 2 OFFCURVE",
"139 21 CURVE SMOOTH",
"139 29 OFFCURVE",
"134 29 OFFCURVE",
"132 47 CURVE",
"132 82 OFFCURVE",
"136 163 OFFCURVE",
"147 256 CURVE",
"153 250 OFFCURVE",
"159 244 OFFCURVE",
"164 240 CURVE",
"273 115 OFFCURVE",
"422 -26 OFFCURVE",
"497 -26 CURVE SMOOTH"
);
}
);
width = 635;
}
);
note = K;
unicode = 004B;
},
{
glyphname = L;
lastChange = "2021-04-08 07:25:46 +0000";
layers = (
{
anchors = (
{
name = bottom;
position = "{290, 0}";
},
{
name = center;
position = "{290, 325}";
},
{
name = top;
position = "{218, 650}";
},
{
name = topright;
position = "{325, 650}";
}
);
background = {
paths = (
{
closed = 1;
nodes = (
"220 600 OFFCURVE",
"239 634 OFFCURVE",
"239 647 CURVE SMOOTH",
"239 654 OFFCURVE",
"232 657 OFFCURVE",
"224 657 CURVE SMOOTH",
"169 657 OFFCURVE",
"149 613 OFFCURVE",
"149 569 CURVE SMOOTH",
"149 539 LINE",
"122 380 OFFCURVE",
"106 214 OFFCURVE",
"90 39 CURVE",
"75 34 OFFCURVE",
"56 15 OFFCURVE",
"56 5 CURVE SMOOTH",
"56 2 OFFCURVE",
"58 0 OFFCURVE",
"63 0 CURVE SMOOTH",
"92 0 LINE",
"96 -5 OFFCURVE",
"103 -8 OFFCURVE",
"111 -8 CURVE SMOOTH",
"119 -8 OFFCURVE",
"127 -5 OFFCURVE",
"133 0 CURVE",
"215 0 OFFCURVE",
"299 -1 OFFCURVE",
"379 -1 CURVE SMOOTH",
"434 -1 OFFCURVE",
"525 -16 OFFCURVE",
"525 36 CURVE SMOOTH",
"525 42 OFFCURVE",
"524 46 OFFCURVE",
"521 46 CURVE SMOOTH",
"520 46 LINE",
"485 35 OFFCURVE",
"434 30 OFFCURVE",
"405 30 CURVE SMOOTH",
"274 30 OFFCURVE",
"188 31 OFFCURVE",
"139 31 CURVE",
"138 34 OFFCURVE",
"136 38 OFFCURVE",
"136 47 CURVE SMOOTH",
"136 125 OFFCURVE",
"159 426 OFFCURVE",
"216 587 CURVE SMOOTH"
);
}
);
};
hints = (
{
horizontal = 1;
place = "{0, 30}";
type = Stem;
},
{
horizontal = 1;
place = "{657, -20}";
target = down;
type = TopGhost;
},
{
horizontal = 1;
place = "{-8, 21}";
target = up;
type = BottomGhost;
},
{
horizontal = 1;
place = "{-1, 21}";
target = up;
type = BottomGhost;
}
);
layerId = "3787E0F5-978F-4E40-B775-08CB0E3B1585";
paths = (
{
closed = 1;
nodes = (
"119 -8 OFFCURVE",
"127 -5 OFFCURVE",
"133 0 CURVE",
"215 0 OFFCURVE",
"299 -1 OFFCURVE",
"379 -1 CURVE SMOOTH",
"399 -1 OFFCURVE",
"424 -3 OFFCURVE",
"448 -3 CURVE SMOOTH",
"488 -3 OFFCURVE",
"525 3 OFFCURVE",
"525 36 CURVE SMOOTH",
"525 42 OFFCURVE",
"524 46 OFFCURVE",
"521 46 CURVE SMOOTH",
"520 46 LINE",
"485 35 OFFCURVE",
"434 30 OFFCURVE",
"405 30 CURVE SMOOTH",
"274 30 OFFCURVE",
"188 31 OFFCURVE",
"139 31 CURVE",
"138 34 OFFCURVE",
"136 38 OFFCURVE",
"136 47 CURVE SMOOTH",
"136 125 OFFCURVE",
"159 426 OFFCURVE",
"216 587 CURVE SMOOTH",
"220 600 OFFCURVE",
"239 634 OFFCURVE",
"239 647 CURVE SMOOTH",
"239 654 OFFCURVE",
"232 657 OFFCURVE",
"224 657 CURVE SMOOTH",
"169 657 OFFCURVE",
"149 613 OFFCURVE",
"149 569 CURVE SMOOTH",
"149 539 LINE",
"122 380 OFFCURVE",
"106 214 OFFCURVE",
"90 39 CURVE",
"75 34 OFFCURVE",
"56 15 OFFCURVE",
"56 5 CURVE SMOOTH",
"56 2 OFFCURVE",
"58 0 OFFCURVE",
"63 0 CURVE SMOOTH",
"92 0 LINE",
"96 -5 OFFCURVE",
"103 -8 OFFCURVE",
"111 -8 CURVE SMOOTH"
);
}
);
width = 579;
}
);
note = L;
unicode = 004C;
},
{
glyphname = Lslash;
lastChange = "2021-04-08 07:25:46 +0000";
layers = (
{
background = {
paths = (
{
closed = 1;
nodes = (
"220 600 OFFCURVE",
"239 634 OFFCURVE",
"239 647 CURVE SMOOTH",
"239 654 OFFCURVE",
"232 657 OFFCURVE",
"224 657 CURVE SMOOTH",
"169 657 OFFCURVE",
"149 613 OFFCURVE",
"149 569 CURVE SMOOTH",
"149 539 LINE",
"131 433 OFFCURVE",
"118 324 OFFCURVE",
"106 212 CURVE",
"62 202 OFFCURVE",
"12 190 OFFCURVE",
"12 168 CURVE SMOOTH",
"12 160 OFFCURVE",
"21 156 OFFCURVE",
"32 156 CURVE SMOOTH",
"37 156 OFFCURVE",
"42 157 OFFCURVE",
"48 159 CURVE SMOOTH",
"103 177 LINE",
"98 132 OFFCURVE",
"94 86 OFFCURVE",
"90 39 CURVE",
"75 34 OFFCURVE",
"56 15 OFFCURVE",
"56 5 CURVE SMOOTH",
"56 2 OFFCURVE",
"58 0 OFFCURVE",
"63 0 CURVE SMOOTH",
"92 0 LINE",
"96 -5 OFFCURVE",
"103 -8 OFFCURVE",
"111 -8 CURVE SMOOTH",
"119 -8 OFFCURVE",
"127 -5 OFFCURVE",
"133 0 CURVE",
"215 0 OFFCURVE",
"299 -1 OFFCURVE",
"379 -1 CURVE SMOOTH",
"434 -1 OFFCURVE",
"525 -16 OFFCURVE",
"525 36 CURVE SMOOTH",
"525 42 OFFCURVE",
"524 46 OFFCURVE",
"521 46 CURVE SMOOTH",
"520 46 LINE",
"485 35 OFFCURVE",
"434 30 OFFCURVE",
"405 30 CURVE SMOOTH",
"274 30 OFFCURVE",
"188 31 OFFCURVE",
"139 31 CURVE",
"138 34 OFFCURVE",
"136 38 OFFCURVE",
"136 47 CURVE SMOOTH",
"136 74 OFFCURVE",
"138 128 OFFCURVE",
"144 193 CURVE",
"206 216 OFFCURVE",
"263 244 OFFCURVE",
"263 255 CURVE SMOOTH",
"263 256 OFFCURVE",
"262 257 OFFCURVE",
"259 257 CURVE SMOOTH",
"257 257 OFFCURVE",
"253 256 OFFCURVE",
"248 255 CURVE SMOOTH",
"208 242 OFFCURVE",
"186 236 OFFCURVE",
"147 224 CURVE",
"159 343 OFFCURVE",
"182 490 OFFCURVE",
"216 587 CURVE SMOOTH"
);
}
);
};
hints = (
{
horizontal = 1;
place = "{0, 30}";
type = Stem;
},
{
horizontal = 1;
place = "{657, -20}";
target = down;
type = TopGhost;
},
{
horizontal = 1;
place = "{-8, 21}";
target = up;
type = BottomGhost;
},
{
horizontal = 1;
place = "{-1, 21}";
target = up;
type = BottomGhost;
}
);
layerId = "3787E0F5-978F-4E40-B775-08CB0E3B1585";
paths = (
{
closed = 1;
nodes = (
"119 -8 OFFCURVE",
"127 -5 OFFCURVE",
"133 0 CURVE",
"215 0 OFFCURVE",
"299 -1 OFFCURVE",
"379 -1 CURVE SMOOTH",
"399 -1 OFFCURVE",
"424 -3 OFFCURVE",
"448 -3 CURVE SMOOTH",
"488 -3 OFFCURVE",
"525 3 OFFCURVE",
"525 36 CURVE SMOOTH",
"525 42 OFFCURVE",
"524 46 OFFCURVE",
"521 46 CURVE SMOOTH",
"520 46 LINE",
"485 35 OFFCURVE",
"434 30 OFFCURVE",
"405 30 CURVE SMOOTH",
"274 30 OFFCURVE",
"188 31 OFFCURVE",
"139 31 CURVE",
"138 34 OFFCURVE",
"136 38 OFFCURVE",
"136 47 CURVE SMOOTH",
"136 74 OFFCURVE",
"138 128 OFFCURVE",
"144 193 CURVE",
"206 216 OFFCURVE",
"263 244 OFFCURVE",
"263 255 CURVE SMOOTH",
"263 256 OFFCURVE",
"262 257 OFFCURVE",
"259 257 CURVE SMOOTH",
"257 257 OFFCURVE",
"253 256 OFFCURVE",
"248 255 CURVE SMOOTH",
"208 242 OFFCURVE",
"186 236 OFFCURVE",
"147 224 CURVE",
"159 343 OFFCURVE",
"182 490 OFFCURVE",
"216 587 CURVE SMOOTH",
"220 600 OFFCURVE",
"239 634 OFFCURVE",
"239 647 CURVE SMOOTH",
"239 654 OFFCURVE",
"232 657 OFFCURVE",
"224 657 CURVE SMOOTH",
"169 657 OFFCURVE",
"149 613 OFFCURVE",
"149 569 CURVE SMOOTH",
"149 539 LINE",
"131 433 OFFCURVE",
"118 324 OFFCURVE",
"106 212 CURVE",
"62 202 OFFCURVE",
"12 190 OFFCURVE",
"12 168 CURVE SMOOTH",
"12 160 OFFCURVE",
"21 156 OFFCURVE",
"32 156 CURVE SMOOTH",
"37 156 OFFCURVE",
"42 157 OFFCURVE",
"48 159 CURVE SMOOTH",
"103 177 LINE",
"98 132 OFFCURVE",
"94 86 OFFCURVE",
"90 39 CURVE",
"75 34 OFFCURVE",
"56 15 OFFCURVE",
"56 5 CURVE SMOOTH",
"56 2 OFFCURVE",
"58 0 OFFCURVE",
"63 0 CURVE SMOOTH",
"92 0 LINE",
"96 -5 OFFCURVE",
"103 -8 OFFCURVE",
"111 -8 CURVE SMOOTH"
);
}
);
width = 579;
}
);
note = Lslash;
unicode = 0141;
},
{
glyphname = M;
lastChange = "2021-04-08 07:25:40 +0000";
layers = (
{
background = {
paths = (
{
closed = 1;
nodes = (
"696 601 OFFCURVE",
"711 632 OFFCURVE",
"711 646 CURVE SMOOTH",
"711 654 OFFCURVE",
"703 657 OFFCURVE",
"695 657 CURVE SMOOTH",
"642 657 OFFCURVE",
"626 618 OFFCURVE",
"626 575 CURVE SMOOTH",
"626 566 OFFCURVE",
"629 554 OFFCURVE",
"629 544 CURVE SMOOTH",
"629 539 LINE",
"626 509 LINE",
"525 273 OFFCURVE",
"412 187 OFFCURVE",
"356 187 CURVE SMOOTH",
"253 187 OFFCURVE",
"211 398 OFFCURVE",
"204 557 CURVE",
"216 587 LINE SMOOTH",
"221 600 OFFCURVE",
"244 636 OFFCURVE",
"244 648 CURVE SMOOTH",
"244 655 OFFCURVE",
"237 657 OFFCURVE",
"230 657 CURVE SMOOTH",
"225 657 OFFCURVE",
"220 656 OFFCURVE",
"217 655 CURVE SMOOTH",
"210 653 LINE",
"207 654 OFFCURVE",
"204 654 OFFCURVE",
"200 654 CURVE SMOOTH",
"182 654 OFFCURVE",
"156 641 OFFCURVE",
"156 581 CURVE SMOOTH",
"156 570 OFFCURVE",
"158 562 OFFCURVE",
"163 558 CURVE",
"161 554 OFFCURVE",
"160 550 OFFCURVE",
"160 549 CURVE",
"109 367 OFFCURVE",
"77 176 OFFCURVE",
"55 14 CURVE",
"55 9 LINE SMOOTH",
"55 -2 OFFCURVE",
"61 -8 OFFCURVE",
"69 -8 CURVE SMOOTH",
"77 -8 OFFCURVE",
"92 2 OFFCURVE",
"92 23 CURVE SMOOTH",
"92 32 OFFCURVE",
"88 39 OFFCURVE",
"88 56 CURVE",
"94 136 OFFCURVE",
"126 316 OFFCURVE",
"173 467 CURVE",
"190 324 OFFCURVE",
"240 139 OFFCURVE",
"343 139 CURVE SMOOTH",
"404 139 OFFCURVE",
"513 218 OFFCURVE",
"621 444 CURVE",
"613 306 OFFCURVE",
"611 163 OFFCURVE",
"610 11 CURVE SMOOTH",
"610 -1 OFFCURVE",
"622 -8 OFFCURVE",
"635 -8 CURVE SMOOTH",
"650 -8 OFFCURVE",
"663 1 OFFCURVE",
"663 20 CURVE SMOOTH",
"663 29 OFFCURVE",
"657 27 OFFCURVE",
"655 47 CURVE SMOOTH",
"652 68 OFFCURVE",
"652 108 OFFCURVE",
"652 157 CURVE SMOOTH",
"652 282 OFFCURVE",
"660 471 OFFCURVE",
"693 587 CURVE SMOOTH"
);
}
);
};
hints = (
{
horizontal = 1;
place = "{-8, 21}";
target = up;
type = BottomGhost;
},
{
horizontal = 1;
place = "{139, 48}";
type = Stem;
},
{
horizontal = 1;
place = "{657, -20}";
target = down;
type = TopGhost;
},
{
place = "{621, 31}";
type = Stem;
}
);
layerId = "3787E0F5-978F-4E40-B775-08CB0E3B1585";
paths = (
{
closed = 1;
nodes = (
"77 -8 OFFCURVE",
"92 2 OFFCURVE",
"92 23 CURVE SMOOTH",
"92 32 OFFCURVE",
"88 39 OFFCURVE",
"88 56 CURVE",
"94 136 OFFCURVE",
"126 316 OFFCURVE",
"173 467 CURVE",
"190 324 OFFCURVE",
"240 139 OFFCURVE",
"343 139 CURVE SMOOTH",
"404 139 OFFCURVE",
"513 218 OFFCURVE",
"621 444 CURVE",
"613 306 OFFCURVE",
"611 163 OFFCURVE",
"610 11 CURVE SMOOTH",
"610 -1 OFFCURVE",
"622 -8 OFFCURVE",
"635 -8 CURVE SMOOTH",
"650 -8 OFFCURVE",
"663 1 OFFCURVE",
"663 20 CURVE SMOOTH",
"663 29 OFFCURVE",
"657 27 OFFCURVE",
"655 47 CURVE SMOOTH",
"652 68 OFFCURVE",
"652 108 OFFCURVE",
"652 157 CURVE SMOOTH",
"652 282 OFFCURVE",
"660 471 OFFCURVE",
"693 587 CURVE SMOOTH",
"696 601 OFFCURVE",
"711 632 OFFCURVE",
"711 646 CURVE SMOOTH",
"711 654 OFFCURVE",
"703 657 OFFCURVE",
"695 657 CURVE SMOOTH",
"642 657 OFFCURVE",
"626 618 OFFCURVE",
"626 575 CURVE SMOOTH",
"626 566 OFFCURVE",
"629 554 OFFCURVE",
"629 544 CURVE SMOOTH",
"629 539 LINE",
"626 509 LINE",
"525 273 OFFCURVE",
"412 187 OFFCURVE",
"356 187 CURVE SMOOTH",
"253 187 OFFCURVE",
"211 398 OFFCURVE",
"204 557 CURVE",
"216 587 LINE SMOOTH",
"221 600 OFFCURVE",
"244 636 OFFCURVE",
"244 648 CURVE SMOOTH",
"244 655 OFFCURVE",
"237 657 OFFCURVE",
"230 657 CURVE SMOOTH",
"225 657 OFFCURVE",
"220 656 OFFCURVE",
"217 655 CURVE SMOOTH",
"210 653 LINE",
"207 654 OFFCURVE",
"204 654 OFFCURVE",
"200 654 CURVE SMOOTH",
"182 654 OFFCURVE",
"156 641 OFFCURVE",
"156 581 CURVE SMOOTH",
"156 570 OFFCURVE",
"158 562 OFFCURVE",
"163 558 CURVE",
"161 554 OFFCURVE",
"160 550 OFFCURVE",
"160 549 CURVE",
"109 367 OFFCURVE",
"77 176 OFFCURVE",
"55 14 CURVE",
"55 9 LINE SMOOTH",
"55 -2 OFFCURVE",
"61 -8 OFFCURVE",
"69 -8 CURVE SMOOTH"
);
}
);
width = 755;
}
);
note = M;
unicode = 004D;
},
{
glyphname = N;
lastChange = "2021-04-08 07:25:40 +0000";
layers = (
{
anchors = (
{
name = bottom;
position = "{340, 0}";
},
{
name = top;
position = "{412, 650}";
}
);
background = {
paths = (
{
closed = 1;
nodes = (
"86 19 OFFCURVE",
"101 0 OFFCURVE",
"114 0 CURVE SMOOTH",
"125 0 OFFCURVE",
"128 12 OFFCURVE",
"128 39 CURVE SMOOTH",
"128 55 OFFCURVE",
"127 73 OFFCURVE",
"127 87 CURVE SMOOTH",
"127 176 OFFCURVE",
"153 407 OFFCURVE",
"195 547 CURVE",
"196 508 OFFCURVE",
"205 471 OFFCURVE",
"258 410 CURVE SMOOTH",
"313 347 OFFCURVE",
"442 225 OFFCURVE",
"489 162 CURVE SMOOTH",
"500 146 OFFCURVE",
"512 120 OFFCURVE",
"520 95 CURVE",
"513 13 LINE",
"513 -1 OFFCURVE",
"520 -9 OFFCURVE",
"531 -9 CURVE SMOOTH",
"540 -9 OFFCURVE",
"551 -1 OFFCURVE",
"554 14 CURVE",
"554 20 LINE",
"559 33 OFFCURVE",
"564 53 OFFCURVE",
"564 76 CURVE SMOOTH",
"564 95 OFFCURVE",
"561 117 OFFCURVE",
"553 139 CURVE",
"565 311 OFFCURVE",
"597 520 OFFCURVE",
"651 644 CURVE",
"651 646 LINE SMOOTH",
"651 653 OFFCURVE",
"644 656 OFFCURVE",
"636 656 CURVE SMOOTH",
"580 656 OFFCURVE",
"574 612 OFFCURVE",
"574 568 CURVE SMOOTH",
"574 538 LINE",
"562 470 OFFCURVE",
"552 402 OFFCURVE",
"545 332 CURVE SMOOTH",
"529 185 LINE",
"520 197 LINE SMOOTH",
"407 337 OFFCURVE",
"215 475 OFFCURVE",
"215 576 CURVE SMOOTH",
"215 588 OFFCURVE",
"241 627 OFFCURVE",
"241 647 CURVE SMOOTH",
"241 653 OFFCURVE",
"231 656 OFFCURVE",
"218 656 CURVE SMOOTH",
"182 656 OFFCURVE",
"158 630 OFFCURVE",
"158 569 CURVE SMOOTH",
"158 563 OFFCURVE",
"158 557 OFFCURVE",
"159 551 CURVE",
"140 442 OFFCURVE",
"92 162 OFFCURVE",
"86 38 CURVE SMOOTH"
);
}
);
};
hints = (
{
horizontal = 1;
place = "{0, 21}";
target = up;
type = BottomGhost;
},
{
horizontal = 1;
place = "{656, -20}";
target = down;
type = TopGhost;
},
{
place = "{86, 41}";
type = Stem;
},
{
place = "{158, 57}";
type = Stem;
},
{
horizontal = 1;
place = "{-9, 21}";
target = up;
type = BottomGhost;
}
);
layerId = "3787E0F5-978F-4E40-B775-08CB0E3B1585";
paths = (
{
closed = 1;
nodes = (
"540 -9 OFFCURVE",
"551 -1 OFFCURVE",
"554 14 CURVE",
"554 20 LINE",
"559 33 OFFCURVE",
"564 53 OFFCURVE",
"564 76 CURVE SMOOTH",
"564 95 OFFCURVE",
"561 117 OFFCURVE",
"553 139 CURVE",
"565 311 OFFCURVE",
"597 520 OFFCURVE",
"651 644 CURVE",
"651 646 LINE SMOOTH",
"651 653 OFFCURVE",
"644 656 OFFCURVE",
"636 656 CURVE SMOOTH",
"580 656 OFFCURVE",
"574 612 OFFCURVE",
"574 568 CURVE SMOOTH",
"574 538 LINE",
"562 470 OFFCURVE",
"553 402 OFFCURVE",
"545 332 CURVE SMOOTH",
"529 185 LINE",
"520 197 LINE SMOOTH",
"412 341 OFFCURVE",
"215 475 OFFCURVE",
"215 576 CURVE SMOOTH",
"215 588 OFFCURVE",
"241 627 OFFCURVE",
"241 647 CURVE SMOOTH",
"241 653 OFFCURVE",
"231 656 OFFCURVE",
"218 656 CURVE SMOOTH",
"182 656 OFFCURVE",
"158 630 OFFCURVE",
"158 569 CURVE SMOOTH",
"158 563 OFFCURVE",
"158 557 OFFCURVE",
"159 551 CURVE",
"140 442 OFFCURVE",
"92 162 OFFCURVE",
"86 38 CURVE SMOOTH",
"86 19 OFFCURVE",
"101 0 OFFCURVE",
"114 0 CURVE SMOOTH",
"125 0 OFFCURVE",
"128 12 OFFCURVE",
"128 39 CURVE SMOOTH",
"128 55 OFFCURVE",
"127 73 OFFCURVE",
"127 87 CURVE SMOOTH",
"127 176 OFFCURVE",
"153 407 OFFCURVE",
"195 547 CURVE",
"196 508 OFFCURVE",
"205 471 OFFCURVE",
"258 410 CURVE SMOOTH",
"313 347 OFFCURVE",
"442 225 OFFCURVE",
"489 162 CURVE SMOOTH",
"500 146 OFFCURVE",
"512 120 OFFCURVE",
"520 95 CURVE",
"513 13 LINE",
"513 -1 OFFCURVE",
"520 -9 OFFCURVE",
"531 -9 CURVE SMOOTH"
);
}
);
width = 680;
}
);
note = N;
unicode = 004E;
},
{
glyphname = Eng;
lastChange = "2021-04-08 07:25:40 +0000";
layers = (
{
hints = (
{
horizontal = 1;
place = "{0, 21}";
target = up;
type = BottomGhost;
},
{
horizontal = 1;
place = "{656, -20}";
target = down;
type = TopGhost;
},
{
place = "{86, 41}";
type = Stem;
},
{
place = "{158, 57}";
type = Stem;
},
{
horizontal = 1;
place = "{-9, 21}";
target = up;
type = BottomGhost;
},
{
horizontal = 1;
place = "{-33, 38}";
type = Stem;
},
{
horizontal = 1;
place = "{618, 31}";
type = Stem;
},
{
horizontal = 1;
place = "{618, 59}";
type = Stem;
}
);
layerId = "3787E0F5-978F-4E40-B775-08CB0E3B1585";
paths = (
{
closed = 1;
nodes = (
"502 -274 OFFCURVE",
"514 -144 OFFCURVE",
"532 -9 CURVE",
"541 -8 OFFCURVE",
"551 0 OFFCURVE",
"554 14 CURVE",
"554 20 LINE",
"559 33 OFFCURVE",
"564 53 OFFCURVE",
"564 76 CURVE SMOOTH",
"564 94 OFFCURVE",
"561 114 OFFCURVE",
"555 134 CURVE",
"556 147 OFFCURVE",
"556 158 OFFCURVE",
"555 167 CURVE",
"568 333 OFFCURVE",
"600 527 OFFCURVE",
"651 644 CURVE",
"651 646 LINE SMOOTH",
"651 653 OFFCURVE",
"644 656 OFFCURVE",
"636 656 CURVE SMOOTH",
"580 656 OFFCURVE",
"574 612 OFFCURVE",
"574 568 CURVE SMOOTH",
"574 538 LINE",
"562 470 OFFCURVE",
"552 400 OFFCURVE",
"545 332 CURVE SMOOTH",
"538 266 OFFCURVE",
"532 210 OFFCURVE",
"520 197 CURVE",
"407 337 OFFCURVE",
"215 475 OFFCURVE",
"215 576 CURVE SMOOTH",
"215 588 OFFCURVE",
"241 627 OFFCURVE",
"241 647 CURVE SMOOTH",
"241 653 OFFCURVE",
"231 656 OFFCURVE",
"218 656 CURVE SMOOTH",
"182 656 OFFCURVE",
"158 630 OFFCURVE",
"158 569 CURVE SMOOTH",
"158 563 OFFCURVE",
"158 557 OFFCURVE",
"159 551 CURVE",
"140 442 OFFCURVE",
"92 162 OFFCURVE",
"86 38 CURVE SMOOTH",
"86 19 OFFCURVE",
"101 0 OFFCURVE",
"114 0 CURVE SMOOTH",
"125 0 OFFCURVE",
"128 12 OFFCURVE",
"128 39 CURVE SMOOTH",
"128 55 OFFCURVE",
"127 73 OFFCURVE",
"127 87 CURVE SMOOTH",
"127 176 OFFCURVE",
"153 407 OFFCURVE",
"195 547 CURVE",
"196 508 OFFCURVE",
"205 471 OFFCURVE",
"258 410 CURVE SMOOTH",
"313 347 OFFCURVE",
"442 225 OFFCURVE",
"489 162 CURVE SMOOTH",
"497 150 OFFCURVE",
"506 132 OFFCURVE",
"514 113 CURVE",
"506 63 OFFCURVE",
"496 -18 OFFCURVE",
"476 -133 CURVE SMOOTH",
"468 -178 OFFCURVE",
"455 -236 OFFCURVE",
"410 -236 CURVE SMOOTH",
"325 -236 OFFCURVE",
"282 -74 OFFCURVE",
"271 -74 CURVE SMOOTH",
"266 -74 OFFCURVE",
"262 -81 OFFCURVE",
"262 -93 CURVE SMOOTH",
"262 -149 OFFCURVE",
"352 -274 OFFCURVE",
"425 -274 CURVE SMOOTH"
);
}
);
width = 680;
}
);
unicode = 014A;
},
{
glyphname = O;
lastChange = "2021-04-22 11:07:54 +0000";
layers = (
{
anchors = (
{
name = bottom;
position = "{348, -18}";
},
{
name = center;
position = "{398, 325}";
},
{
name = ogonek;
position = "{459, -10}";
},
{
name = top;
position = "{447, 685}";
},
{
name = topleft;
position = "{20, 650}";
},
{
name = topright;
position = "{617, 564}";
}
);
background = {
paths = (
{
closed = 1;
nodes = (
"749 521 OFFCURVE",
"662 595 OFFCURVE",
"531 614 CURVE",
"540 626 OFFCURVE",
"554 648 OFFCURVE",
"554 667 CURVE SMOOTH",
"554 697 OFFCURVE",
"515 705 OFFCURVE",
"484 705 CURVE SMOOTH",
"389 705 OFFCURVE",
"296 649 OFFCURVE",
"233 588 CURVE",
"203 577 OFFCURVE",
"117 541 OFFCURVE",
"117 525 CURVE SMOOTH",
"117 520 OFFCURVE",
"121 516 OFFCURVE",
"126 516 CURVE SMOOTH",
"131 516 OFFCURVE",
"164 535 OFFCURVE",
"195 549 CURVE",
"104 465 OFFCURVE",
"62 352 OFFCURVE",
"62 248 CURVE SMOOTH",
"62 102 OFFCURVE",
"153 -18 OFFCURVE",
"348 -18 CURVE SMOOTH",
"545 -18 OFFCURVE",
"749 127 OFFCURVE",
"749 371 CURVE SMOOTH"
);
},
{
closed = 1;
nodes = (
"488 620 OFFCURVE",
"460 621 OFFCURVE",
"432 621 CURVE SMOOTH",
"378 621 OFFCURVE",
"324 615 OFFCURVE",
"285 603 CURVE",
"334 642 OFFCURVE",
"420 675 OFFCURVE",
"485 675 CURVE SMOOTH",
"509 675 OFFCURVE",
"523 669 OFFCURVE",
"523 651 CURVE SMOOTH",
"523 642 OFFCURVE",
"520 631 OFFCURVE",
"514 617 CURVE"
);
},
{
closed = 1;
nodes = (
"308 584 OFFCURVE",
"384 597 OFFCURVE",
"459 597 CURVE SMOOTH",
"473 597 OFFCURVE",
"486 597 OFFCURVE",
"500 596 CURVE",
"494 591 OFFCURVE",
"491 584 OFFCURVE",
"491 580 CURVE SMOOTH",
"491 577 OFFCURVE",
"493 576 OFFCURVE",
"496 576 CURVE SMOOTH",
"500 576 OFFCURVE",
"509 580 OFFCURVE",
"521 594 CURVE",
"628 580 OFFCURVE",
"703 485 OFFCURVE",
"703 368 CURVE SMOOTH",
"703 139 OFFCURVE",
"511 6 OFFCURVE",
"355 6 CURVE SMOOTH",
"185 6 OFFCURVE",
"110 126 OFFCURVE",
"110 262 CURVE SMOOTH",
"110 372 OFFCURVE",
"150 492 OFFCURVE",
"253 569 CURVE"
);
}
);
};
hints = (
{
horizontal = 1;
place = "{-18, 24}";
type = Stem;
},
{
horizontal = 1;
place = "{597, 24}";
type = Stem;
},
{
horizontal = 1;
place = "{675, 30}";
type = Stem;
},
{
place = "{62, 48}";
type = Stem;
},
{
place = "{523, 31}";
type = Stem;
},
{
place = "{703, 46}";
type = Stem;
}
);
layerId = "3787E0F5-978F-4E40-B775-08CB0E3B1585";
paths = (
{
closed = 1;
nodes = (
"545 -18 OFFCURVE",
"749 127 OFFCURVE",
"749 371 CURVE SMOOTH",
"749 521 OFFCURVE",
"662 595 OFFCURVE",
"531 614 CURVE",
"540 626 OFFCURVE",
"554 648 OFFCURVE",
"554 667 CURVE SMOOTH",
"554 697 OFFCURVE",
"515 705 OFFCURVE",
"484 705 CURVE SMOOTH",
"389 705 OFFCURVE",
"296 649 OFFCURVE",
"233 588 CURVE",
"203 577 OFFCURVE",
"117 541 OFFCURVE",
"117 525 CURVE SMOOTH",
"117 520 OFFCURVE",
"121 516 OFFCURVE",
"126 516 CURVE SMOOTH",
"131 516 OFFCURVE",
"164 535 OFFCURVE",
"195 549 CURVE",
"104 465 OFFCURVE",
"62 352 OFFCURVE",
"62 248 CURVE SMOOTH",
"62 102 OFFCURVE",
"153 -18 OFFCURVE",
"348 -18 CURVE SMOOTH"
);
},
{
closed = 1;
nodes = (
"185 6 OFFCURVE",
"110 126 OFFCURVE",
"110 262 CURVE SMOOTH",
"110 372 OFFCURVE",
"150 492 OFFCURVE",
"253 569 CURVE",
"308 584 OFFCURVE",
"384 597 OFFCURVE",
"459 597 CURVE SMOOTH",
"473 597 OFFCURVE",
"486 597 OFFCURVE",
"500 596 CURVE",
"494 591 OFFCURVE",
"491 584 OFFCURVE",
"491 580 CURVE SMOOTH",
"491 577 OFFCURVE",
"493 576 OFFCURVE",
"496 576 CURVE SMOOTH",
"500 576 OFFCURVE",
"509 580 OFFCURVE",
"521 594 CURVE",
"628 580 OFFCURVE",
"703 485 OFFCURVE",
"703 368 CURVE SMOOTH",
"703 139 OFFCURVE",
"511 6 OFFCURVE",
"355 6 CURVE SMOOTH"
);
},
{
closed = 1;
nodes = (
"334 642 OFFCURVE",
"420 675 OFFCURVE",
"485 675 CURVE SMOOTH",
"509 675 OFFCURVE",
"523 669 OFFCURVE",
"523 651 CURVE SMOOTH",
"523 642 OFFCURVE",
"520 631 OFFCURVE",
"514 617 CURVE",
"488 620 OFFCURVE",
"460 621 OFFCURVE",
"432 621 CURVE SMOOTH",
"378 621 OFFCURVE",
"324 615 OFFCURVE",
"285 603 CURVE"
);
}
);
width = 796;
}
);
leftKerningGroup = O;
note = O;
rightKerningGroup = O;
unicode = 004F;
},
{
glyphname = Oslash;
lastChange = "2021-04-08 07:25:40 +0000";
layers = (
{
background = {
paths = (
{
closed = 1;
nodes = (
"749 487 OFFCURVE",
"697 557 OFFCURVE",
"613 592 CURVE",
"639 622 OFFCURVE",
"691 672 OFFCURVE",
"691 689 CURVE SMOOTH",
"691 698 OFFCURVE",
"685 707 OFFCURVE",
"677 707 CURVE SMOOTH",
"667 707 OFFCURVE",
"628 664 OFFCURVE",
"576 605 CURVE",
"562 609 OFFCURVE",
"547 611 OFFCURVE",
"531 614 CURVE",
"540 626 OFFCURVE",
"554 648 OFFCURVE",
"554 667 CURVE SMOOTH",
"554 697 OFFCURVE",
"515 705 OFFCURVE",
"484 705 CURVE SMOOTH",
"389 705 OFFCURVE",
"296 649 OFFCURVE",
"233 588 CURVE",
"203 577 OFFCURVE",
"117 541 OFFCURVE",
"117 525 CURVE SMOOTH",
"117 520 OFFCURVE",
"121 516 OFFCURVE",
"126 516 CURVE SMOOTH",
"131 516 OFFCURVE",
"164 535 OFFCURVE",
"195 549 CURVE",
"104 465 OFFCURVE",
"62 352 OFFCURVE",
"62 248 CURVE SMOOTH",
"62 159 OFFCURVE",
"95 80 OFFCURVE",
"165 31 CURVE",
"141 -15 OFFCURVE",
"127 -56 OFFCURVE",
"127 -87 CURVE SMOOTH",
"127 -106 OFFCURVE",
"135 -119 OFFCURVE",
"151 -119 CURVE SMOOTH",
"157 -119 OFFCURVE",
"174 -111 OFFCURVE",
"174 -104 CURVE SMOOTH",
"174 -100 OFFCURVE",
"160 -93 OFFCURVE",
"160 -75 CURVE SMOOTH",
"160 -54 OFFCURVE",
"172 -24 OFFCURVE",
"194 15 CURVE",
"235 -6 OFFCURVE",
"286 -18 OFFCURVE",
"348 -18 CURVE SMOOTH",
"545 -18 OFFCURVE",
"749 127 OFFCURVE",
"749 371 CURVE SMOOTH"
);
},
{
closed = 1;
nodes = (
"660 531 OFFCURVE",
"703 456 OFFCURVE",
"703 368 CURVE SMOOTH",
"703 139 OFFCURVE",
"511 6 OFFCURVE",
"355 6 CURVE SMOOTH",
"296 6 OFFCURVE",
"248 20 OFFCURVE",
"211 45 CURVE",
"292 183 OFFCURVE",
"456 405 OFFCURVE",
"594 569 CURVE"
);
},
{
closed = 1;
nodes = (
"308 584 OFFCURVE",
"384 597 OFFCURVE",
"459 597 CURVE SMOOTH",
"473 597 OFFCURVE",
"486 597 OFFCURVE",
"500 596 CURVE",
"494 591 OFFCURVE",
"491 584 OFFCURVE",
"491 580 CURVE SMOOTH",
"491 577 OFFCURVE",
"493 576 OFFCURVE",
"496 576 CURVE SMOOTH",
"500 576 OFFCURVE",
"509 580 OFFCURVE",
"521 594 CURVE",
"534 592 OFFCURVE",
"547 589 OFFCURVE",
"559 585 CURVE",
"455 465 OFFCURVE",
"276 226 OFFCURVE",
"184 66 CURVE",
"133 114 OFFCURVE",
"110 185 OFFCURVE",
"110 262 CURVE SMOOTH",
"110 372 OFFCURVE",
"150 492 OFFCURVE",
"253 569 CURVE"
);
},
{
closed = 1;
nodes = (
"488 620 OFFCURVE",
"460 621 OFFCURVE",
"432 621 CURVE SMOOTH",
"378 621 OFFCURVE",
"324 615 OFFCURVE",
"285 603 CURVE",
"334 642 OFFCURVE",
"420 675 OFFCURVE",
"485 675 CURVE SMOOTH",
"509 675 OFFCURVE",
"523 669 OFFCURVE",
"523 651 CURVE SMOOTH",
"523 642 OFFCURVE",
"520 631 OFFCURVE",
"514 617 CURVE"
);
}
);
};
hints = (
{
horizontal = 1;
place = "{-70, 28}";
type = Stem;
},
{
horizontal = 1;
place = "{628, 31}";
type = Stem;
}
);
layerId = "3787E0F5-978F-4E40-B775-08CB0E3B1585";
paths = (
{
closed = 1;
nodes = (
"157 -119 OFFCURVE",
"174 -111 OFFCURVE",
"174 -104 CURVE SMOOTH",
"174 -100 OFFCURVE",
"160 -93 OFFCURVE",
"160 -75 CURVE SMOOTH",
"160 -54 OFFCURVE",
"172 -24 OFFCURVE",
"194 15 CURVE",
"235 -6 OFFCURVE",
"286 -18 OFFCURVE",
"348 -18 CURVE SMOOTH",
"545 -18 OFFCURVE",
"749 127 OFFCURVE",
"749 371 CURVE SMOOTH",
"749 487 OFFCURVE",
"697 557 OFFCURVE",
"613 592 CURVE",
"639 622 OFFCURVE",
"691 672 OFFCURVE",
"691 689 CURVE SMOOTH",
"691 698 OFFCURVE",
"685 707 OFFCURVE",
"677 707 CURVE SMOOTH",
"667 707 OFFCURVE",
"628 664 OFFCURVE",
"576 605 CURVE",
"562 609 OFFCURVE",
"547 611 OFFCURVE",
"531 614 CURVE",
"540 626 OFFCURVE",
"554 648 OFFCURVE",
"554 667 CURVE SMOOTH",
"554 697 OFFCURVE",
"515 705 OFFCURVE",
"484 705 CURVE SMOOTH",
"389 705 OFFCURVE",
"296 649 OFFCURVE",
"233 588 CURVE",
"203 577 OFFCURVE",
"117 541 OFFCURVE",
"117 525 CURVE SMOOTH",
"117 520 OFFCURVE",
"121 516 OFFCURVE",
"126 516 CURVE SMOOTH",
"131 516 OFFCURVE",
"164 535 OFFCURVE",
"195 549 CURVE",
"104 465 OFFCURVE",
"62 352 OFFCURVE",
"62 248 CURVE SMOOTH",
"62 159 OFFCURVE",
"95 80 OFFCURVE",
"165 31 CURVE",
"141 -15 OFFCURVE",
"127 -56 OFFCURVE",
"127 -87 CURVE SMOOTH",
"127 -106 OFFCURVE",
"135 -119 OFFCURVE",
"151 -119 CURVE SMOOTH"
);
},
{
closed = 1;
nodes = (
"133 114 OFFCURVE",
"110 185 OFFCURVE",
"110 262 CURVE SMOOTH",
"110 372 OFFCURVE",
"150 492 OFFCURVE",
"253 569 CURVE",
"308 584 OFFCURVE",
"384 597 OFFCURVE",
"459 597 CURVE SMOOTH",
"473 597 OFFCURVE",
"486 597 OFFCURVE",
"500 596 CURVE",
"494 591 OFFCURVE",
"491 584 OFFCURVE",
"491 580 CURVE SMOOTH",
"491 577 OFFCURVE",
"493 576 OFFCURVE",
"496 576 CURVE SMOOTH",
"500 576 OFFCURVE",
"509 580 OFFCURVE",
"521 594 CURVE",
"534 592 OFFCURVE",
"547 589 OFFCURVE",
"559 585 CURVE",
"455 465 OFFCURVE",
"276 226 OFFCURVE",
"184 66 CURVE"
);
},
{
closed = 1;
nodes = (
"296 6 OFFCURVE",
"248 20 OFFCURVE",
"211 45 CURVE",
"292 183 OFFCURVE",
"456 405 OFFCURVE",
"594 569 CURVE",
"660 531 OFFCURVE",
"703 456 OFFCURVE",
"703 368 CURVE SMOOTH",
"703 139 OFFCURVE",
"511 6 OFFCURVE",
"355 6 CURVE SMOOTH"
);
},
{
closed = 1;
nodes = (
"334 642 OFFCURVE",
"420 675 OFFCURVE",
"485 675 CURVE SMOOTH",
"509 675 OFFCURVE",
"523 669 OFFCURVE",
"523 651 CURVE SMOOTH",
"523 642 OFFCURVE",
"520 631 OFFCURVE",
"514 617 CURVE",
"488 620 OFFCURVE",
"460 621 OFFCURVE",
"432 621 CURVE SMOOTH",
"378 621 OFFCURVE",
"324 615 OFFCURVE",
"285 603 CURVE"
);
}
);
width = 782;
}
);
note = Oslash;
unicode = 00D8;
},
{
glyphname = OE;
lastChange = "2021-04-08 07:25:46 +0000";
layers = (
{
background = {
paths = (
{
closed = 1;
nodes = (
"980 635 OFFCURVE",
"924 634 OFFCURVE",
"883 634 CURVE SMOOTH",
"799 634 OFFCURVE",
"772 635 OFFCURVE",
"759 635 CURVE",
"764 648 OFFCURVE",
"778 673 OFFCURVE",
"778 682 CURVE SMOOTH",
"778 689 OFFCURVE",
"771 692 OFFCURVE",
"763 692 CURVE SMOOTH",
"728 692 OFFCURVE",
"710 680 OFFCURVE",
"702 634 CURVE",
"663 634 LINE SMOOTH",
"640 634 OFFCURVE",
"621 624 OFFCURVE",
"621 618 CURVE SMOOTH",
"621 614 OFFCURVE",
"627 611 OFFCURVE",
"643 610 CURVE SMOOTH",
"696 610 LINE",
"691 591 OFFCURVE",
"686 566 OFFCURVE",
"682 537 CURVE",
"645 577 OFFCURVE",
"594 605 OFFCURVE",
"531 614 CURVE",
"540 626 OFFCURVE",
"554 648 OFFCURVE",
"554 667 CURVE SMOOTH",
"554 697 OFFCURVE",
"515 705 OFFCURVE",
"484 705 CURVE SMOOTH",
"389 705 OFFCURVE",
"296 649 OFFCURVE",
"233 588 CURVE",
"203 577 OFFCURVE",
"117 541 OFFCURVE",
"117 525 CURVE SMOOTH",
"117 520 OFFCURVE",
"121 516 OFFCURVE",
"126 516 CURVE SMOOTH",
"131 516 OFFCURVE",
"164 535 OFFCURVE",
"195 549 CURVE",
"104 465 OFFCURVE",
"62 352 OFFCURVE",
"62 248 CURVE SMOOTH",
"62 102 OFFCURVE",
"153 -18 OFFCURVE",
"348 -18 CURVE SMOOTH",
"452 -18 OFFCURVE",
"559 22 OFFCURVE",
"636 97 CURVE",
"635 80 OFFCURVE",
"634 64 OFFCURVE",
"634 51 CURVE SMOOTH",
"634 45 OFFCURVE",
"635 40 OFFCURVE",
"635 36 CURVE",
"619 33 OFFCURVE",
"595 13 OFFCURVE",
"595 4 CURVE SMOOTH",
"595 -3 OFFCURVE",
"843 -1 OFFCURVE",
"895 -1 CURVE SMOOTH",
"943 -1 OFFCURVE",
"990 0 OFFCURVE",
"1034 0 CURVE SMOOTH",
"1055 0 OFFCURVE",
"1064 23 OFFCURVE",
"1064 36 CURVE SMOOTH",
"1064 42 OFFCURVE",
"1063 46 OFFCURVE",
"1060 46 CURVE SMOOTH",
"1059 46 LINE",
"1024 35 OFFCURVE",
"973 30 OFFCURVE",
"944 30 CURVE SMOOTH",
"810 30 OFFCURVE",
"732 31 OFFCURVE",
"684 31 CURVE",
"681 50 OFFCURVE",
"679 77 OFFCURVE",
"679 106 CURVE SMOOTH",
"679 172 OFFCURVE",
"686 252 OFFCURVE",
"691 300 CURVE",
"949 300 LINE",
"975 304 OFFCURVE",
"987 320 OFFCURVE",
"987 328 CURVE SMOOTH",
"987 332 OFFCURVE",
"985 334 OFFCURVE",
"981 334 CURVE SMOOTH",
"941 332 OFFCURVE",
"774 331 OFFCURVE",
"695 331 CURVE",
"704 403 OFFCURVE",
"728 534 OFFCURVE",
"749 605 CURVE",
"808 604 OFFCURVE",
"837 603 OFFCURVE",
"872 603 CURVE SMOOTH",
"886 603 OFFCURVE",
"901 604 OFFCURVE",
"919 604 CURVE SMOOTH",
"941 604 OFFCURVE",
"987 604 OFFCURVE",
"1004 602 CURVE SMOOTH",
"1023 600 OFFCURVE",
"1028 576 OFFCURVE",
"1038 576 CURVE SMOOTH",
"1052 576 OFFCURVE",
"1069 606 OFFCURVE",
"1069 620 CURVE SMOOTH",
"1069 628 OFFCURVE",
"1065 635 OFFCURVE",
"1054 635 CURVE SMOOTH"
);
},
{
closed = 1;
nodes = (
"308 584 OFFCURVE",
"384 597 OFFCURVE",
"459 597 CURVE SMOOTH",
"473 597 OFFCURVE",
"486 597 OFFCURVE",
"500 596 CURVE",
"494 591 OFFCURVE",
"491 584 OFFCURVE",
"491 580 CURVE SMOOTH",
"491 577 OFFCURVE",
"493 576 OFFCURVE",
"496 576 CURVE SMOOTH",
"500 576 OFFCURVE",
"509 580 OFFCURVE",
"521 594 CURVE",
"589 585 OFFCURVE",
"643 543 OFFCURVE",
"674 485 CURVE",
"659 380 OFFCURVE",
"646 248 OFFCURVE",
"639 148 CURVE",
"582 68 OFFCURVE",
"452 6 OFFCURVE",
"355 6 CURVE SMOOTH",
"185 6 OFFCURVE",
"110 126 OFFCURVE",
"110 262 CURVE SMOOTH",
"110 372 OFFCURVE",
"150 492 OFFCURVE",
"253 569 CURVE"
);
},
{
closed = 1;
nodes = (
"488 620 OFFCURVE",
"460 621 OFFCURVE",
"432 621 CURVE SMOOTH",
"378 621 OFFCURVE",
"324 615 OFFCURVE",
"285 603 CURVE",
"334 642 OFFCURVE",
"420 675 OFFCURVE",
"485 675 CURVE SMOOTH",
"509 675 OFFCURVE",
"523 669 OFFCURVE",
"523 651 CURVE SMOOTH",
"523 642 OFFCURVE",
"520 631 OFFCURVE",
"514 617 CURVE"
);
}
);
};
hints = (
{
horizontal = 1;
place = "{662, -20}";
target = down;
type = TopGhost;
}
);
layerId = "3787E0F5-978F-4E40-B775-08CB0E3B1585";
paths = (
{
closed = 1;
nodes = (
"452 -18 OFFCURVE",
"559 22 OFFCURVE",
"636 97 CURVE",
"635 80 OFFCURVE",
"634 64 OFFCURVE",
"634 51 CURVE SMOOTH",
"634 45 OFFCURVE",
"635 40 OFFCURVE",
"635 36 CURVE",
"619 33 OFFCURVE",
"595 13 OFFCURVE",
"595 4 CURVE SMOOTH",
"595 0 OFFCURVE",
"695 -1 OFFCURVE",
"782 -1 CURVE SMOOTH",
"831 -1 OFFCURVE",
"876 -1 OFFCURVE",
"895 -1 CURVE SMOOTH",
"943 -1 OFFCURVE",
"990 0 OFFCURVE",
"1034 0 CURVE SMOOTH",
"1055 0 OFFCURVE",
"1064 23 OFFCURVE",
"1064 36 CURVE SMOOTH",
"1064 42 OFFCURVE",
"1063 46 OFFCURVE",
"1060 46 CURVE SMOOTH",
"1059 46 LINE",
"1024 35 OFFCURVE",
"973 30 OFFCURVE",
"944 30 CURVE SMOOTH",
"810 30 OFFCURVE",
"732 31 OFFCURVE",
"684 31 CURVE",
"681 50 OFFCURVE",
"679 77 OFFCURVE",
"679 106 CURVE SMOOTH",
"679 172 OFFCURVE",
"686 252 OFFCURVE",
"691 300 CURVE",
"949 300 LINE",
"975 304 OFFCURVE",
"987 320 OFFCURVE",
"987 328 CURVE SMOOTH",
"987 332 OFFCURVE",
"985 334 OFFCURVE",
"981 334 CURVE SMOOTH",
"941 332 OFFCURVE",
"774 331 OFFCURVE",
"695 331 CURVE",
"704 403 OFFCURVE",
"728 534 OFFCURVE",
"749 605 CURVE",
"808 604 OFFCURVE",
"837 603 OFFCURVE",
"872 603 CURVE SMOOTH",
"886 603 OFFCURVE",
"901 604 OFFCURVE",
"919 604 CURVE SMOOTH",
"941 604 OFFCURVE",
"987 604 OFFCURVE",
"1004 602 CURVE SMOOTH",
"1023 600 OFFCURVE",
"1028 576 OFFCURVE",
"1038 576 CURVE SMOOTH",
"1052 576 OFFCURVE",
"1069 606 OFFCURVE",
"1069 620 CURVE SMOOTH",
"1069 628 OFFCURVE",
"1065 635 OFFCURVE",
"1054 635 CURVE SMOOTH",
"980 635 OFFCURVE",
"924 634 OFFCURVE",
"883 634 CURVE SMOOTH",
"799 634 OFFCURVE",
"772 635 OFFCURVE",
"759 635 CURVE",
"764 648 OFFCURVE",
"778 673 OFFCURVE",
"778 682 CURVE SMOOTH",
"778 689 OFFCURVE",
"771 692 OFFCURVE",
"763 692 CURVE SMOOTH",
"728 692 OFFCURVE",
"710 680 OFFCURVE",
"702 634 CURVE",
"663 634 LINE SMOOTH",
"640 634 OFFCURVE",
"621 624 OFFCURVE",
"621 618 CURVE SMOOTH",
"621 614 OFFCURVE",
"627 611 OFFCURVE",
"643 610 CURVE SMOOTH",
"696 610 LINE",
"691 591 OFFCURVE",
"686 566 OFFCURVE",
"682 537 CURVE",
"645 577 OFFCURVE",
"594 605 OFFCURVE",
"531 614 CURVE",
"540 626 OFFCURVE",
"554 648 OFFCURVE",
"554 667 CURVE SMOOTH",
"554 697 OFFCURVE",
"515 705 OFFCURVE",
"484 705 CURVE SMOOTH",
"389 705 OFFCURVE",
"296 649 OFFCURVE",
"233 588 CURVE",
"203 577 OFFCURVE",
"117 541 OFFCURVE",
"117 525 CURVE SMOOTH",
"117 520 OFFCURVE",
"121 516 OFFCURVE",
"126 516 CURVE SMOOTH",
"131 516 OFFCURVE",
"164 535 OFFCURVE",
"195 549 CURVE",
"104 465 OFFCURVE",
"62 352 OFFCURVE",
"62 248 CURVE SMOOTH",
"62 102 OFFCURVE",
"153 -18 OFFCURVE",
"348 -18 CURVE SMOOTH"
);
},
{
closed = 1;
nodes = (
"185 6 OFFCURVE",
"110 126 OFFCURVE",
"110 262 CURVE SMOOTH",
"110 372 OFFCURVE",
"150 492 OFFCURVE",
"253 569 CURVE",
"308 584 OFFCURVE",
"384 597 OFFCURVE",
"459 597 CURVE SMOOTH",
"473 597 OFFCURVE",
"486 597 OFFCURVE",
"500 596 CURVE",
"494 591 OFFCURVE",
"491 584 OFFCURVE",
"491 580 CURVE SMOOTH",
"491 577 OFFCURVE",
"493 576 OFFCURVE",
"496 576 CURVE SMOOTH",
"500 576 OFFCURVE",
"509 580 OFFCURVE",
"521 594 CURVE",
"589 585 OFFCURVE",
"643 543 OFFCURVE",
"674 485 CURVE",
"659 380 OFFCURVE",
"646 248 OFFCURVE",
"639 148 CURVE",
"582 68 OFFCURVE",
"452 6 OFFCURVE",
"355 6 CURVE SMOOTH"
);
},
{
closed = 1;
nodes = (
"334 642 OFFCURVE",
"420 675 OFFCURVE",
"485 675 CURVE SMOOTH",
"509 675 OFFCURVE",
"523 669 OFFCURVE",
"523 651 CURVE SMOOTH",
"523 642 OFFCURVE",
"520 631 OFFCURVE",
"514 617 CURVE",
"488 620 OFFCURVE",
"460 621 OFFCURVE",
"432 621 CURVE SMOOTH",
"378 621 OFFCURVE",
"324 615 OFFCURVE",
"285 603 CURVE"
);
}
);
width = 1102;
}
);
leftKerningGroup = O;
note = OE;
unicode = 0152;
},
{
glyphname = P;
lastChange = "2021-04-08 07:25:40 +0000";
layers = (
{
background = {
paths = (
{
closed = 1;
nodes = (
"122 12 OFFCURVE",
"127 10 OFFCURVE",
"127 17 CURVE SMOOTH",
"127 15 OFFCURVE",
"121 41 OFFCURVE",
"121 74 CURVE SMOOTH",
"121 155 OFFCURVE",
"129 249 OFFCURVE",
"135 283 CURVE",
"141 280 OFFCURVE",
"165 278 OFFCURVE",
"197 278 CURVE SMOOTH",
"239 278 OFFCURVE",
"294 283 OFFCURVE",
"340 299 CURVE SMOOTH",
"403 321 OFFCURVE",
"498 402 OFFCURVE",
"498 493 CURVE SMOOTH",
"498 616 OFFCURVE",
"310 641 OFFCURVE",
"223 649 CURVE",
"228 665 OFFCURVE",
"232 664 OFFCURVE",
"239 680 CURVE",
"239 689 OFFCURVE",
"232 692 OFFCURVE",
"223 692 CURVE SMOOTH",
"189 692 OFFCURVE",
"164 676 OFFCURVE",
"160 653 CURVE",
"128 653 OFFCURVE",
"87 649 OFFCURVE",
"87 636 CURVE SMOOTH",
"87 632 OFFCURVE",
"93 629 OFFCURVE",
"109 628 CURVE SMOOTH",
"120 628 OFFCURVE",
"135 630 OFFCURVE",
"148 630 CURVE SMOOTH",
"154 630 LINE",
"151 621 OFFCURVE",
"146 597 OFFCURVE",
"146 589 CURVE SMOOTH",
"146 583 OFFCURVE",
"149 581 OFFCURVE",
"149 576 CURVE SMOOTH",
"149 574 LINE",
"118 427 OFFCURVE",
"77 105 OFFCURVE",
"77 14 CURVE SMOOTH",
"77 1 OFFCURVE",
"84 -2 OFFCURVE",
"99 -2 CURVE SMOOTH",
"108 -2 OFFCURVE",
"118 1 OFFCURVE",
"121 8 CURVE SMOOTH"
);
},
{
closed = 1;
nodes = (
"454 581 OFFCURVE",
"454 487 CURVE SMOOTH",
"454 381 OFFCURVE",
"334 313 OFFCURVE",
"256 305 CURVE SMOOTH",
"242 303 OFFCURVE",
"223 303 OFFCURVE",
"204 303 CURVE SMOOTH",
"174 303 OFFCURVE",
"145 305 OFFCURVE",
"141 309 CURVE",
"147 368 OFFCURVE",
"190 577 OFFCURVE",
"215 626 CURVE",
"299 617 OFFCURVE"
);
}
);
};
hints = (
{
horizontal = 1;
place = "{-2, 21}";
target = up;
type = BottomGhost;
},
{
horizontal = 1;
place = "{278, 25}";
type = Stem;
},
{
horizontal = 1;
place = "{628, 64}";
type = Stem;
},
{
place = "{77, 44}";
type = Stem;
},
{
place = "{454, 44}";
type = Stem;
}
);
layerId = "3787E0F5-978F-4E40-B775-08CB0E3B1585";
paths = (
{
closed = 1;
nodes = (
"108 -2 OFFCURVE",
"118 1 OFFCURVE",
"121 8 CURVE SMOOTH",
"122 12 OFFCURVE",
"127 10 OFFCURVE",
"127 17 CURVE SMOOTH",
"127 15 OFFCURVE",
"121 41 OFFCURVE",
"121 74 CURVE SMOOTH",
"121 155 OFFCURVE",
"129 249 OFFCURVE",
"135 283 CURVE",
"141 280 OFFCURVE",
"165 278 OFFCURVE",
"197 278 CURVE SMOOTH",
"239 278 OFFCURVE",
"294 283 OFFCURVE",
"340 299 CURVE SMOOTH",
"403 321 OFFCURVE",
"498 402 OFFCURVE",
"498 493 CURVE SMOOTH",
"498 616 OFFCURVE",
"310 641 OFFCURVE",
"223 649 CURVE",
"228 665 OFFCURVE",
"232 664 OFFCURVE",
"239 680 CURVE",
"239 689 OFFCURVE",
"232 692 OFFCURVE",
"223 692 CURVE SMOOTH",
"189 692 OFFCURVE",
"164 676 OFFCURVE",
"160 653 CURVE",
"128 653 OFFCURVE",
"87 649 OFFCURVE",
"87 636 CURVE SMOOTH",
"87 632 OFFCURVE",
"93 629 OFFCURVE",
"109 628 CURVE SMOOTH",
"120 628 OFFCURVE",
"135 630 OFFCURVE",
"148 630 CURVE SMOOTH",
"154 630 LINE",
"151 621 OFFCURVE",
"146 597 OFFCURVE",
"146 589 CURVE SMOOTH",
"146 583 OFFCURVE",
"149 581 OFFCURVE",
"149 576 CURVE SMOOTH",
"149 574 LINE",
"118 427 OFFCURVE",
"77 105 OFFCURVE",
"77 14 CURVE SMOOTH",
"77 1 OFFCURVE",
"84 -2 OFFCURVE",
"99 -2 CURVE SMOOTH"
);
},
{
closed = 1;
nodes = (
"174 303 OFFCURVE",
"145 305 OFFCURVE",
"141 309 CURVE",
"147 368 OFFCURVE",
"190 577 OFFCURVE",
"215 626 CURVE",
"299 617 OFFCURVE",
"454 581 OFFCURVE",
"454 487 CURVE SMOOTH",
"454 381 OFFCURVE",
"334 313 OFFCURVE",
"256 305 CURVE SMOOTH",
"242 303 OFFCURVE",
"223 303 OFFCURVE",
"204 303 CURVE SMOOTH"
);
}
);
width = 523;
}
);
note = P;
unicode = 0050;
},
{
glyphname = Thorn;
lastChange = "2021-04-08 07:25:40 +0000";
layers = (
{
background = {
paths = (
{
closed = 1;
nodes = (
"278 674 LINE SMOOTH",
"282 683 OFFCURVE",
"284 691 OFFCURVE",
"284 697 CURVE SMOOTH",
"284 711 OFFCURVE",
"276 717 OFFCURVE",
"266 717 CURVE SMOOTH",
"259 717 OFFCURVE",
"250 713 OFFCURVE",
"243 706 CURVE SMOOTH",
"231 694 OFFCURVE",
"232 701 OFFCURVE",
"187 580 CURVE",
"186 575 OFFCURVE",
"145 571 OFFCURVE",
"145 552 CURVE SMOOTH",
"145 541 OFFCURVE",
"175 544 OFFCURVE",
"175 540 CURVE",
"166 505 OFFCURVE",
"103 309 OFFCURVE",
"69 205 CURVE",
"48 192 OFFCURVE",
"39 173 OFFCURVE",
"39 155 CURVE SMOOTH",
"39 147 OFFCURVE",
"41 139 OFFCURVE",
"44 132 CURVE",
"11 40 OFFCURVE",
"-64 -172 OFFCURVE",
"-64 -218 CURVE SMOOTH",
"-64 -243 OFFCURVE",
"-50 -253 OFFCURVE",
"-36 -253 CURVE SMOOTH",
"-3 -253 OFFCURVE",
"8 -213 OFFCURVE",
"8 -201 CURVE SMOOTH",
"8 -188 OFFCURVE",
"1 -180 OFFCURVE",
"1 -165 CURVE SMOOTH",
"1 -138 OFFCURVE",
"39 19 OFFCURVE",
"77 94 CURVE",
"106 70 OFFCURVE",
"150 61 OFFCURVE",
"190 61 CURVE SMOOTH",
"311 61 OFFCURVE",
"390 147 OFFCURVE",
"390 269 CURVE SMOOTH",
"390 412 OFFCURVE",
"316 535 OFFCURVE",
"240 583 CURVE"
);
},
{
closed = 1;
nodes = (
"332 311 OFFCURVE",
"333 293 OFFCURVE",
"333 275 CURVE SMOOTH",
"333 181 OFFCURVE",
"292 87 OFFCURVE",
"189 87 CURVE SMOOTH",
"156 87 OFFCURVE",
"120 97 OFFCURVE",
"94 124 CURVE",
"163 353 OFFCURVE",
"207 486 OFFCURVE",
"227 531 CURVE",
"249 512 OFFCURVE",
"310 456 OFFCURVE",
"329 329 CURVE SMOOTH"
);
}
);
};
hints = (
{
place = "{-65, 49}";
type = Stem;
},
{
place = "{139, 54}";
type = Stem;
}
);
layerId = "3787E0F5-978F-4E40-B775-08CB0E3B1585";
paths = (
{
closed = 1;
nodes = (
"-3 -253 OFFCURVE",
"8 -213 OFFCURVE",
"8 -201 CURVE SMOOTH",
"8 -188 OFFCURVE",
"1 -180 OFFCURVE",
"1 -165 CURVE SMOOTH",
"1 -138 OFFCURVE",
"39 19 OFFCURVE",
"77 94 CURVE",
"106 70 OFFCURVE",
"150 61 OFFCURVE",
"190 61 CURVE SMOOTH",
"311 61 OFFCURVE",
"390 147 OFFCURVE",
"390 269 CURVE SMOOTH",
"390 412 OFFCURVE",
"316 535 OFFCURVE",
"240 583 CURVE",
"278 674 LINE SMOOTH",
"282 683 OFFCURVE",
"284 691 OFFCURVE",
"284 697 CURVE SMOOTH",
"284 711 OFFCURVE",
"276 717 OFFCURVE",
"266 717 CURVE SMOOTH",
"259 717 OFFCURVE",
"250 713 OFFCURVE",
"243 706 CURVE SMOOTH",
"231 694 OFFCURVE",
"232 701 OFFCURVE",
"187 580 CURVE",
"186 575 OFFCURVE",
"145 571 OFFCURVE",
"145 552 CURVE SMOOTH",
"145 541 OFFCURVE",
"175 544 OFFCURVE",
"175 540 CURVE",
"166 505 OFFCURVE",
"103 309 OFFCURVE",
"69 205 CURVE",
"48 192 OFFCURVE",
"39 173 OFFCURVE",
"39 155 CURVE SMOOTH",
"39 147 OFFCURVE",
"41 139 OFFCURVE",
"44 132 CURVE",
"11 40 OFFCURVE",
"-64 -172 OFFCURVE",
"-64 -218 CURVE SMOOTH",
"-64 -243 OFFCURVE",
"-50 -253 OFFCURVE",
"-36 -253 CURVE SMOOTH"
);
},
{
closed = 1;
nodes = (
"156 87 OFFCURVE",
"120 97 OFFCURVE",
"94 124 CURVE",
"163 353 OFFCURVE",
"207 486 OFFCURVE",
"227 531 CURVE",
"249 512 OFFCURVE",
"310 456 OFFCURVE",
"329 329 CURVE SMOOTH",
"332 311 OFFCURVE",
"333 293 OFFCURVE",
"333 275 CURVE SMOOTH",
"333 181 OFFCURVE",
"292 87 OFFCURVE",
"189 87 CURVE SMOOTH"
);
}
);
width = 298;
}
);
note = Thorn;
unicode = 00DE;
},
{
glyphname = Q;
lastChange = "2021-04-08 07:25:40 +0000";
layers = (
{
background = {
paths = (
{
closed = 1;
nodes = (
"749 521 OFFCURVE",
"662 595 OFFCURVE",
"531 614 CURVE",
"540 626 OFFCURVE",
"554 648 OFFCURVE",
"554 667 CURVE SMOOTH",
"554 697 OFFCURVE",
"515 705 OFFCURVE",
"484 705 CURVE SMOOTH",
"389 705 OFFCURVE",
"296 649 OFFCURVE",
"233 588 CURVE",
"203 577 OFFCURVE",
"117 541 OFFCURVE",
"117 525 CURVE SMOOTH",
"117 520 OFFCURVE",
"121 516 OFFCURVE",
"126 516 CURVE SMOOTH",
"131 516 OFFCURVE",
"164 535 OFFCURVE",
"195 549 CURVE",
"104 465 OFFCURVE",
"62 352 OFFCURVE",
"62 248 CURVE SMOOTH",
"62 102 OFFCURVE",
"153 -18 OFFCURVE",
"348 -18 CURVE SMOOTH",
"373 -18 OFFCURVE",
"399 -15 OFFCURVE",
"424 -11 CURVE",
"490 -113 OFFCURVE",
"548 -242 OFFCURVE",
"656 -242 CURVE SMOOTH",
"704 -242 OFFCURVE",
"768 -211 OFFCURVE",
"768 -133 CURVE SMOOTH",
"768 -126 OFFCURVE",
"767 -117 OFFCURVE",
"763 -117 CURVE SMOOTH",
"751 -117 OFFCURVE",
"749 -214 OFFCURVE",
"680 -214 CURVE SMOOTH",
"590 -214 OFFCURVE",
"511 -83 OFFCURVE",
"460 -2 CURVE",
"615 41 OFFCURVE",
"749 173 OFFCURVE",
"749 371 CURVE SMOOTH"
);
},
{
closed = 1;
nodes = (
"308 584 OFFCURVE",
"384 597 OFFCURVE",
"459 597 CURVE SMOOTH",
"473 597 OFFCURVE",
"486 597 OFFCURVE",
"500 596 CURVE",
"494 591 OFFCURVE",
"491 584 OFFCURVE",
"491 580 CURVE SMOOTH",
"491 577 OFFCURVE",
"493 576 OFFCURVE",
"496 576 CURVE SMOOTH",
"500 576 OFFCURVE",
"509 580 OFFCURVE",
"521 594 CURVE",
"628 580 OFFCURVE",
"703 485 OFFCURVE",
"703 368 CURVE SMOOTH",
"703 182 OFFCURVE",
"577 60 OFFCURVE",
"446 20 CURVE",
"405 80 OFFCURVE",
"354 152 OFFCURVE",
"298 152 CURVE SMOOTH",
"266 152 OFFCURVE",
"219 119 OFFCURVE",
"219 91 CURVE SMOOTH",
"219 90 OFFCURVE",
"220 89 OFFCURVE",
"221 89 CURVE SMOOTH",
"237 89 OFFCURVE",
"245 124 OFFCURVE",
"273 124 CURVE SMOOTH",
"321 124 OFFCURVE",
"371 66 OFFCURVE",
"410 11 CURVE",
"391 7 OFFCURVE",
"373 6 OFFCURVE",
"355 6 CURVE SMOOTH",
"185 6 OFFCURVE",
"110 126 OFFCURVE",
"110 262 CURVE SMOOTH",
"110 372 OFFCURVE",
"150 492 OFFCURVE",
"253 569 CURVE"
);
},
{
closed = 1;
nodes = (
"488 620 OFFCURVE",
"460 621 OFFCURVE",
"432 621 CURVE SMOOTH",
"378 621 OFFCURVE",
"324 615 OFFCURVE",
"285 603 CURVE",
"334 642 OFFCURVE",
"420 675 OFFCURVE",
"485 675 CURVE SMOOTH",
"509 675 OFFCURVE",
"523 669 OFFCURVE",
"523 651 CURVE SMOOTH",
"523 642 OFFCURVE",
"520 631 OFFCURVE",
"514 617 CURVE"
);
}
);
};
hints = (
{
horizontal = 1;
place = "{-242, 28}";
type = Stem;
},
{
horizontal = 1;
place = "{-18, 24}";
type = Stem;
},
{
horizontal = 1;
place = "{124, 28}";
type = Stem;
},
{
horizontal = 1;
place = "{597, 24}";
type = Stem;
},
{
horizontal = 1;
place = "{675, 30}";
type = Stem;
},
{
place = "{62, 48}";
type = Stem;
},
{
place = "{523, 31}";
type = Stem;
},
{
place = "{703, 46}";
type = Stem;
}
);
layerId = "3787E0F5-978F-4E40-B775-08CB0E3B1585";
paths = (
{
closed = 1;
nodes = (
"704 -242 OFFCURVE",
"768 -211 OFFCURVE",
"768 -133 CURVE SMOOTH",
"768 -126 OFFCURVE",
"767 -117 OFFCURVE",
"763 -117 CURVE SMOOTH",
"751 -117 OFFCURVE",
"749 -214 OFFCURVE",
"680 -214 CURVE SMOOTH",
"590 -214 OFFCURVE",
"511 -83 OFFCURVE",
"460 -2 CURVE",
"615 41 OFFCURVE",
"749 173 OFFCURVE",
"749 371 CURVE SMOOTH",
"749 521 OFFCURVE",
"662 595 OFFCURVE",
"531 614 CURVE",
"540 626 OFFCURVE",
"554 648 OFFCURVE",
"554 667 CURVE SMOOTH",
"554 697 OFFCURVE",
"515 705 OFFCURVE",
"484 705 CURVE SMOOTH",
"389 705 OFFCURVE",
"296 649 OFFCURVE",
"233 588 CURVE",
"203 577 OFFCURVE",
"117 541 OFFCURVE",
"117 525 CURVE SMOOTH",
"117 520 OFFCURVE",
"121 516 OFFCURVE",
"126 516 CURVE SMOOTH",
"131 516 OFFCURVE",
"164 535 OFFCURVE",
"195 549 CURVE",
"104 465 OFFCURVE",
"62 352 OFFCURVE",
"62 248 CURVE SMOOTH",
"62 102 OFFCURVE",
"153 -18 OFFCURVE",
"348 -18 CURVE SMOOTH",
"373 -18 OFFCURVE",
"399 -15 OFFCURVE",
"424 -11 CURVE",
"490 -113 OFFCURVE",
"548 -242 OFFCURVE",
"656 -242 CURVE SMOOTH"
);
},
{
closed = 1;
nodes = (
"185 6 OFFCURVE",
"110 126 OFFCURVE",
"110 262 CURVE SMOOTH",
"110 372 OFFCURVE",
"150 492 OFFCURVE",
"253 569 CURVE",
"308 584 OFFCURVE",
"384 597 OFFCURVE",
"459 597 CURVE SMOOTH",
"473 597 OFFCURVE",
"486 597 OFFCURVE",
"500 596 CURVE",
"494 591 OFFCURVE",
"491 584 OFFCURVE",
"491 580 CURVE SMOOTH",
"491 577 OFFCURVE",
"493 576 OFFCURVE",
"496 576 CURVE SMOOTH",
"500 576 OFFCURVE",
"509 580 OFFCURVE",
"521 594 CURVE",
"628 580 OFFCURVE",
"703 485 OFFCURVE",
"703 368 CURVE SMOOTH",
"703 182 OFFCURVE",
"577 60 OFFCURVE",
"446 20 CURVE",
"405 80 OFFCURVE",
"354 152 OFFCURVE",
"298 152 CURVE SMOOTH",
"266 152 OFFCURVE",
"219 119 OFFCURVE",
"219 91 CURVE SMOOTH",
"219 90 OFFCURVE",
"220 89 OFFCURVE",
"221 89 CURVE SMOOTH",
"237 89 OFFCURVE",
"245 124 OFFCURVE",
"273 124 CURVE SMOOTH",
"321 124 OFFCURVE",
"371 66 OFFCURVE",
"410 11 CURVE",
"391 7 OFFCURVE",
"373 6 OFFCURVE",
"355 6 CURVE SMOOTH"
);
},
{
closed = 1;
nodes = (
"334 642 OFFCURVE",
"420 675 OFFCURVE",
"485 675 CURVE SMOOTH",
"509 675 OFFCURVE",
"523 669 OFFCURVE",
"523 651 CURVE SMOOTH",
"523 642 OFFCURVE",
"520 631 OFFCURVE",
"514 617 CURVE",
"488 620 OFFCURVE",
"460 621 OFFCURVE",
"432 621 CURVE SMOOTH",
"378 621 OFFCURVE",
"324 615 OFFCURVE",
"285 603 CURVE"
);
}
);
width = 796;
}
);
leftKerningGroup = O;
note = Q;
rightKerningGroup = O;
unicode = 0051;
},
{
glyphname = R;
lastChange = "2021-04-08 07:25:46 +0000";
layers = (
{
anchors = (
{
name = bottom;
position = "{292, 0}";
},
{
name = top;
position = "{334, 650}";
}
);
background = {
paths = (
{
closed = 1;
nodes = (
"122 12 OFFCURVE",
"127 10 OFFCURVE",
"127 17 CURVE SMOOTH",
"127 15 OFFCURVE",
"121 41 OFFCURVE",
"121 74 CURVE SMOOTH",
"121 136 OFFCURVE",
"125 205 OFFCURVE",
"130 249 CURVE",
"158 224 LINE",
"257 119 OFFCURVE",
"396 -26 OFFCURVE",
"471 -26 CURVE SMOOTH",
"509 -26 OFFCURVE",
"564 12 OFFCURVE",
"564 110 CURVE SMOOTH",
"564 129 OFFCURVE",
"565 171 OFFCURVE",
"544 171 CURVE SMOOTH",
"539 171 OFFCURVE",
"535 167 OFFCURVE",
"535 155 CURVE SMOOTH",
"535 143 OFFCURVE",
"538 128 OFFCURVE",
"538 110 CURVE SMOOTH",
"538 60 OFFCURVE",
"528 6 OFFCURVE",
"490 6 CURVE",
"405 13 OFFCURVE",
"265 169 OFFCURVE",
"173 259 CURVE SMOOTH",
"166 266 OFFCURVE",
"163 270 OFFCURVE",
"163 274 CURVE SMOOTH",
"163 278 OFFCURVE",
"168 279 OFFCURVE",
"180 279 CURVE SMOOTH",
"191 279 LINE SMOOTH",
"234 279 OFFCURVE",
"295 284 OFFCURVE",
"356 308 CURVE SMOOTH",
"418 332 OFFCURVE",
"501 409 OFFCURVE",
"501 489 CURVE SMOOTH",
"501 614 OFFCURVE",
"312 639 OFFCURVE",
"225 647 CURVE",
"230 663 OFFCURVE",
"232 664 OFFCURVE",
"239 680 CURVE",
"239 689 OFFCURVE",
"232 692 OFFCURVE",
"223 692 CURVE SMOOTH",
"188 692 OFFCURVE",
"167 676 OFFCURVE",
"162 651 CURVE",
"130 651 OFFCURVE",
"89 647 OFFCURVE",
"89 634 CURVE SMOOTH",
"89 630 OFFCURVE",
"95 627 OFFCURVE",
"111 626 CURVE SMOOTH",
"122 626 OFFCURVE",
"137 628 OFFCURVE",
"150 628 CURVE SMOOTH",
"156 628 LINE",
"153 619 OFFCURVE",
"148 595 OFFCURVE",
"148 587 CURVE SMOOTH",
"148 581 OFFCURVE",
"151 579 OFFCURVE",
"151 574 CURVE SMOOTH",
"151 572 LINE",
"137 509 OFFCURVE",
"116 402 OFFCURVE",
"105 311 CURVE",
"94 311 OFFCURVE",
"86 313 OFFCURVE",
"82 317 CURVE",
"78 317 OFFCURVE",
"76 315 OFFCURVE",
"76 313 CURVE SMOOTH",
"76 306 OFFCURVE",
"87 293 OFFCURVE",
"101 278 CURVE",
"87 169 OFFCURVE",
"77 62 OFFCURVE",
"77 14 CURVE SMOOTH",
"77 1 OFFCURVE",
"84 -2 OFFCURVE",
"99 -2 CURVE SMOOTH",
"108 -2 OFFCURVE",
"118 1 OFFCURVE",
"121 8 CURVE SMOOTH"
);
},
{
closed = 1;
nodes = (
"456 498 OFFCURVE",
"456 489 OFFCURVE",
"456 481 CURVE SMOOTH",
"456 380 OFFCURVE",
"334 313 OFFCURVE",
"256 305 CURVE SMOOTH",
"242 303 OFFCURVE",
"223 303 OFFCURVE",
"204 303 CURVE SMOOTH",
"174 303 OFFCURVE",
"145 305 OFFCURVE",
"141 309 CURVE",
"147 368 OFFCURVE",
"192 575 OFFCURVE",
"217 624 CURVE",
"218 624 LINE SMOOTH",
"284 617 OFFCURVE",
"428 587 OFFCURVE",
"454 507 CURVE"
);
}
);
};
hints = (
{
horizontal = 1;
place = "{-26, 197}";
type = Stem;
},
{
horizontal = 1;
place = "{279, 24}";
type = Stem;
},
{
horizontal = 1;
place = "{626, 66}";
type = Stem;
},
{
place = "{77, 44}";
type = Stem;
},
{
place = "{456, 45}";
type = Stem;
},
{
place = "{538, 26}";
type = Stem;
},
{
horizontal = 1;
place = "{-26, 32}";
type = Stem;
},
{
horizontal = 1;
place = "{-2, 21}";
target = up;
type = BottomGhost;
}
);
layerId = "3787E0F5-978F-4E40-B775-08CB0E3B1585";
paths = (
{
closed = 1;
nodes = (
"510 -26 OFFCURVE",
"564 13 OFFCURVE",
"564 115 CURVE SMOOTH",
"564 136 OFFCURVE",
"563 171 OFFCURVE",
"544 171 CURVE SMOOTH",
"539 171 OFFCURVE",
"535 167 OFFCURVE",
"535 155 CURVE SMOOTH",
"535 143 OFFCURVE",
"538 128 OFFCURVE",
"538 110 CURVE SMOOTH",
"538 60 OFFCURVE",
"528 6 OFFCURVE",
"490 6 CURVE",
"405 13 OFFCURVE",
"265 169 OFFCURVE",
"173 259 CURVE SMOOTH",
"166 266 OFFCURVE",
"163 270 OFFCURVE",
"163 274 CURVE SMOOTH",
"163 278 OFFCURVE",
"168 279 OFFCURVE",
"180 279 CURVE SMOOTH",
"191 279 LINE SMOOTH",
"234 279 OFFCURVE",
"295 284 OFFCURVE",
"356 308 CURVE SMOOTH",
"418 332 OFFCURVE",
"501 409 OFFCURVE",
"501 489 CURVE SMOOTH",
"501 614 OFFCURVE",
"312 639 OFFCURVE",
"225 647 CURVE",
"230 663 OFFCURVE",
"232 664 OFFCURVE",
"239 680 CURVE",
"239 689 OFFCURVE",
"232 692 OFFCURVE",
"223 692 CURVE SMOOTH",
"188 692 OFFCURVE",
"167 676 OFFCURVE",
"162 651 CURVE",
"130 651 OFFCURVE",
"89 647 OFFCURVE",
"89 634 CURVE SMOOTH",
"89 630 OFFCURVE",
"95 627 OFFCURVE",
"111 626 CURVE SMOOTH",
"122 626 OFFCURVE",
"137 628 OFFCURVE",
"150 628 CURVE SMOOTH",
"156 628 LINE",
"153 619 OFFCURVE",
"148 595 OFFCURVE",
"148 587 CURVE SMOOTH",
"148 581 OFFCURVE",
"151 579 OFFCURVE",
"151 574 CURVE SMOOTH",
"151 572 LINE",
"137 509 OFFCURVE",
"116 402 OFFCURVE",
"105 311 CURVE",
"94 311 OFFCURVE",
"86 313 OFFCURVE",
"82 317 CURVE",
"78 317 OFFCURVE",
"76 315 OFFCURVE",
"76 313 CURVE SMOOTH",
"76 306 OFFCURVE",
"87 293 OFFCURVE",
"101 278 CURVE",
"87 169 OFFCURVE",
"77 62 OFFCURVE",
"77 14 CURVE SMOOTH",
"77 1 OFFCURVE",
"84 -2 OFFCURVE",
"99 -2 CURVE SMOOTH",
"108 -2 OFFCURVE",
"118 1 OFFCURVE",
"121 8 CURVE SMOOTH",
"122 12 OFFCURVE",
"127 10 OFFCURVE",
"127 17 CURVE SMOOTH",
"127 15 OFFCURVE",
"121 41 OFFCURVE",
"121 74 CURVE SMOOTH",
"121 136 OFFCURVE",
"125 205 OFFCURVE",
"130 249 CURVE",
"158 224 LINE",
"257 119 OFFCURVE",
"396 -26 OFFCURVE",
"471 -26 CURVE SMOOTH"
);
},
{
closed = 1;
nodes = (
"174 303 OFFCURVE",
"145 305 OFFCURVE",
"141 309 CURVE",
"147 368 OFFCURVE",
"192 575 OFFCURVE",
"217 624 CURVE",
"218 624 LINE SMOOTH",
"284 624 OFFCURVE",
"428 587 OFFCURVE",
"454 507 CURVE",
"456 498 OFFCURVE",
"456 489 OFFCURVE",
"456 481 CURVE SMOOTH",
"456 380 OFFCURVE",
"334 313 OFFCURVE",
"256 305 CURVE SMOOTH",
"242 303 OFFCURVE",
"223 303 OFFCURVE",
"204 303 CURVE SMOOTH"
);
}
);
width = 584;
}
);
note = R;
unicode = 0052;
},
{
glyphname = S;
lastChange = "2021-04-08 07:25:40 +0000";
layers = (
{
anchors = (
{
name = bottom;
position = "{176, 0}";
},
{
name = top;
position = "{307, 650}";
}
);
background = {
paths = (
{
closed = 1;
nodes = (
"132 467 OFFCURVE",
"131 470 OFFCURVE",
"131 473 CURVE SMOOTH",
"131 573 OFFCURVE",
"285 625 OFFCURVE",
"358 625 CURVE SMOOTH",
"412 625 OFFCURVE",
"454 609 OFFCURVE",
"454 548 CURVE SMOOTH",
"454 528 LINE SMOOTH",
"454 518 OFFCURVE",
"455 515 OFFCURVE",
"461 515 CURVE SMOOTH",
"479 515 OFFCURVE",
"489 552 OFFCURVE",
"489 563 CURVE SMOOTH",
"489 608 OFFCURVE",
"474 662 OFFCURVE",
"389 662 CURVE SMOOTH",
"235 662 OFFCURVE",
"90 559 OFFCURVE",
"90 445 CURVE SMOOTH",
"90 268 OFFCURVE",
"403 297 OFFCURVE",
"403 168 CURVE SMOOTH",
"403 75 OFFCURVE",
"277 15 OFFCURVE",
"188 15 CURVE SMOOTH",
"137 15 OFFCURVE",
"105 22 OFFCURVE",
"84 57 CURVE SMOOTH",
"73 76 OFFCURVE",
"77 96 OFFCURVE",
"66 96 CURVE SMOOTH",
"43 96 OFFCURVE",
"39 72 OFFCURVE",
"39 61 CURVE SMOOTH",
"39 54 LINE SMOOTH",
"39 21 OFFCURVE",
"55 -17 OFFCURVE",
"149 -17 CURVE SMOOTH",
"312 -17 OFFCURVE",
"457 94 OFFCURVE",
"457 199 CURVE SMOOTH",
"457 329 OFFCURVE",
"153 295 OFFCURVE",
"132 464 CURVE SMOOTH"
);
}
);
};
hints = (
{
horizontal = 1;
place = "{-17, 32}";
type = Stem;
},
{
horizontal = 1;
place = "{625, 37}";
type = Stem;
},
{
place = "{90, 41}";
type = Stem;
},
{
place = "{454, 35}";
type = Stem;
},
{
place = "{403, 54}";
type = Stem;
},
{
horizontal = 1;
place = "{-17, 113}";
type = Stem;
}
);
layerId = "3787E0F5-978F-4E40-B775-08CB0E3B1585";
paths = (
{
closed = 1;
nodes = (
"312 -17 OFFCURVE",
"457 94 OFFCURVE",
"457 199 CURVE SMOOTH",
"457 329 OFFCURVE",
"153 295 OFFCURVE",
"132 464 CURVE SMOOTH",
"132 467 OFFCURVE",
"131 470 OFFCURVE",
"131 473 CURVE SMOOTH",
"131 573 OFFCURVE",
"285 625 OFFCURVE",
"358 625 CURVE SMOOTH",
"412 625 OFFCURVE",
"454 609 OFFCURVE",
"454 548 CURVE SMOOTH",
"454 528 LINE SMOOTH",
"454 518 OFFCURVE",
"455 515 OFFCURVE",
"461 515 CURVE SMOOTH",
"479 515 OFFCURVE",
"489 552 OFFCURVE",
"489 563 CURVE SMOOTH",
"489 608 OFFCURVE",
"474 662 OFFCURVE",
"389 662 CURVE SMOOTH",
"235 662 OFFCURVE",
"90 559 OFFCURVE",
"90 445 CURVE SMOOTH",
"90 268 OFFCURVE",
"403 297 OFFCURVE",
"403 168 CURVE SMOOTH",
"403 75 OFFCURVE",
"277 15 OFFCURVE",
"188 15 CURVE SMOOTH",
"137 15 OFFCURVE",
"105 22 OFFCURVE",
"84 57 CURVE SMOOTH",
"73 76 OFFCURVE",
"77 96 OFFCURVE",
"66 96 CURVE SMOOTH",
"43 96 OFFCURVE",
"39 72 OFFCURVE",
"39 61 CURVE SMOOTH",
"39 54 LINE SMOOTH",
"39 21 OFFCURVE",
"55 -17 OFFCURVE",
"149 -17 CURVE SMOOTH"
);
}
);
width = 519;
}
);
note = S;
unicode = 0053;
},
{
glyphname = Scaron;
lastChange = "2021-04-22 11:19:06 +0000";
layers = (
{
background = {
paths = (
{
closed = 1;
nodes = (
"131 468 OFFCURVE",
"130 471 OFFCURVE",
"130 474 CURVE SMOOTH",
"130 574 OFFCURVE",
"285 628 OFFCURVE",
"359 628 CURVE SMOOTH",
"413 628 OFFCURVE",
"456 612 OFFCURVE",
"456 551 CURVE SMOOTH",
"456 530 LINE SMOOTH",
"456 520 OFFCURVE",
"457 517 OFFCURVE",
"463 517 CURVE SMOOTH",
"481 517 OFFCURVE",
"491 554 OFFCURVE",
"491 565 CURVE SMOOTH",
"491 611 OFFCURVE",
"476 665 OFFCURVE",
"390 665 CURVE SMOOTH",
"235 665 OFFCURVE",
"88 561 OFFCURVE",
"88 446 CURVE SMOOTH",
"88 268 OFFCURVE",
"405 296 OFFCURVE",
"405 167 CURVE SMOOTH",
"405 74 OFFCURVE",
"279 12 OFFCURVE",
"187 12 CURVE SMOOTH",
"136 12 OFFCURVE",
"102 19 OFFCURVE",
"82 54 CURVE SMOOTH",
"70 73 OFFCURVE",
"75 94 OFFCURVE",
"64 94 CURVE SMOOTH",
"41 94 OFFCURVE",
"37 69 OFFCURVE",
"37 58 CURVE SMOOTH",
"37 51 LINE SMOOTH",
"37 18 OFFCURVE",
"53 -20 OFFCURVE",
"148 -20 CURVE SMOOTH",
"312 -20 OFFCURVE",
"459 92 OFFCURVE",
"459 198 CURVE SMOOTH",
"459 330 OFFCURVE",
"152 294 OFFCURVE",
"131 465 CURVE SMOOTH"
);
},
{
closed = 1;
nodes = (
"313 829 OFFCURVE",
"311 829 OFFCURVE",
"310 829 CURVE SMOOTH",
"307 829 OFFCURVE",
"305 826 OFFCURVE",
"305 821 CURVE SMOOTH",
"305 819 OFFCURVE",
"306 817 OFFCURVE",
"307 815 CURVE SMOOTH",
"315 800 OFFCURVE",
"371 708 OFFCURVE",
"379 705 CURVE",
"393 708 OFFCURVE",
"495 807 OFFCURVE",
"504 818 CURVE SMOOTH",
"507 822 OFFCURVE",
"508 825 OFFCURVE",
"508 827 CURVE SMOOTH",
"508 829 OFFCURVE",
"507 830 OFFCURVE",
"505 830 CURVE SMOOTH",
"502 830 OFFCURVE",
"413 762 OFFCURVE",
"392 742 CURVE",
"378 763 OFFCURVE",
"329 815 OFFCURVE",
"314 828 CURVE SMOOTH"
);
}
);
};
components = (
{
name = S;
},
{
name = caroncomb.case;
transform = "{1, 0, 0, 1, 190, 278}";
}
);
hints = (
{
horizontal = 1;
place = "{-20, 32}";
type = Stem;
},
{
horizontal = 1;
place = "{628, 37}";
type = Stem;
},
{
horizontal = 1;
place = "{829, -20}";
target = down;
type = TopGhost;
},
{
place = "{88, 42}";
type = Stem;
},
{
place = "{456, 35}";
type = Stem;
},
{
place = "{405, 54}";
type = Stem;
},
{
horizontal = 1;
place = "{-20, 114}";
type = Stem;
},
{
horizontal = 1;
place = "{830, -20}";
target = down;
type = TopGhost;
}
);
layerId = "3787E0F5-978F-4E40-B775-08CB0E3B1585";
width = 519;
}
);
note = Scaron;
unicode = 0160;
},
{
glyphname = T;
lastChange = "2021-04-08 07:25:40 +0000";
layers = (
{
anchors = (
{
name = bottom;
position = "{247, 20}";
},
{
name = center;
position = "{307, 325}";
},
{
name = top;
position = "{307, 650}";
}
);
background = {
paths = (
{
closed = 1;
nodes = (
"569 651 OFFCURVE",
"469 650 OFFCURVE",
"362 650 CURVE",
"361 657 OFFCURVE",
"353 658 OFFCURVE",
"346 658 CURVE SMOOTH",
"331 658 OFFCURVE",
"318 654 OFFCURVE",
"310 649 CURVE",
"55 649 LINE SMOOTH",
"41 649 OFFCURVE",
"28 634 OFFCURVE",
"28 625 CURVE SMOOTH",
"28 621 OFFCURVE",
"31 618 OFFCURVE",
"38 618 CURVE SMOOTH",
"282 618 LINE",
"277 605 OFFCURVE",
"272 586 OFFCURVE",
"272 571 CURVE SMOOTH",
"272 541 LINE",
"238 365 OFFCURVE",
"231 199 OFFCURVE",
"214 14 CURVE",
"214 0 OFFCURVE",
"224 -8 OFFCURVE",
"238 -8 CURVE SMOOTH",
"253 -8 OFFCURVE",
"269 2 OFFCURVE",
"269 21 CURVE SMOOTH",
"269 29 OFFCURVE",
"264 29 OFFCURVE",
"262 47 CURVE",
"262 135 OFFCURVE",
"291 458 OFFCURVE",
"349 618 CURVE",
"559 618 LINE",
"585 622 OFFCURVE",
"597 638 OFFCURVE",
"597 646 CURVE SMOOTH",
"597 650 OFFCURVE",
"595 652 OFFCURVE",
"591 652 CURVE SMOOTH"
);
}
);
};
hints = (
{
horizontal = 1;
place = "{-8, 21}";
target = up;
type = BottomGhost;
},
{
horizontal = 1;
place = "{658, -20}";
target = down;
type = TopGhost;
},
{
horizontal = 1;
place = "{618, 31}";
type = Stem;
}
);
layerId = "3787E0F5-978F-4E40-B775-08CB0E3B1585";
paths = (
{
closed = 1;
nodes = (
"253 -8 OFFCURVE",
"269 2 OFFCURVE",
"269 21 CURVE SMOOTH",
"269 29 OFFCURVE",
"264 29 OFFCURVE",
"262 47 CURVE",
"262 135 OFFCURVE",
"291 458 OFFCURVE",
"349 618 CURVE",
"559 618 LINE",
"585 622 OFFCURVE",
"597 638 OFFCURVE",
"597 646 CURVE SMOOTH",
"597 650 OFFCURVE",
"595 652 OFFCURVE",
"591 652 CURVE SMOOTH",
"569 651 OFFCURVE",
"469 650 OFFCURVE",
"362 650 CURVE",
"361 657 OFFCURVE",
"353 658 OFFCURVE",
"346 658 CURVE SMOOTH",
"331 658 OFFCURVE",
"318 654 OFFCURVE",
"310 649 CURVE",
"55 649 LINE SMOOTH",
"41 649 OFFCURVE",
"28 634 OFFCURVE",
"28 625 CURVE SMOOTH",
"28 621 OFFCURVE",
"31 618 OFFCURVE",
"38 618 CURVE SMOOTH",
"282 618 LINE",
"277 605 OFFCURVE",
"272 586 OFFCURVE",
"272 571 CURVE SMOOTH",
"272 541 LINE",
"238 365 OFFCURVE",
"231 199 OFFCURVE",
"214 14 CURVE",
"214 0 OFFCURVE",
"224 -8 OFFCURVE",
"238 -8 CURVE SMOOTH"
);
}
);
width = 614;
}
);
note = T;
unicode = 0054;
},
{
glyphname = U;
lastChange = "2021-04-08 07:25:40 +0000";
layers = (
{
anchors = (
{
name = bottom;
position = "{186, 0}";
},
{
name = ogonek;
position = "{581, 10}";
},
{
name = top;
position = "{378, 650}";
},
{
name = topright;
position = "{559, 632}";
}
);
background = {
paths = (
{
closed = 1;
nodes = (
"85 450 OFFCURVE",
"56 308 OFFCURVE",
"56 193 CURVE SMOOTH",
"56 84 OFFCURVE",
"82 -1 OFFCURVE",
"151 -1 CURVE SMOOTH",
"210 -1 OFFCURVE",
"349 76 OFFCURVE",
"487 345 CURVE",
"474 238 OFFCURVE",
"464 128 OFFCURVE",
"454 14 CURVE",
"454 0 OFFCURVE",
"464 -8 OFFCURVE",
"478 -8 CURVE SMOOTH",
"501 -8 OFFCURVE",
"511 10 OFFCURVE",
"511 43 CURVE SMOOTH",
"511 54 OFFCURVE",
"509 64 OFFCURVE",
"503 72 CURVE",
"503 167 OFFCURVE",
"537 489 OFFCURVE",
"605 645 CURVE",
"605 647 LINE SMOOTH",
"605 654 OFFCURVE",
"598 657 OFFCURVE",
"590 657 CURVE SMOOTH",
"535 657 OFFCURVE",
"515 613 OFFCURVE",
"515 569 CURVE SMOOTH",
"515 547 LINE SMOOTH",
"515 458 OFFCURVE",
"459 324 OFFCURVE",
"378 214 CURVE SMOOTH",
"282 85 OFFCURVE",
"218 39 OFFCURVE",
"175 39 CURVE SMOOTH",
"123 39 OFFCURVE",
"105 94 OFFCURVE",
"105 180 CURVE SMOOTH",
"105 221 OFFCURVE",
"110 268 OFFCURVE",
"116 320 CURVE SMOOTH",
"125 403 OFFCURVE",
"167 591 OFFCURVE",
"221 640 CURVE SMOOTH",
"224 643 OFFCURVE",
"225 646 OFFCURVE",
"225 649 CURVE SMOOTH",
"225 658 OFFCURVE",
"214 666 OFFCURVE",
"198 666 CURVE SMOOTH",
"186 666 OFFCURVE",
"171 662 OFFCURVE",
"157 651 CURVE SMOOTH",
"145 641 OFFCURVE",
"113 583 OFFCURVE",
"113 558 CURVE SMOOTH",
"113 552 OFFCURVE",
"115 548 OFFCURVE",
"119 547 CURVE"
);
}
);
};
hints = (
{
horizontal = 1;
place = "{-1, 40}";
type = Stem;
},
{
horizontal = 1;
place = "{666, -20}";
target = down;
type = TopGhost;
},
{
place = "{56, 49}";
type = Stem;
},
{
horizontal = 1;
place = "{-8, 21}";
target = up;
type = BottomGhost;
}
);
layerId = "3787E0F5-978F-4E40-B775-08CB0E3B1585";
paths = (
{
closed = 1;
nodes = (
"501 -8 OFFCURVE",
"511 10 OFFCURVE",
"511 43 CURVE SMOOTH",
"511 54 OFFCURVE",
"509 64 OFFCURVE",
"503 72 CURVE",
"503 167 OFFCURVE",
"537 489 OFFCURVE",
"605 645 CURVE",
"605 647 LINE SMOOTH",
"605 654 OFFCURVE",
"598 657 OFFCURVE",
"590 657 CURVE SMOOTH",
"535 657 OFFCURVE",
"515 613 OFFCURVE",
"515 569 CURVE SMOOTH",
"515 547 LINE SMOOTH",
"515 458 OFFCURVE",
"459 324 OFFCURVE",
"378 214 CURVE SMOOTH",
"282 85 OFFCURVE",
"218 39 OFFCURVE",
"175 39 CURVE SMOOTH",
"123 39 OFFCURVE",
"105 94 OFFCURVE",
"105 180 CURVE SMOOTH",
"105 221 OFFCURVE",
"110 268 OFFCURVE",
"116 320 CURVE SMOOTH",
"125 403 OFFCURVE",
"167 591 OFFCURVE",
"221 640 CURVE SMOOTH",
"224 643 OFFCURVE",
"225 646 OFFCURVE",
"225 649 CURVE SMOOTH",
"225 658 OFFCURVE",
"214 666 OFFCURVE",
"198 666 CURVE SMOOTH",
"186 666 OFFCURVE",
"171 662 OFFCURVE",
"157 651 CURVE SMOOTH",
"145 641 OFFCURVE",
"113 583 OFFCURVE",
"113 558 CURVE SMOOTH",
"113 552 OFFCURVE",
"115 548 OFFCURVE",
"119 547 CURVE",
"85 450 OFFCURVE",
"56 308 OFFCURVE",
"56 193 CURVE SMOOTH",
"56 84 OFFCURVE",
"82 -1 OFFCURVE",
"151 -1 CURVE SMOOTH",
"210 -1 OFFCURVE",
"349 76 OFFCURVE",
"487 345 CURVE",
"474 238 OFFCURVE",
"464 128 OFFCURVE",
"454 14 CURVE",
"454 0 OFFCURVE",
"464 -8 OFFCURVE",
"478 -8 CURVE SMOOTH"
);
}
);
width = 646;
}
);
note = U;
unicode = 0055;
},
{
glyphname = V;
lastChange = "2021-04-08 07:25:40 +0000";
layers = (
{
background = {
paths = (
{
closed = 1;
nodes = (
"79 470 OFFCURVE",
"68 376 OFFCURVE",
"68 286 CURVE SMOOTH",
"68 135 OFFCURVE",
"99 -3 OFFCURVE",
"184 -3 CURVE SMOOTH",
"235 -3 OFFCURVE",
"319 47 OFFCURVE",
"425 225 CURVE",
"485 337 OFFCURVE",
"577 589 OFFCURVE",
"577 664 CURVE SMOOTH",
"577 684 OFFCURVE",
"572 699 OFFCURVE",
"556 699 CURVE SMOOTH",
"533 699 OFFCURVE",
"528 689 OFFCURVE",
"528 684 CURVE SMOOTH",
"528 676 OFFCURVE",
"533 664 OFFCURVE",
"533 642 CURVE SMOOTH",
"533 564 OFFCURVE",
"471 368 OFFCURVE",
"401 243 CURVE SMOOTH",
"310 83 OFFCURVE",
"248 39 OFFCURVE",
"205 39 CURVE SMOOTH",
"137 39 OFFCURVE",
"119 145 OFFCURVE",
"119 291 CURVE SMOOTH",
"119 361 OFFCURVE",
"146 594 OFFCURVE",
"187 644 CURVE SMOOTH",
"189 647 OFFCURVE",
"190 650 OFFCURVE",
"190 653 CURVE SMOOTH",
"190 662 OFFCURVE",
"180 669 OFFCURVE",
"165 669 CURVE SMOOTH",
"140 669 OFFCURVE",
"89 634 OFFCURVE",
"89 557 CURVE SMOOTH",
"89 549 OFFCURVE",
"91 543 OFFCURVE",
"96 542 CURVE"
);
}
);
};
hints = (
{
horizontal = 1;
place = "{-3, 42}";
type = Stem;
},
{
horizontal = 1;
place = "{699, -20}";
target = down;
type = TopGhost;
},
{
place = "{68, 51}";
type = Stem;
},
{
place = "{533, 44}";
type = Stem;
}
);
layerId = "3787E0F5-978F-4E40-B775-08CB0E3B1585";
paths = (
{
closed = 1;
nodes = (
"235 -3 OFFCURVE",
"319 47 OFFCURVE",
"425 225 CURVE",
"485 337 OFFCURVE",
"577 589 OFFCURVE",
"577 664 CURVE SMOOTH",
"577 684 OFFCURVE",
"572 699 OFFCURVE",
"556 699 CURVE SMOOTH",
"533 699 OFFCURVE",
"528 689 OFFCURVE",
"528 684 CURVE SMOOTH",
"528 676 OFFCURVE",
"533 664 OFFCURVE",
"533 642 CURVE SMOOTH",
"533 564 OFFCURVE",
"471 368 OFFCURVE",
"401 243 CURVE SMOOTH",
"310 83 OFFCURVE",
"248 39 OFFCURVE",
"205 39 CURVE SMOOTH",
"137 39 OFFCURVE",
"119 145 OFFCURVE",
"119 291 CURVE SMOOTH",
"119 361 OFFCURVE",
"146 594 OFFCURVE",
"187 644 CURVE SMOOTH",
"189 647 OFFCURVE",
"190 650 OFFCURVE",
"190 653 CURVE SMOOTH",
"190 662 OFFCURVE",
"180 669 OFFCURVE",
"165 669 CURVE SMOOTH",
"140 669 OFFCURVE",
"89 634 OFFCURVE",
"89 557 CURVE SMOOTH",
"89 549 OFFCURVE",
"91 543 OFFCURVE",
"96 542 CURVE",
"79 470 OFFCURVE",
"68 376 OFFCURVE",
"68 286 CURVE SMOOTH",
"68 135 OFFCURVE",
"99 -3 OFFCURVE",
"184 -3 CURVE SMOOTH"
);
}
);
width = 563;
}
);
note = V;
unicode = 0056;
},
{
glyphname = W;
lastChange = "2021-04-08 07:25:40 +0000";
layers = (
{
anchors = (
{
name = bottom;
position = "{459, 0}";
},
{
name = top;
position = "{509, 650}";
}
);
background = {
paths = (
{
closed = 1;
nodes = (
"802 327 OFFCURVE",
"874 519 OFFCURVE",
"874 610 CURVE SMOOTH",
"874 643 OFFCURVE",
"867 669 OFFCURVE",
"844 669 CURVE SMOOTH",
"827 669 OFFCURVE",
"824 660 OFFCURVE",
"824 651 CURVE SMOOTH",
"824 643 OFFCURVE",
"826 632 OFFCURVE",
"826 613 CURVE SMOOTH",
"826 523 OFFCURVE",
"784 365 OFFCURVE",
"721 237 CURVE SMOOTH",
"649 90 OFFCURVE",
"596 39 OFFCURVE",
"552 39 CURVE SMOOTH",
"493 39 OFFCURVE",
"469 143 OFFCURVE",
"469 263 CURVE SMOOTH",
"469 401 OFFCURVE",
"501 560 OFFCURVE",
"543 602 CURVE SMOOTH",
"546 605 OFFCURVE",
"547 607 OFFCURVE",
"547 610 CURVE SMOOTH",
"547 619 OFFCURVE",
"535 628 OFFCURVE",
"518 628 CURVE SMOOTH",
"498 628 OFFCURVE",
"453 606 OFFCURVE",
"453 560 CURVE SMOOTH",
"453 553 OFFCURVE",
"455 548 OFFCURVE",
"462 546 CURVE",
"450 506 OFFCURVE",
"441 459 OFFCURVE",
"434 409 CURVE",
"342 138 OFFCURVE",
"217 39 OFFCURVE",
"175 39 CURVE SMOOTH",
"123 39 OFFCURVE",
"105 94 OFFCURVE",
"105 180 CURVE SMOOTH",
"105 221 OFFCURVE",
"110 268 OFFCURVE",
"116 320 CURVE SMOOTH",
"125 403 OFFCURVE",
"167 591 OFFCURVE",
"221 640 CURVE SMOOTH",
"224 643 OFFCURVE",
"225 646 OFFCURVE",
"225 649 CURVE SMOOTH",
"225 658 OFFCURVE",
"214 666 OFFCURVE",
"198 666 CURVE SMOOTH",
"186 666 OFFCURVE",
"171 662 OFFCURVE",
"157 651 CURVE SMOOTH",
"145 641 OFFCURVE",
"113 583 OFFCURVE",
"113 558 CURVE SMOOTH",
"113 552 OFFCURVE",
"115 548 OFFCURVE",
"119 547 CURVE",
"85 450 OFFCURVE",
"56 308 OFFCURVE",
"56 193 CURVE SMOOTH",
"56 84 OFFCURVE",
"82 -1 OFFCURVE",
"151 -1 CURVE SMOOTH",
"200 -1 OFFCURVE",
"330 67 OFFCURVE",
"424 321 CURVE",
"422 297 OFFCURVE",
"421 272 OFFCURVE",
"421 249 CURVE SMOOTH",
"421 114 OFFCURVE",
"450 0 OFFCURVE",
"531 0 CURVE SMOOTH",
"583 0 OFFCURVE",
"675 66 OFFCURVE",
"755 232 CURVE SMOOTH"
);
}
);
};
hints = (
{
horizontal = 1;
place = "{-1, 40}";
type = Stem;
},
{
horizontal = 1;
place = "{669, -20}";
target = down;
type = TopGhost;
},
{
place = "{56, 49}";
type = Stem;
},
{
place = "{421, 48}";
type = Stem;
},
{
place = "{826, 48}";
type = Stem;
},
{
horizontal = 1;
place = "{0, 21}";
target = up;
type = BottomGhost;
}
);
layerId = "3787E0F5-978F-4E40-B775-08CB0E3B1585";
paths = (
{
closed = 1;
nodes = (
"200 -1 OFFCURVE",
"330 67 OFFCURVE",
"424 321 CURVE",
"422 297 OFFCURVE",
"421 272 OFFCURVE",
"421 249 CURVE SMOOTH",
"421 114 OFFCURVE",
"450 0 OFFCURVE",
"531 0 CURVE SMOOTH",
"583 0 OFFCURVE",
"675 66 OFFCURVE",
"755 232 CURVE SMOOTH",
"802 327 OFFCURVE",
"874 519 OFFCURVE",
"874 610 CURVE SMOOTH",
"874 643 OFFCURVE",
"867 669 OFFCURVE",
"844 669 CURVE SMOOTH",
"827 669 OFFCURVE",
"824 660 OFFCURVE",
"824 651 CURVE SMOOTH",
"824 643 OFFCURVE",
"826 632 OFFCURVE",
"826 613 CURVE SMOOTH",
"826 523 OFFCURVE",
"784 365 OFFCURVE",
"721 237 CURVE SMOOTH",
"649 90 OFFCURVE",
"596 39 OFFCURVE",
"552 39 CURVE SMOOTH",
"493 39 OFFCURVE",
"469 143 OFFCURVE",
"469 263 CURVE SMOOTH",
"469 401 OFFCURVE",
"501 560 OFFCURVE",
"543 602 CURVE SMOOTH",
"546 605 OFFCURVE",
"547 607 OFFCURVE",
"547 610 CURVE SMOOTH",
"547 619 OFFCURVE",
"535 628 OFFCURVE",
"518 628 CURVE SMOOTH",
"498 628 OFFCURVE",
"453 606 OFFCURVE",
"453 560 CURVE SMOOTH",
"453 553 OFFCURVE",
"455 548 OFFCURVE",
"462 546 CURVE",
"450 506 OFFCURVE",
"441 459 OFFCURVE",
"434 409 CURVE",
"342 138 OFFCURVE",
"217 39 OFFCURVE",
"175 39 CURVE SMOOTH",
"123 39 OFFCURVE",
"105 94 OFFCURVE",
"105 180 CURVE SMOOTH",
"105 221 OFFCURVE",
"110 268 OFFCURVE",
"116 320 CURVE SMOOTH",
"125 403 OFFCURVE",
"167 591 OFFCURVE",
"221 640 CURVE SMOOTH",
"224 643 OFFCURVE",
"225 646 OFFCURVE",
"225 649 CURVE SMOOTH",
"225 658 OFFCURVE",
"214 666 OFFCURVE",
"198 666 CURVE SMOOTH",
"186 666 OFFCURVE",
"171 662 OFFCURVE",
"157 651 CURVE SMOOTH",
"145 641 OFFCURVE",
"113 583 OFFCURVE",
"113 558 CURVE SMOOTH",
"113 552 OFFCURVE",
"115 548 OFFCURVE",
"119 547 CURVE",
"85 450 OFFCURVE",
"56 308 OFFCURVE",
"56 193 CURVE SMOOTH",
"56 84 OFFCURVE",
"82 -1 OFFCURVE",
"151 -1 CURVE SMOOTH"
);
}
);
width = 917;
}
);
note = W;
unicode = 0057;
},
{
glyphname = X;
lastChange = "2021-04-08 07:25:40 +0000";
layers = (
{
background = {
paths = (
{
closed = 1;
nodes = (
"227 628 OFFCURVE",
"244 631 OFFCURVE",
"244 637 CURVE SMOOTH",
"244 644 OFFCURVE",
"215 654 OFFCURVE",
"200 654 CURVE SMOOTH",
"183 654 OFFCURVE",
"151 651 OFFCURVE",
"151 625 CURVE SMOOTH",
"151 615 OFFCURVE",
"153 602 OFFCURVE",
"158 589 CURVE SMOOTH",
"195 487 OFFCURVE",
"226 399 OFFCURVE",
"265 308 CURVE",
"180 231 OFFCURVE",
"37 90 OFFCURVE",
"3 8 CURVE SMOOTH",
"1 4 OFFCURVE",
"0 0 OFFCURVE",
"0 -3 CURVE SMOOTH",
"0 -10 OFFCURVE",
"5 -16 OFFCURVE",
"11 -16 CURVE SMOOTH",
"17 -16 OFFCURVE",
"24 -11 OFFCURVE",
"29 1 CURVE SMOOTH",
"49 48 OFFCURVE",
"206 211 OFFCURVE",
"278 278 CURVE",
"289 256 LINE SMOOTH",
"352 118 OFFCURVE",
"420 -7 OFFCURVE",
"477 -7 CURVE SMOOTH",
"524 -7 OFFCURVE",
"608 34 OFFCURVE",
"645 187 CURVE SMOOTH",
"646 190 OFFCURVE",
"646 194 OFFCURVE",
"646 197 CURVE SMOOTH",
"646 205 OFFCURVE",
"643 212 OFFCURVE",
"639 212 CURVE SMOOTH",
"629 212 OFFCURVE",
"583 28 OFFCURVE",
"512 28 CURVE SMOOTH",
"456 28 OFFCURVE",
"371 184 OFFCURVE",
"314 311 CURVE",
"423 409 OFFCURVE",
"596 550 OFFCURVE",
"596 629 CURVE SMOOTH",
"596 660 OFFCURVE",
"585 664 OFFCURVE",
"578 664 CURVE SMOOTH",
"573 664 OFFCURVE",
"572 659 OFFCURVE",
"572 654 CURVE SMOOTH",
"572 642 LINE SMOOTH",
"572 573 OFFCURVE",
"384 415 OFFCURVE",
"300 340 CURVE",
"275 395 OFFCURVE",
"214 539 OFFCURVE",
"214 600 CURVE SMOOTH",
"214 616 OFFCURVE",
"218 626 OFFCURVE",
"227 628 CURVE"
);
}
);
};
hints = (
{
horizontal = 1;
place = "{-16, 21}";
target = up;
type = BottomGhost;
},
{
horizontal = 1;
place = "{664, -20}";
target = down;
type = TopGhost;
},
{
place = "{151, 63}";
type = Stem;
},
{
place = "{572, 24}";
type = Stem;
},
{
horizontal = 1;
place = "{-7, 35}";
type = Stem;
}
);
layerId = "3787E0F5-978F-4E40-B775-08CB0E3B1585";
paths = (
{
closed = 1;
nodes = (
"17 -16 OFFCURVE",
"24 -11 OFFCURVE",
"29 1 CURVE SMOOTH",
"49 48 OFFCURVE",
"206 211 OFFCURVE",
"278 278 CURVE",
"289 256 LINE SMOOTH",
"352 118 OFFCURVE",
"420 -7 OFFCURVE",
"477 -7 CURVE SMOOTH",
"524 -7 OFFCURVE",
"608 34 OFFCURVE",
"645 187 CURVE SMOOTH",
"646 190 OFFCURVE",
"646 194 OFFCURVE",
"646 197 CURVE SMOOTH",
"646 205 OFFCURVE",
"643 212 OFFCURVE",
"639 212 CURVE SMOOTH",
"629 212 OFFCURVE",
"583 28 OFFCURVE",
"512 28 CURVE SMOOTH",
"456 28 OFFCURVE",
"371 184 OFFCURVE",
"314 311 CURVE",
"423 409 OFFCURVE",
"596 550 OFFCURVE",
"596 629 CURVE SMOOTH",
"596 660 OFFCURVE",
"585 664 OFFCURVE",
"578 664 CURVE SMOOTH",
"573 664 OFFCURVE",
"572 659 OFFCURVE",
"572 654 CURVE SMOOTH",
"572 642 LINE SMOOTH",
"572 573 OFFCURVE",
"384 415 OFFCURVE",
"300 340 CURVE",
"275 395 OFFCURVE",
"214 539 OFFCURVE",
"214 600 CURVE SMOOTH",
"214 616 OFFCURVE",
"218 626 OFFCURVE",
"227 628 CURVE",
"227 628 OFFCURVE",
"244 631 OFFCURVE",
"244 637 CURVE SMOOTH",
"244 644 OFFCURVE",
"215 654 OFFCURVE",
"200 654 CURVE SMOOTH",
"183 654 OFFCURVE",
"151 651 OFFCURVE",
"151 625 CURVE SMOOTH",
"151 615 OFFCURVE",
"153 602 OFFCURVE",
"158 589 CURVE SMOOTH",
"195 487 OFFCURVE",
"226 399 OFFCURVE",
"265 308 CURVE",
"180 231 OFFCURVE",
"37 90 OFFCURVE",
"3 8 CURVE SMOOTH",
"1 4 OFFCURVE",
"0 0 OFFCURVE",
"0 -3 CURVE SMOOTH",
"0 -10 OFFCURVE",
"5 -16 OFFCURVE",
"11 -16 CURVE SMOOTH"
);
}
);
width = 669;
}
);
note = X;
unicode = 0058;
},
{
glyphname = Y;
lastChange = "2021-04-08 07:25:40 +0000";
layers = (
{
anchors = (
{
name = bottom;
position = "{84, 0}";
},
{
name = top;
position = "{279, 650}";
},
{
name = topleft;
position = "{20, 650}";
}
);
background = {
paths = (
{
closed = 1;
nodes = (
"89 58 OFFCURVE",
"67 20 OFFCURVE",
"67 10 CURVE SMOOTH",
"67 2 OFFCURVE",
"76 0 OFFCURVE",
"84 0 CURVE SMOOTH",
"153 0 OFFCURVE",
"159 47 OFFCURVE",
"164 113 CURVE SMOOTH",
"167 157 OFFCURVE",
"184 246 OFFCURVE",
"197 284 CURVE",
"269 351 OFFCURVE",
"336 412 OFFCURVE",
"403 493 CURVE SMOOTH",
"449 549 OFFCURVE",
"508 620 OFFCURVE",
"508 647 CURVE SMOOTH",
"508 664 OFFCURVE",
"494 667 OFFCURVE",
"485 667 CURVE SMOOTH",
"462 667 OFFCURVE",
"454 650 OFFCURVE",
"448 625 CURVE SMOOTH",
"423 522 OFFCURVE",
"215 334 OFFCURVE",
"185 309 CURVE",
"160 369 OFFCURVE",
"93 531 OFFCURVE",
"93 598 CURVE SMOOTH",
"93 613 OFFCURVE",
"97 624 OFFCURVE",
"106 626 CURVE SMOOTH",
"105 626 OFFCURVE",
"117 633 OFFCURVE",
"117 640 CURVE SMOOTH",
"117 649 OFFCURVE",
"88 654 OFFCURVE",
"75 654 CURVE SMOOTH",
"58 654 OFFCURVE",
"30 650 OFFCURVE",
"30 623 CURVE SMOOTH",
"30 613 OFFCURVE",
"32 598 OFFCURVE",
"37 584 CURVE SMOOTH",
"73 472 OFFCURVE",
"106 375 OFFCURVE",
"144 276 CURVE SMOOTH",
"145 272 OFFCURVE",
"145 267 OFFCURVE",
"145 261 CURVE SMOOTH",
"145 187 OFFCURVE",
"115 112 OFFCURVE",
"95 69 CURVE SMOOTH"
);
}
);
};
hints = (
{
horizontal = 1;
place = "{0, 21}";
target = up;
type = BottomGhost;
},
{
horizontal = 1;
place = "{667, -20}";
target = down;
type = TopGhost;
},
{
place = "{30, 63}";
type = Stem;
}
);
layerId = "3787E0F5-978F-4E40-B775-08CB0E3B1585";
paths = (
{
closed = 1;
nodes = (
"153 0 OFFCURVE",
"159 47 OFFCURVE",
"164 113 CURVE SMOOTH",
"167 157 OFFCURVE",
"184 246 OFFCURVE",
"197 284 CURVE",
"269 351 OFFCURVE",
"336 412 OFFCURVE",
"403 493 CURVE SMOOTH",
"449 549 OFFCURVE",
"508 620 OFFCURVE",
"508 647 CURVE SMOOTH",
"508 664 OFFCURVE",
"494 667 OFFCURVE",
"485 667 CURVE SMOOTH",
"462 667 OFFCURVE",
"454 650 OFFCURVE",
"448 625 CURVE SMOOTH",
"423 522 OFFCURVE",
"215 334 OFFCURVE",
"185 309 CURVE",
"160 369 OFFCURVE",
"93 531 OFFCURVE",
"93 598 CURVE SMOOTH",
"93 613 OFFCURVE",
"97 624 OFFCURVE",
"106 626 CURVE SMOOTH",
"105 626 OFFCURVE",
"117 633 OFFCURVE",
"117 640 CURVE SMOOTH",
"117 649 OFFCURVE",
"88 654 OFFCURVE",
"75 654 CURVE SMOOTH",
"58 654 OFFCURVE",
"30 650 OFFCURVE",
"30 623 CURVE SMOOTH",
"30 613 OFFCURVE",
"32 598 OFFCURVE",
"37 584 CURVE SMOOTH",
"73 472 OFFCURVE",
"106 375 OFFCURVE",
"144 276 CURVE SMOOTH",
"145 272 OFFCURVE",
"145 267 OFFCURVE",
"145 261 CURVE SMOOTH",
"145 187 OFFCURVE",
"115 112 OFFCURVE",
"95 69 CURVE SMOOTH",
"89 58 OFFCURVE",
"67 20 OFFCURVE",
"67 10 CURVE SMOOTH",
"67 2 OFFCURVE",
"76 0 OFFCURVE",
"84 0 CURVE SMOOTH"
);
}
);
width = 484;
}
);
note = Y;
unicode = 0059;
},
{
color = 9;
glyphname = Ydieresis;
lastChange = "2021-04-22 11:07:19 +0000";
layers = (
{
background = {
paths = (
{
closed = 1;
nodes = (
"89 58 OFFCURVE",
"67 20 OFFCURVE",
"67 10 CURVE SMOOTH",
"67 2 OFFCURVE",
"76 0 OFFCURVE",
"84 0 CURVE SMOOTH",
"153 0 OFFCURVE",
"159 47 OFFCURVE",
"164 113 CURVE SMOOTH",
"167 157 OFFCURVE",
"184 246 OFFCURVE",
"197 284 CURVE",
"269 351 OFFCURVE",
"336 412 OFFCURVE",
"403 493 CURVE SMOOTH",
"449 549 OFFCURVE",
"508 620 OFFCURVE",
"508 647 CURVE SMOOTH",
"508 664 OFFCURVE",
"494 667 OFFCURVE",
"485 667 CURVE SMOOTH",
"462 667 OFFCURVE",
"454 650 OFFCURVE",
"448 625 CURVE SMOOTH",
"423 522 OFFCURVE",
"215 334 OFFCURVE",
"185 309 CURVE",
"160 369 OFFCURVE",
"93 531 OFFCURVE",
"93 598 CURVE SMOOTH",
"93 613 OFFCURVE",
"97 624 OFFCURVE",
"106 626 CURVE SMOOTH",
"105 626 OFFCURVE",
"117 633 OFFCURVE",
"117 640 CURVE SMOOTH",
"117 649 OFFCURVE",
"88 654 OFFCURVE",
"75 654 CURVE SMOOTH",
"58 654 OFFCURVE",
"30 650 OFFCURVE",
"30 623 CURVE SMOOTH",
"30 613 OFFCURVE",
"32 598 OFFCURVE",
"37 584 CURVE SMOOTH",
"73 472 OFFCURVE",
"106 375 OFFCURVE",
"144 276 CURVE SMOOTH",
"145 272 OFFCURVE",
"145 267 OFFCURVE",
"145 261 CURVE SMOOTH",
"145 187 OFFCURVE",
"115 112 OFFCURVE",
"95 69 CURVE SMOOTH"
);
},
{
closed = 1;
nodes = (
"383 832 OFFCURVE",
"381 833 OFFCURVE",
"378 833 CURVE SMOOTH",
"356 833 OFFCURVE",
"327 805 OFFCURVE",
"327 781 CURVE SMOOTH",
"327 768 OFFCURVE",
"329 754 OFFCURVE",
"345 754 CURVE",
"356 757 OFFCURVE",
"372 761 OFFCURVE",
"372 775 CURVE SMOOTH",
"372 781 OFFCURVE",
"384 812 OFFCURVE",
"384 830 CURVE"
);
},
{
closed = 1;
nodes = (
"255 832 OFFCURVE",
"253 833 OFFCURVE",
"251 833 CURVE SMOOTH",
"228 833 OFFCURVE",
"200 805 OFFCURVE",
"200 781 CURVE SMOOTH",
"200 768 OFFCURVE",
"203 754 OFFCURVE",
"217 754 CURVE",
"228 757 OFFCURVE",
"244 761 OFFCURVE",
"244 775 CURVE SMOOTH",
"244 781 OFFCURVE",
"256 812 OFFCURVE",
"256 830 CURVE"
);
}
);
};
components = (
{
name = Y;
},
{
name = dieresiscomb.case;
transform = "{1, 0, 0, 1, 82, 275}";
}
);
hints = (
{
place = "{219, 53}";
type = Stem;
},
{
place = "{371, 53}";
type = Stem;
}
);
layerId = "3787E0F5-978F-4E40-B775-08CB0E3B1585";
width = 484;
}
);
note = Ydieresis;
unicode = 0178;
},
{
glyphname = Z;
lastChange = "2021-04-08 07:25:46 +0000";
layers = (
{
anchors = (
{
name = bottom;
position = "{278, 0}";
},
{
name = center;
position = "{278, 325}";
},
{
name = top;
position = "{339, 650}";
}
);
background = {
paths = (
{
closed = 1;
nodes = (
"507 651 OFFCURVE",
"455 652 OFFCURVE",
"397 652 CURVE SMOOTH",
"300 652 OFFCURVE",
"120 654 OFFCURVE",
"120 612 CURVE SMOOTH",
"120 595 OFFCURVE",
"153 566 OFFCURVE",
"161 566 CURVE SMOOTH",
"165 566 OFFCURVE",
"167 568 OFFCURVE",
"168 574 CURVE SMOOTH",
"168 581 OFFCURVE",
"162 591 OFFCURVE",
"159 593 CURVE",
"182 613 OFFCURVE",
"294 621 OFFCURVE",
"368 621 CURVE SMOOTH",
"445 621 OFFCURVE",
"505 613 OFFCURVE",
"505 605 CURVE SMOOTH",
"505 551 OFFCURVE",
"47 149 OFFCURVE",
"27 60 CURVE SMOOTH",
"25 50 OFFCURVE",
"24 42 OFFCURVE",
"24 34 CURVE SMOOTH",
"24 3 OFFCURVE",
"34 -5 OFFCURVE",
"35 -5 CURVE SMOOTH",
"44 -5 OFFCURVE",
"75 5 OFFCURVE",
"111 10 CURVE SMOOTH",
"223 25 OFFCURVE",
"323 44 OFFCURVE",
"426 44 CURVE SMOOTH",
"466 44 OFFCURVE",
"499 34 OFFCURVE",
"499 9 CURVE SMOOTH",
"499 -1 OFFCURVE",
"494 -14 OFFCURVE",
"481 -29 CURVE",
"481 -29 OFFCURVE",
"480 -39 OFFCURVE",
"486 -39 CURVE SMOOTH",
"499 -39 OFFCURVE",
"533 7 OFFCURVE",
"533 41 CURVE SMOOTH",
"533 79 OFFCURVE",
"471 82 OFFCURVE",
"416 82 CURVE SMOOTH",
"276 82 OFFCURVE",
"81 34 OFFCURVE",
"53 29 CURVE",
"82 123 OFFCURVE",
"490 478 OFFCURVE",
"560 587 CURVE SMOOTH",
"563 592 OFFCURVE",
"565 599 OFFCURVE",
"565 606 CURVE SMOOTH",
"565 624 OFFCURVE",
"554 644 OFFCURVE",
"538 648 CURVE"
);
}
);
};
hints = (
{
horizontal = 1;
place = "{-39, 21}";
target = up;
type = BottomGhost;
},
{
horizontal = 1;
place = "{-5, 21}";
target = up;
type = BottomGhost;
},
{
horizontal = 1;
place = "{44, 38}";
type = Stem;
},
{
horizontal = 1;
place = "{621, 31}";
type = Stem;
},
{
place = "{505, 28}";
type = Stem;
}
);
layerId = "3787E0F5-978F-4E40-B775-08CB0E3B1585";
paths = (
{
closed = 1;
nodes = (
"499 -39 OFFCURVE",
"533 7 OFFCURVE",
"533 41 CURVE SMOOTH",
"533 79 OFFCURVE",
"471 82 OFFCURVE",
"416 82 CURVE SMOOTH",
"276 82 OFFCURVE",
"81 34 OFFCURVE",
"53 29 CURVE",
"82 123 OFFCURVE",
"490 478 OFFCURVE",
"560 587 CURVE SMOOTH",
"563 592 OFFCURVE",
"565 599 OFFCURVE",
"565 606 CURVE SMOOTH",
"565 624 OFFCURVE",
"554 644 OFFCURVE",
"538 648 CURVE",
"502 651 OFFCURVE",
"439 652 OFFCURVE",
"370 652 CURVE SMOOTH",
"270 652 OFFCURVE",
"120 650 OFFCURVE",
"120 612 CURVE SMOOTH",
"120 595 OFFCURVE",
"153 566 OFFCURVE",
"161 566 CURVE SMOOTH",
"165 566 OFFCURVE",
"167 568 OFFCURVE",
"168 574 CURVE SMOOTH",
"168 581 OFFCURVE",
"162 591 OFFCURVE",
"159 593 CURVE",
"182 613 OFFCURVE",
"294 621 OFFCURVE",
"368 621 CURVE SMOOTH",
"445 621 OFFCURVE",
"505 613 OFFCURVE",
"505 605 CURVE SMOOTH",
"505 551 OFFCURVE",
"47 149 OFFCURVE",
"27 60 CURVE SMOOTH",
"25 50 OFFCURVE",
"24 42 OFFCURVE",
"24 34 CURVE SMOOTH",
"24 3 OFFCURVE",
"34 -5 OFFCURVE",
"35 -5 CURVE SMOOTH",
"44 -5 OFFCURVE",
"75 5 OFFCURVE",
"111 10 CURVE SMOOTH",
"223 25 OFFCURVE",
"323 44 OFFCURVE",
"426 44 CURVE SMOOTH",
"466 44 OFFCURVE",
"499 34 OFFCURVE",
"499 9 CURVE SMOOTH",
"499 -1 OFFCURVE",
"494 -14 OFFCURVE",
"481 -29 CURVE",
"481 -29 OFFCURVE",
"480 -39 OFFCURVE",
"486 -39 CURVE SMOOTH"
);
}
);
width = 556;
}
);
note = Z;
unicode = 005A;
},
{
glyphname = Zcaron;
lastChange = "2021-04-22 11:19:06 +0000";
layers = (
{
background = {
paths = (
{
closed = 1;
nodes = (
"511 660 OFFCURVE",
"459 661 OFFCURVE",
"401 661 CURVE SMOOTH",
"304 661 OFFCURVE",
"124 663 OFFCURVE",
"124 621 CURVE SMOOTH",
"124 604 OFFCURVE",
"157 575 OFFCURVE",
"165 575 CURVE SMOOTH",
"169 575 OFFCURVE",
"171 577 OFFCURVE",
"172 583 CURVE SMOOTH",
"172 590 OFFCURVE",
"166 600 OFFCURVE",
"163 602 CURVE",
"186 622 OFFCURVE",
"298 630 OFFCURVE",
"372 630 CURVE SMOOTH",
"449 630 OFFCURVE",
"509 622 OFFCURVE",
"509 614 CURVE SMOOTH",
"509 550 OFFCURVE",
"40 150 OFFCURVE",
"27 60 CURVE",
"24 50 OFFCURVE",
"23 41 OFFCURVE",
"23 33 CURVE SMOOTH",
"23 3 OFFCURVE",
"35 -5 OFFCURVE",
"35 -5 CURVE",
"44 -5 OFFCURVE",
"75 5 OFFCURVE",
"111 10 CURVE SMOOTH",
"223 25 OFFCURVE",
"323 44 OFFCURVE",
"426 44 CURVE SMOOTH",
"466 44 OFFCURVE",
"499 34 OFFCURVE",
"499 9 CURVE SMOOTH",
"499 -1 OFFCURVE",
"494 -14 OFFCURVE",
"481 -29 CURVE",
"481 -29 OFFCURVE",
"480 -39 OFFCURVE",
"486 -39 CURVE SMOOTH",
"499 -39 OFFCURVE",
"533 7 OFFCURVE",
"533 41 CURVE SMOOTH",
"533 79 OFFCURVE",
"471 82 OFFCURVE",
"416 82 CURVE SMOOTH",
"276 82 OFFCURVE",
"81 34 OFFCURVE",
"53 29 CURVE",
"69 80 OFFCURVE",
"208 215 OFFCURVE",
"331 338 CURVE SMOOTH",
"443 450 OFFCURVE",
"569 573 OFFCURVE",
"569 615 CURVE SMOOTH",
"569 633 OFFCURVE",
"558 653 OFFCURVE",
"542 657 CURVE"
);
},
{
closed = 1;
nodes = (
"305 818 OFFCURVE",
"303 818 OFFCURVE",
"302 818 CURVE SMOOTH",
"299 818 OFFCURVE",
"297 815 OFFCURVE",
"297 810 CURVE SMOOTH",
"297 808 OFFCURVE",
"298 806 OFFCURVE",
"299 804 CURVE SMOOTH",
"307 789 OFFCURVE",
"363 697 OFFCURVE",
"371 694 CURVE",
"385 697 OFFCURVE",
"487 796 OFFCURVE",
"496 807 CURVE SMOOTH",
"499 811 OFFCURVE",
"500 814 OFFCURVE",
"500 816 CURVE SMOOTH",
"500 818 OFFCURVE",
"499 819 OFFCURVE",
"497 819 CURVE SMOOTH",
"494 819 OFFCURVE",
"405 751 OFFCURVE",
"384 731 CURVE",
"370 752 OFFCURVE",
"321 804 OFFCURVE",
"306 817 CURVE SMOOTH"
);
}
);
};
components = (
{
name = Z;
},
{
name = caroncomb.case;
transform = "{1, 0, 0, 1, 222, 278}";
}
);
hints = (
{
horizontal = 1;
place = "{-39, 21}";
target = up;
type = BottomGhost;
},
{
horizontal = 1;
place = "{-5, 21}";
target = up;
type = BottomGhost;
},
{
horizontal = 1;
place = "{44, 38}";
type = Stem;
},
{
horizontal = 1;
place = "{630, 31}";
type = Stem;
},
{
horizontal = 1;
place = "{818, -20}";
target = down;
type = TopGhost;
},
{
place = "{509, 24}";
type = Stem;
},
{
place = "{509, 60}";
type = Stem;
},
{
horizontal = 1;
place = "{819, -20}";
target = down;
type = TopGhost;
}
);
layerId = "3787E0F5-978F-4E40-B775-08CB0E3B1585";
width = 556;
}
);
note = Zcaron;
unicode = 017D;
},
{
color = 6;
glyphname = A.ss01;
lastChange = "2021-04-16 17:10:20 +0000";
layers = (
{
anchors = (
{
name = bottom;
position = "{249, 0}";
},
{
name = ogonek;
position = "{566, -20}";
},
{
name = top;
position = "{462, 650}";
}
);
layerId = "3787E0F5-978F-4E40-B775-08CB0E3B1585";
paths = (
{
closed = 1;
nodes = (
"63 -186 OFFCURVE",
"69 -184 OFFCURVE",
"69 -180 CURVE SMOOTH",
"69 -176.667 OFFCURVE",
"66 -172 OFFCURVE",
"60 -166 CURVE SMOOTH",
"44 -148.667 OFFCURVE",
"36 -122.667 OFFCURVE",
"36 -88 CURVE SMOOTH",
"36 0 OFFCURVE",
"71.833 98.667 OFFCURVE",
"104.5 156 CURVE SMOOTH",
"120.833 184.667 OFFCURVE",
"144.333 222.667 OFFCURVE",
"175 270 CURVE",
"483 273 LINE",
"483 255 LINE SMOOTH",
"483 217.667 OFFCURVE",
"481 145 OFFCURVE",
"477.5 81 CURVE SMOOTH",
"473 4 LINE",
"457 -8 OFFCURVE",
"430 -41.333 OFFCURVE",
"430 -56 CURVE SMOOTH",
"430 -65.333 OFFCURVE",
"433.333 -70 OFFCURVE",
"440 -70 CURVE SMOOTH",
"443.333 -70 OFFCURVE",
"446.333 -68 OFFCURVE",
"449 -64 CURVE SMOOTH",
"491 -10 OFFCURVE",
"539 30 OFFCURVE",
"593 56 CURVE",
"603.667 62.667 OFFCURVE",
"609 68 OFFCURVE",
"609 72 CURVE SMOOTH",
"609 77 OFFCURVE",
"606 79 OFFCURVE",
"600 79 CURVE SMOOTH",
"591 79 OFFCURVE",
"563 67 OFFCURVE",
"517 42 CURVE",
"517 275 LINE",
"541 275 OFFCURVE",
"605.333 280.333 OFFCURVE",
"608 287 CURVE",
"603.333 296.333 OFFCURVE",
"575.333 301 OFFCURVE",
"524 301 CURVE SMOOTH",
"517 301 LINE",
"517 422.333 OFFCURVE",
"508 524.667 OFFCURVE",
"490 608 CURVE",
"492.667 611.333 OFFCURVE",
"497 615 OFFCURVE",
"502 620 CURVE SMOOTH",
"513 630 LINE",
"513.5 636.5 LINE",
"514 644 LINE SMOOTH",
"515 657 OFFCURVE",
"510.667 663 OFFCURVE",
"504 663 CURVE SMOOTH",
"500 663 OFFCURVE",
"492 657 OFFCURVE",
"480 645 CURVE",
"476.667 664.333 OFFCURVE",
"465 674 OFFCURVE",
"445 674 CURVE SMOOTH",
"429 674 OFFCURVE",
"421 667.333 OFFCURVE",
"421 654 CURVE SMOOTH",
"421 646 OFFCURVE",
"424.333 627.667 OFFCURVE",
"431 599 CURVE",
"326.333 498.333 OFFCURVE",
"237.667 399 OFFCURVE",
"165 301 CURVE",
"161.629 301.229 OFFCURVE",
"132.357 303 OFFCURVE",
"117 303 CURVE SMOOTH",
"77.134 303 OFFCURVE",
"26 298.695 OFFCURVE",
"26 274 CURVE SMOOTH",
"26 272 OFFCURVE",
"30.333 270.667 OFFCURVE",
"39 270 CURVE SMOOTH",
"47.667 269.333 OFFCURVE",
"59 269 OFFCURVE",
"74 269 CURVE SMOOTH",
"109.5 270 LINE",
"141 270 LINE",
"54.333 144.667 OFFCURVE",
"-1 37 OFFCURVE",
"-1 -75 CURVE SMOOTH",
"-1 -120.333 OFFCURVE",
"15 -186 OFFCURVE",
"51 -186 CURVE SMOOTH"
);
},
{
closed = 1;
nodes = (
"240.333 366 OFFCURVE",
"321.667 453.667 OFFCURVE",
"441 563 CURVE",
"462.333 508.333 OFFCURVE",
"483 357.333 OFFCURVE",
"483 300 CURVE",
"197 300 LINE"
);
}
);
width = 614;
}
);
note = A;
},
{
color = 6;
glyphname = AE.ss01;
lastChange = "2021-04-16 17:10:20 +0000";
layers = (
{
layerId = "3787E0F5-978F-4E40-B775-08CB0E3B1585";
paths = (
{
closed = 1;
nodes = (
"41.333 -186 OFFCURVE",
"49 -185.333 OFFCURVE",
"49 -184 CURVE SMOOTH",
"49 -183.649 OFFCURVE",
"28.718 -157.669 OFFCURVE",
"24.5 -150 CURVE SMOOTH",
"17.167 -136.667 OFFCURVE",
"11 -113.333 OFFCURVE",
"11 -88 CURVE SMOOTH",
"11 0 OFFCURVE",
"46.833 98.667 OFFCURVE",
"79.5 156 CURVE SMOOTH",
"95.833 184.667 OFFCURVE",
"119.333 222.667 OFFCURVE",
"150 270 CURVE",
"227 270 LINE",
"304 270 LINE SMOOTH",
"362.667 270 OFFCURVE",
"413 269.667 OFFCURVE",
"455 269 CURVE",
"449.667 226.333 OFFCURVE",
"440.167 179.667 OFFCURVE",
"427.5 121 CURVE SMOOTH",
"413 53 LINE",
"396.333 55 OFFCURVE",
"381.667 56 OFFCURVE",
"369 56 CURVE SMOOTH",
"311.667 56 OFFCURVE",
"263 30.333 OFFCURVE",
"263 -11 CURVE SMOOTH",
"263 -23 OFFCURVE",
"268.667 -38 OFFCURVE",
"278 -38 CURVE",
"279.333 -37.333 OFFCURVE",
"280 -35 OFFCURVE",
"280 -31 CURVE SMOOTH",
"279 -23 LINE",
"281.667 -6.333 OFFCURVE",
"295.667 5 OFFCURVE",
"321 11 CURVE SMOOTH",
"336.333 13.667 OFFCURVE",
"352.333 15 OFFCURVE",
"369 15 CURVE SMOOTH",
"381 15 OFFCURVE",
"393.667 14.333 OFFCURVE",
"407 13 CURVE",
"406.333 11.667 OFFCURVE",
"406 9.667 OFFCURVE",
"406 7 CURVE",
"410 6 OFFCURVE",
"414 6 OFFCURVE",
"417 6 CURVE SMOOTH",
"423 6 OFFCURVE",
"428 7 OFFCURVE",
"433 9 CURVE",
"459.667 4.333 OFFCURVE",
"511.167 -11.167 OFFCURVE",
"587.5 -37.5 CURVE SMOOTH",
"663.833 -63.833 OFFCURVE",
"723 -77 OFFCURVE",
"765 -77 CURVE SMOOTH",
"782.333 -77 OFFCURVE",
"799 -74.667 OFFCURVE",
"815 -72 CURVE SMOOTH",
"887 -58.667 OFFCURVE",
"946 -0.667 OFFCURVE",
"946 82 CURVE SMOOTH",
"946 90 OFFCURVE",
"945.333 98 OFFCURVE",
"944 106 CURVE SMOOTH",
"942.115 121.079 OFFCURVE",
"915.088 187 OFFCURVE",
"901 187 CURVE SMOOTH",
"893 187 OFFCURVE",
"890 179 OFFCURVE",
"890 170 CURVE SMOOTH",
"890 168 OFFCURVE",
"890 167 OFFCURVE",
"890 165 CURVE SMOOTH",
"890.667 161 OFFCURVE",
"896.167 152 OFFCURVE",
"906.5 138 CURVE SMOOTH",
"916.833 124 OFFCURVE",
"923 109.333 OFFCURVE",
"925 94 CURVE SMOOTH",
"926 79 LINE SMOOTH",
"926 23 OFFCURVE",
"880.667 -20.333 OFFCURVE",
"830 -31 CURVE SMOOTH",
"812.667 -34.333 OFFCURVE",
"794.333 -36 OFFCURVE",
"775 -36 CURVE SMOOTH",
"711 -36 OFFCURVE",
"639.833 -16.5 OFFCURVE",
"552.5 13.5 CURVE SMOOTH",
"508.833 28.5 OFFCURVE",
"476.333 38.667 OFFCURVE",
"455 44 CURVE",
"489 269 LINE",
"607.667 271.667 OFFCURVE",
"698 273 OFFCURVE",
"760 273 CURVE SMOOTH",
"770 273 OFFCURVE",
"777.667 274 OFFCURVE",
"783 276 CURVE SMOOTH",
"788.333 278 OFFCURVE",
"791 280.333 OFFCURVE",
"791 283 CURVE SMOOTH",
"791 293.545 OFFCURVE",
"767.253 301 OFFCURVE",
"744 301 CURVE SMOOTH",
"655 301.5 LINE",
"584 302 LINE",
"541.5 302.5 LINE",
"494 303 LINE",
"502 375 OFFCURVE",
"506 442.667 OFFCURVE",
"506 506 CURVE SMOOTH",
"506 538 OFFCURVE",
"505.667 566.333 OFFCURVE",
"503 593 CURVE",
"509.623 590.792 OFFCURVE",
"605.679 574.315 OFFCURVE",
"637.5 570 CURVE SMOOTH",
"676.833 564.667 OFFCURVE",
"702.667 563 OFFCURVE",
"732 563 CURVE SMOOTH",
"757.333 563 OFFCURVE",
"780 564 OFFCURVE",
"804 568 CURVE SMOOTH",
"845.333 573.333 OFFCURVE",
"912 596.667 OFFCURVE",
"912 630 CURVE SMOOTH",
"912 635 OFFCURVE",
"909 637 OFFCURVE",
"903 637 CURVE SMOOTH",
"902 637 OFFCURVE",
"901 637 OFFCURVE",
"899 637 CURVE SMOOTH",
"895.536 637 OFFCURVE",
"843.924 609.418 OFFCURVE",
"820 606 CURVE SMOOTH",
"785.333 602 OFFCURVE",
"746.667 599 OFFCURVE",
"708 599 CURVE SMOOTH",
"673.201 599 OFFCURVE",
"625.291 603.673 OFFCURVE",
"595 608 CURVE SMOOTH",
"560 613.5 LINE",
"523 620 LINE",
"529.667 623.333 OFFCURVE",
"534.667 626.667 OFFCURVE",
"538 630 CURVE",
"540.942 635.883 OFFCURVE",
"549 646.222 OFFCURVE",
"549 654 CURVE SMOOTH",
"549 660 OFFCURVE",
"544 663 OFFCURVE",
"534 663 CURVE SMOOTH",
"528 663 OFFCURVE",
"515.333 655 OFFCURVE",
"496 639 CURVE",
"496 660.333 OFFCURVE",
"478.333 691 OFFCURVE",
"461 691 CURVE SMOOTH",
"445 691 OFFCURVE",
"437 684.333 OFFCURVE",
"437 671 CURVE SMOOTH",
"437 661 OFFCURVE",
"438.667 649.333 OFFCURVE",
"442 636 CURVE",
"366 649.333 OFFCURVE",
"277.667 658 OFFCURVE",
"203 658 CURVE SMOOTH",
"163 658 OFFCURVE",
"126.667 655.667 OFFCURVE",
"94 651 CURVE SMOOTH",
"-20.667 635.667 OFFCURVE",
"-78 590.667 OFFCURVE",
"-78 516 CURVE SMOOTH",
"-78 479.333 OFFCURVE",
"-70.667 447.333 OFFCURVE",
"-56 420 CURVE SMOOTH",
"-50 408.667 OFFCURVE",
"-41.667 403 OFFCURVE",
"-31 403 CURVE SMOOTH",
"-25.667 403 OFFCURVE",
"-22 405 OFFCURVE",
"-22 409 CURVE SMOOTH",
"-22 413 OFFCURVE",
"-24.667 418.333 OFFCURVE",
"-30 425 CURVE SMOOTH",
"-40 437.667 OFFCURVE",
"-45 456.333 OFFCURVE",
"-45 481 CURVE SMOOTH",
"-45 558.333 OFFCURVE",
"36.667 602 OFFCURVE",
"118 614 CURVE SMOOTH",
"145.333 618 OFFCURVE",
"178.667 620 OFFCURVE",
"218 620 CURVE SMOOTH",
"271.333 620 OFFCURVE",
"330 616.333 OFFCURVE",
"386 611 CURVE SMOOTH",
"433 605 LINE",
"346.333 537 OFFCURVE",
"213.333 399.667 OFFCURVE",
"140 301 CURVE",
"138.635 301 OFFCURVE",
"104.443 303 OFFCURVE",
"92 303 CURVE SMOOTH",
"52.134 303 OFFCURVE",
"1 298.695 OFFCURVE",
"1 274 CURVE SMOOTH",
"1 270.055 OFFCURVE",
"33.862 269 OFFCURVE",
"49 269 CURVE SMOOTH",
"116 270 LINE",
"29.333 144.667 OFFCURVE",
"-26 37 OFFCURVE",
"-26 -75 CURVE SMOOTH",
"-26 -120.333 OFFCURVE",
"-10 -186 OFFCURVE",
"26 -186 CURVE SMOOTH"
);
},
{
closed = 1;
nodes = (
"224 378.667 OFFCURVE",
"319.667 474.667 OFFCURVE",
"459 588 CURVE",
"465.667 562.667 OFFCURVE",
"468 525.333 OFFCURVE",
"468 480 CURVE SMOOTH",
"468 440.667 OFFCURVE",
"465.333 381.333 OFFCURVE",
"460 302 CURVE",
"420 300.667 OFFCURVE",
"324 300 OFFCURVE",
"172 300 CURVE"
);
}
);
width = 960;
}
);
note = AE;
},
{
color = 6;
glyphname = B.ss01;
lastChange = "2021-04-16 17:10:20 +0000";
layers = (
{
layerId = "3787E0F5-978F-4E40-B775-08CB0E3B1585";
paths = (
{
closed = 1;
nodes = (
"312.667 -79 OFFCURVE",
"315 -73 OFFCURVE",
"315 -61 CURVE SMOOTH",
"314.5 -47.5 LINE",
"314 -35 LINE",
"374.667 -57 OFFCURVE",
"446 -68 OFFCURVE",
"528 -68 CURVE SMOOTH",
"652 -68 OFFCURVE",
"747.667 -32.667 OFFCURVE",
"815 38 CURVE SMOOTH",
"838.333 62.667 OFFCURVE",
"850 87.667 OFFCURVE",
"850 113 CURVE SMOOTH",
"850 218.765 OFFCURVE",
"680.211 262.488 OFFCURVE",
"581 268 CURVE",
"665.239 289.661 OFFCURVE",
"801 343.48 OFFCURVE",
"801 438 CURVE SMOOTH",
"801 542.462 OFFCURVE",
"642.167 601.82 OFFCURVE",
"549 627 CURVE",
"561 649.667 OFFCURVE",
"570.667 666 OFFCURVE",
"578 676 CURVE",
"579 680 LINE",
"579 688 OFFCURVE",
"569.667 692 OFFCURVE",
"551 692 CURVE SMOOTH",
"544.092 692 OFFCURVE",
"528.109 687 OFFCURVE",
"521 687 CURVE SMOOTH",
"519 687 LINE",
"508.333 677.667 OFFCURVE",
"498.333 662 OFFCURVE",
"489 640 CURVE",
"408.333 657.333 OFFCURVE",
"337.333 666 OFFCURVE",
"276 666 CURVE SMOOTH",
"134.4 666 OFFCURVE",
"2 618.129 OFFCURVE",
"2 474 CURVE SMOOTH",
"2 424.667 OFFCURVE",
"32.5 345.167 OFFCURVE",
"82.5 288.5 CURVE SMOOTH",
"107.5 260.167 OFFCURVE",
"132.333 246 OFFCURVE",
"157 246 CURVE SMOOTH",
"169 246 OFFCURVE",
"175 250.333 OFFCURVE",
"175 259 CURVE SMOOTH",
"175 269.667 OFFCURVE",
"156.333 310 OFFCURVE",
"147 310 CURVE SMOOTH",
"143 310 OFFCURVE",
"139.667 303.333 OFFCURVE",
"137 290 CURVE",
"72.333 350 OFFCURVE",
"40 414 OFFCURVE",
"40 482 CURVE SMOOTH",
"40 600.904 OFFCURVE",
"152.674 641 OFFCURVE",
"270 641 CURVE SMOOTH",
"326.667 641 OFFCURVE",
"395.333 631.333 OFFCURVE",
"476 612 CURVE",
"388 432 OFFCURVE",
"287 145.667 OFFCURVE",
"287 -1 CURVE",
"280.817 1.473 OFFCURVE",
"220.857 43 OFFCURVE",
"214 43 CURVE SMOOTH",
"210.667 43 OFFCURVE",
"209 41 OFFCURVE",
"209 37 CURVE SMOOTH",
"209 15.667 OFFCURVE",
"255 -11.333 OFFCURVE",
"287 -26 CURVE",
"287 -38.577 OFFCURVE",
"292.998 -79 OFFCURVE",
"308 -79 CURVE SMOOTH"
);
},
{
closed = 1;
nodes = (
"444.333 -45 OFFCURVE",
"373.333 -33.667 OFFCURVE",
"316 -11 CURVE",
"323.333 45 OFFCURVE",
"344 125.667 OFFCURVE",
"378 231 CURVE",
"379 231 LINE SMOOTH",
"401.984 231 OFFCURVE",
"485.72 244 OFFCURVE",
"515 244 CURVE SMOOTH",
"563 244 OFFCURVE",
"622.5 235.667 OFFCURVE",
"688.5 217 CURVE SMOOTH",
"721.5 207.667 OFFCURVE",
"748.833 193.167 OFFCURVE",
"770.5 173.5 CURVE SMOOTH",
"792.167 153.833 OFFCURVE",
"803 130.667 OFFCURVE",
"803 104 CURVE SMOOTH",
"803 77.333 OFFCURVE",
"789 50 OFFCURVE",
"761 22 CURVE SMOOTH",
"717 -22.667 OFFCURVE",
"639.667 -45 OFFCURVE",
"529 -45 CURVE SMOOTH"
);
},
{
closed = 1;
nodes = (
"431 393.667 OFFCURVE",
"479 505 OFFCURVE",
"533 599 CURVE",
"534 599 LINE",
"608.144 577.474 OFFCURVE",
"754 521.959 OFFCURVE",
"754 436 CURVE SMOOTH",
"754 339.267 OFFCURVE",
"555.398 291.066 OFFCURVE",
"471 277 CURVE SMOOTH",
"465 275.667 OFFCURVE",
"452.5 274.167 OFFCURVE",
"433.5 272.5 CURVE SMOOTH",
"414.5 270.833 OFFCURVE",
"399.667 268.333 OFFCURVE",
"389 265 CURVE"
);
}
);
width = 860;
}
);
note = B;
},
{
color = 6;
glyphname = C.ss01;
lastChange = "2021-04-16 17:10:20 +0000";
layers = (
{
anchors = (
{
name = bottom;
position = "{363, -67}";
},
{
name = top;
position = "{474, 650}";
}
);
layerId = "3787E0F5-978F-4E40-B775-08CB0E3B1585";
paths = (
{
closed = 1;
nodes = (
"478 -75 OFFCURVE",
"635.333 -14 OFFCURVE",
"718 70 CURVE SMOOTH",
"725 77 OFFCURVE",
"745 116 OFFCURVE",
"745 132 CURVE SMOOTH",
"745 136 OFFCURVE",
"744 139 OFFCURVE",
"740 139 CURVE SMOOTH",
"734.667 139 OFFCURVE",
"717 119.667 OFFCURVE",
"713 113 CURVE",
"686.849 86.849 OFFCURVE",
"653.033 50.1 OFFCURVE",
"606 18.5 CURVE SMOOTH",
"563.333 -10.167 OFFCURVE",
"527 -25.667 OFFCURVE",
"463 -39 CURVE SMOOTH",
"431 -45.667 OFFCURVE",
"397.333 -49 OFFCURVE",
"362 -49 CURVE SMOOTH",
"200.667 -49 OFFCURVE",
"78 57 OFFCURVE",
"78 213 CURVE SMOOTH",
"78 229 LINE SMOOTH",
"78 372 OFFCURVE",
"182.167 510.833 OFFCURVE",
"317.5 587.5 CURVE SMOOTH",
"385.167 625.833 OFFCURVE",
"454.333 645 OFFCURVE",
"525 645 CURVE SMOOTH",
"586.333 645 OFFCURVE",
"637.333 618.333 OFFCURVE",
"660 581 CURVE",
"655.564 569.91 OFFCURVE",
"647.635 544.285 OFFCURVE",
"644.5 533 CURVE SMOOTH",
"641.167 521 OFFCURVE",
"640 510 OFFCURVE",
"640 498 CURVE SMOOTH",
"640 478 OFFCURVE",
"648.333 469 OFFCURVE",
"671 469 CURVE SMOOTH",
"691 469 OFFCURVE",
"701 491.667 OFFCURVE",
"701 537 CURVE SMOOTH",
"701 557.667 OFFCURVE",
"698 576 OFFCURVE",
"692 592 CURVE",
"697.298 610.543 OFFCURVE",
"712 650.154 OFFCURVE",
"712 669 CURVE SMOOTH",
"712 677 OFFCURVE",
"698.667 683 OFFCURVE",
"688 683 CURVE SMOOTH",
"681 683 OFFCURVE",
"680 681 OFFCURVE",
"680 678 CURVE SMOOTH",
"680 674 OFFCURVE",
"683 668 OFFCURVE",
"683 662 CURVE SMOOTH",
"683 654 OFFCURVE",
"680 641 OFFCURVE",
"674 623 CURVE",
"648 657 OFFCURVE",
"595 673 OFFCURVE",
"533 673 CURVE SMOOTH",
"460 673 OFFCURVE",
"374 651 OFFCURVE",
"301 612.5 CURVE SMOOTH",
"150.333 531.833 OFFCURVE",
"35 382.333 OFFCURVE",
"27 233 CURVE SMOOTH",
"26.333 225 OFFCURVE",
"26 217.333 OFFCURVE",
"26 210 CURVE SMOOTH",
"26 32.667 OFFCURVE",
"139.333 -75 OFFCURVE",
"350 -75 CURVE SMOOTH"
);
}
);
width = 753;
}
);
note = C;
},
{
color = 6;
glyphname = D.ss01;
lastChange = "2021-04-16 17:10:20 +0000";
layers = (
{
anchors = (
{
name = bottom;
position = "{459, 0}";
},
{
name = center;
position = "{459, 325}";
},
{
name = top;
position = "{602, 607}";
}
);
layerId = "3787E0F5-978F-4E40-B775-08CB0E3B1585";
paths = (
{
closed = 1;
nodes = (
"513.333 -37 OFFCURVE",
"619.667 -9.333 OFFCURVE",
"725 56 CURVE SMOOTH",
"777.667 88.667 OFFCURVE",
"820 127 OFFCURVE",
"852 171 CURVE SMOOTH",
"885.333 217.667 OFFCURVE",
"902 266 OFFCURVE",
"902 316 CURVE SMOOTH",
"902 377.333 OFFCURVE",
"876.833 434.667 OFFCURVE",
"825.5 484 CURVE SMOOTH",
"799.833 508.667 OFFCURVE",
"769.167 530.167 OFFCURVE",
"733.5 548.5 CURVE SMOOTH",
"662.167 585.167 OFFCURVE",
"559 607 OFFCURVE",
"443 607 CURVE SMOOTH",
"438 607 LINE",
"450 633 OFFCURVE",
"464 654 OFFCURVE",
"480 670 CURVE",
"480 672.667 OFFCURVE",
"476.333 674 OFFCURVE",
"469 674 CURVE SMOOTH",
"453 674 OFFCURVE",
"435.667 671.667 OFFCURVE",
"417 667 CURVE",
"415 667 LINE",
"403 653.667 OFFCURVE",
"390.333 632.333 OFFCURVE",
"377 603 CURVE",
"342.333 599 OFFCURVE",
"282.333 589 OFFCURVE",
"197 565 CURVE SMOOTH",
"154.333 553 OFFCURVE",
"115 539.833 OFFCURVE",
"79 525.5 CURVE SMOOTH",
"7 496.833 OFFCURVE",
"-52 451.333 OFFCURVE",
"-52 406 CURVE SMOOTH",
"-52 386 OFFCURVE",
"-42 365.667 OFFCURVE",
"-22 345 CURVE SMOOTH",
"-14.667 337 OFFCURVE",
"0.667 325.667 OFFCURVE",
"24 311 CURVE",
"30.91 308.697 OFFCURVE",
"40.477 304 OFFCURVE",
"45 304 CURVE SMOOTH",
"50 304 OFFCURVE",
"53 306 OFFCURVE",
"53 309 CURVE SMOOTH",
"53 310 OFFCURVE",
"52 311 OFFCURVE",
"52 312 CURVE",
"56 312 LINE",
"53.333 316 OFFCURVE",
"46.333 323.333 OFFCURVE",
"35 334 CURVE",
"15 346 OFFCURVE",
"-6 371.667 OFFCURVE",
"-6 393 CURVE SMOOTH",
"-6 471.117 OFFCURVE",
"196.109 537.179 OFFCURVE",
"256 551 CURVE SMOOTH",
"292 559 OFFCURVE",
"353 571.667 OFFCURVE",
"361 573 CURVE",
"267.667 378.333 OFFCURVE",
"221 189.333 OFFCURVE",
"221 6 CURVE SMOOTH",
"221 -20.667 OFFCURVE",
"226.333 -34 OFFCURVE",
"237 -34 CURVE SMOOTH",
"243.667 -34 OFFCURVE",
"252 -28.667 OFFCURVE",
"262 -18 CURVE SMOOTH",
"266.667 -12.667 OFFCURVE",
"272.5 -4.5 OFFCURVE",
"279.5 6.5 CURVE SMOOTH",
"286.5 17.5 OFFCURVE",
"291.333 24.667 OFFCURVE",
"294 28 CURVE",
"295.333 26.667 OFFCURVE",
"296 24.333 OFFCURVE",
"296 23 CURVE",
"301.333 5.667 OFFCURVE",
"314.333 -8.667 OFFCURVE",
"335 -20 CURVE SMOOTH",
"355.667 -31.333 OFFCURVE",
"385.333 -37 OFFCURVE",
"424 -37 CURVE SMOOTH"
);
},
{
closed = 1;
nodes = (
"388.667 -11 OFFCURVE",
"368.667 -8 OFFCURVE",
"352 -2 CURVE SMOOTH",
"337.765 4.101 OFFCURVE",
"328 13 OFFCURVE",
"322 25.5 CURVE SMOOTH",
"315.5 38.5 LINE",
"310 50 LINE SMOOTH",
"307 57 OFFCURVE",
"304.197 63 OFFCURVE",
"299 63 CURVE SMOOTH",
"287.411 63 OFFCURVE",
"272.393 41.393 OFFCURVE",
"265 34 CURVE SMOOTH",
"265.667 34.667 OFFCURVE",
"266 36 OFFCURVE",
"266 38 CURVE SMOOTH",
"282 244 OFFCURVE",
"334.333 424.333 OFFCURVE",
"423 579 CURVE",
"435.667 579.667 OFFCURVE",
"448.333 580 OFFCURVE",
"461 580 CURVE SMOOTH",
"602.333 580 OFFCURVE",
"728.5 546.333 OFFCURVE",
"806.5 473 CURVE SMOOTH",
"845.5 436.333 OFFCURVE",
"865 393.667 OFFCURVE",
"865 345 CURVE SMOOTH",
"865 290.333 OFFCURVE",
"840.333 231.333 OFFCURVE",
"791 168 CURVE SMOOTH",
"744.333 108 OFFCURVE",
"648.167 48.5 OFFCURVE",
"547.5 14.5 CURVE SMOOTH",
"497.167 -2.5 OFFCURVE",
"452 -11 OFFCURVE",
"412 -11 CURVE SMOOTH"
);
}
);
width = 917;
}
);
note = D;
},
{
color = 6;
glyphname = Eth.ss01;
lastChange = "2021-04-16 17:10:20 +0000";
layers = (
{
layerId = "3787E0F5-978F-4E40-B775-08CB0E3B1585";
paths = (
{
closed = 1;
nodes = (
"302.667 -9 OFFCURVE",
"422.833 17.5 OFFCURVE",
"539.5 83.5 CURVE SMOOTH",
"597.833 116.5 OFFCURVE",
"643 155.333 OFFCURVE",
"675 200 CURVE SMOOTH",
"708.333 247.333 OFFCURVE",
"725 295.333 OFFCURVE",
"725 344 CURVE SMOOTH",
"725 462.172 OFFCURVE",
"639.793 548 OFFCURVE",
"527.5 594 CURVE SMOOTH",
"472.167 616.667 OFFCURVE",
"409.833 632.333 OFFCURVE",
"350.5 639 CURVE SMOOTH",
"320.833 642.333 OFFCURVE",
"291.333 644 OFFCURVE",
"262 644 CURVE SMOOTH",
"246.667 644 OFFCURVE",
"232 643.667 OFFCURVE",
"218 643 CURVE",
"222.667 656.333 OFFCURVE",
"227.667 669 OFFCURVE",
"233 681 CURVE",
"233 689 OFFCURVE",
"228.333 692 OFFCURVE",
"219 692 CURVE SMOOTH",
"208.333 692 OFFCURVE",
"196 688.333 OFFCURVE",
"182 681 CURVE",
"173.333 672.333 OFFCURVE",
"167.333 658.667 OFFCURVE",
"164 640 CURVE",
"125 640 LINE SMOOTH",
"103.667 640 OFFCURVE",
"89 621.667 OFFCURVE",
"89 607 CURVE SMOOTH",
"89 600.333 OFFCURVE",
"91.333 597 OFFCURVE",
"96 597 CURVE SMOOTH",
"97.333 597 OFFCURVE",
"98.667 597.333 OFFCURVE",
"100 598 CURVE SMOOTH",
"109.764 601.905 OFFCURVE",
"134.895 603 OFFCURVE",
"148 603 CURVE SMOOTH",
"152 603 LINE",
"156 603 LINE",
"131.333 506.333 OFFCURVE",
"113.667 392.667 OFFCURVE",
"103 262 CURVE",
"81.667 263.333 OFFCURVE",
"65.667 264 OFFCURVE",
"55 264 CURVE SMOOTH",
"43.249 264 OFFCURVE",
"27.195 263.097 OFFCURVE",
"22 260.5 CURVE SMOOTH",
"17.019 258.01 OFFCURVE",
"12 253 OFFCURVE",
"12 247 CURVE SMOOTH",
"12 234.706 OFFCURVE",
"31.977 227 OFFCURVE",
"48 227 CURVE SMOOTH",
"70.667 227 OFFCURVE",
"88.333 227.333 OFFCURVE",
"101 228 CURVE",
"99 196 OFFCURVE",
"98 167.333 OFFCURVE",
"98 142 CURVE SMOOTH",
"98 99.333 OFFCURVE",
"100.667 65.333 OFFCURVE",
"106 40 CURVE",
"96 43 OFFCURVE",
"93 40 OFFCURVE",
"93 34 CURVE SMOOTH",
"93 33 OFFCURVE",
"93 31 OFFCURVE",
"93 30 CURVE SMOOTH",
"96.333 4 OFFCURVE",
"133.333 -9 OFFCURVE",
"204 -9 CURVE SMOOTH"
);
},
{
closed = 1;
nodes = (
"211.333 18 OFFCURVE",
"191.667 21 OFFCURVE",
"175 27 CURVE SMOOTH",
"155.667 33.667 OFFCURVE",
"145.333 59.667 OFFCURVE",
"144 105 CURVE SMOOTH",
"142.667 125.667 OFFCURVE",
"142 146.5 OFFCURVE",
"142 167.5 CURVE SMOOTH",
"142 188.5 OFFCURVE",
"142.667 209.667 OFFCURVE",
"144 231 CURVE",
"196 235.667 OFFCURVE",
"230.667 241 OFFCURVE",
"248 247 CURVE SMOOTH",
"258 249.667 OFFCURVE",
"263 253 OFFCURVE",
"263 257 CURVE SMOOTH",
"263 259.667 OFFCURVE",
"258 261 OFFCURVE",
"248 261 CURVE SMOOTH",
"196.5 261.5 LINE",
"146 262 LINE",
"154 376.667 OFFCURVE",
"174.667 491 OFFCURVE",
"208 605 CURVE",
"228 605.5 LINE",
"248 606 LINE SMOOTH",
"287.333 606 OFFCURVE",
"334.667 602 OFFCURVE",
"390 594 CURVE SMOOTH",
"564.667 568.667 OFFCURVE",
"688 494.333 OFFCURVE",
"688 377 CURVE SMOOTH",
"688 320.333 OFFCURVE",
"663.333 260.333 OFFCURVE",
"614 197 CURVE SMOOTH",
"543.333 105 OFFCURVE",
"356.667 18 OFFCURVE",
"234 18 CURVE SMOOTH"
);
}
);
width = 775;
}
);
note = Eth;
},
{
color = 6;
glyphname = E.ss01;
lastChange = "2021-04-16 17:10:20 +0000";
layers = (
{
anchors = (
{
name = bottom;
position = "{595, -74}";
},
{
name = ogonek;
position = "{696, -61}";
},
{
name = top;
position = "{809, 537}";
},
{
name = topleft;
position = "{20, 650}";
}
);
layerId = "3787E0F5-978F-4E40-B775-08CB0E3B1585";
paths = (
{
closed = 1;
nodes = (
"823.667 -105 OFFCURVE",
"910 -49.667 OFFCURVE",
"910 45 CURVE SMOOTH",
"910 94.333 OFFCURVE",
"887.667 134 OFFCURVE",
"869 134 CURVE SMOOTH",
"858.333 134 OFFCURVE",
"853 127.333 OFFCURVE",
"853 114 CURVE SMOOTH",
"853 110 OFFCURVE",
"858.333 100.167 OFFCURVE",
"869 84.5 CURVE SMOOTH",
"879.667 68.833 OFFCURVE",
"885 53.333 OFFCURVE",
"885 38 CURVE SMOOTH",
"885 -27.333 OFFCURVE",
"818 -68 OFFCURVE",
"750 -68 CURVE SMOOTH",
"660.667 -68 OFFCURVE",
"548 -35 OFFCURVE",
"412 31 CURVE",
"464 88.333 OFFCURVE",
"519 207.333 OFFCURVE",
"543 294 CURVE",
"624 297 LINE SMOOTH",
"675 299 OFFCURVE",
"710.667 300 OFFCURVE",
"730 300 CURVE SMOOTH",
"753.333 300 OFFCURVE",
"765 303.667 OFFCURVE",
"765 311 CURVE SMOOTH",
"765 315 OFFCURVE",
"761.167 318.5 OFFCURVE",
"753.5 321.5 CURVE SMOOTH",
"745.833 324.5 OFFCURVE",
"736 326 OFFCURVE",
"724 326 CURVE SMOOTH",
"554 329 LINE",
"562 354.333 OFFCURVE",
"574.333 390.167 OFFCURVE",
"591 436.5 CURVE SMOOTH",
"607.667 482.833 OFFCURVE",
"617.667 511.333 OFFCURVE",
"621 522 CURVE",
"682.333 494 OFFCURVE",
"789 473 OFFCURVE",
"857 473 CURVE SMOOTH",
"899.667 473 OFFCURVE",
"965 486.667 OFFCURVE",
"965 520 CURVE SMOOTH",
"965 526 OFFCURVE",
"960.667 529 OFFCURVE",
"952 529 CURVE SMOOTH",
"946.416 529 OFFCURVE",
"900.047 509 OFFCURVE",
"873 509 CURVE SMOOTH",
"790.333 509 OFFCURVE",
"709 522.667 OFFCURVE",
"629 550 CURVE",
"631.667 563.333 OFFCURVE",
"642.333 586 OFFCURVE",
"653 586 CURVE SMOOTH",
"654.333 586 OFFCURVE",
"658.667 583 OFFCURVE",
"666 577 CURVE SMOOTH",
"673.333 571 OFFCURVE",
"679.333 568 OFFCURVE",
"684 568 CURVE SMOOTH",
"688 568 OFFCURVE",
"690 571.333 OFFCURVE",
"690 578 CURVE SMOOTH",
"690 603.333 OFFCURVE",
"664.333 637 OFFCURVE",
"639 637 CURVE SMOOTH",
"620.866 637 OFFCURVE",
"610.973 617.594 OFFCURVE",
"604 599 CURVE SMOOTH",
"600 588.333 OFFCURVE",
"594.333 568.333 OFFCURVE",
"593 563 CURVE",
"409.667 627 OFFCURVE",
"261 659 OFFCURVE",
"147 659 CURVE SMOOTH",
"32.333 659 OFFCURVE",
"-25 622 OFFCURVE",
"-25 548 CURVE SMOOTH",
"-25 410.976 OFFCURVE",
"94.386 311.886 OFFCURVE",
"213 250 CURVE SMOOTH",
"244.333 233.333 OFFCURVE",
"265.333 225 OFFCURVE",
"276 225 CURVE SMOOTH",
"278.667 225 OFFCURVE",
"280 226 OFFCURVE",
"280 228 CURVE SMOOTH",
"280 242.258 OFFCURVE",
"194.063 295.616 OFFCURVE",
"144 328.5 CURVE SMOOTH",
"76 373.167 OFFCURVE",
"8 446.333 OFFCURVE",
"8 509 CURVE SMOOTH",
"8 591.357 OFFCURVE",
"119.155 612 OFFCURVE",
"195 612 CURVE SMOOTH",
"283.667 612 OFFCURVE",
"413.333 587 OFFCURVE",
"584 537 CURVE",
"549 432.5 LINE SMOOTH",
"533 386 OFFCURVE",
"522 351.667 OFFCURVE",
"514 329 CURVE",
"433 330 LINE",
"414 330 LINE SMOOTH",
"403.333 330 OFFCURVE",
"392 315.667 OFFCURVE",
"392 305 CURVE SMOOTH",
"392 297.471 OFFCURVE",
"397.987 294.003 OFFCURVE",
"404 292.5 CURVE SMOOTH",
"408.125 291.469 OFFCURVE",
"425.544 291 OFFCURVE",
"432 291 CURVE SMOOTH",
"441 291 LINE",
"503 292 LINE",
"455 170 OFFCURVE",
"414.667 87.667 OFFCURVE",
"382 45 CURVE",
"284.667 89.667 OFFCURVE",
"208.333 112 OFFCURVE",
"153 112 CURVE SMOOTH",
"70 112 OFFCURVE",
"32 69 OFFCURVE",
"32 24 CURVE SMOOTH",
"32 -24 OFFCURVE",
"77 -75 OFFCURVE",
"161 -75 CURVE SMOOTH",
"248.333 -75 OFFCURVE",
"321.333 -47.667 OFFCURVE",
"380 7 CURVE",
"400 -2 LINE SMOOTH",
"501 -47 OFFCURVE",
"523.167 -60.667 OFFCURVE",
"610.5 -86 CURVE SMOOTH",
"654.167 -98.667 OFFCURVE",
"692.333 -105 OFFCURVE",
"725 -105 CURVE SMOOTH"
);
},
{
closed = 1;
nodes = (
"158.28 -48 OFFCURVE",
"67 -21.459 OFFCURVE",
"67 31 CURVE SMOOTH",
"67 58.333 OFFCURVE",
"89.333 72 OFFCURVE",
"134 72 CURVE SMOOTH",
"191.333 72 OFFCURVE",
"301.667 44.667 OFFCURVE",
"359 18 CURVE",
"315 -26 OFFCURVE",
"264.667 -48 OFFCURVE",
"208 -48 CURVE SMOOTH"
);
}
);
width = 935;
}
);
note = E;
},
{
color = 6;
glyphname = F.ss01;
lastChange = "2021-04-16 17:10:20 +0000";
layers = (
{
layerId = "3787E0F5-978F-4E40-B775-08CB0E3B1585";
paths = (
{
closed = 1;
nodes = (
"291.333 -134 OFFCURVE",
"311.667 -130.667 OFFCURVE",
"329 -124 CURVE SMOOTH",
"403.667 -96 OFFCURVE",
"462.667 -36.333 OFFCURVE",
"506 55 CURVE SMOOTH",
"526.667 99 OFFCURVE",
"551.667 174.667 OFFCURVE",
"581 282 CURVE",
"629 284.667 OFFCURVE",
"691.333 289.167 OFFCURVE",
"726 292.5 CURVE SMOOTH",
"755 295 LINE SMOOTH",
"762 296 OFFCURVE",
"767 299 OFFCURVE",
"767 303 CURVE SMOOTH",
"767 305 OFFCURVE",
"766 307 OFFCURVE",
"763 309 CURVE",
"748.333 315.667 OFFCURVE",
"691.333 319 OFFCURVE",
"592 319 CURVE",
"594.667 328.333 OFFCURVE",
"616.333 394.667 OFFCURVE",
"657 518 CURVE",
"730.333 483.333 OFFCURVE",
"790 466 OFFCURVE",
"836 466 CURVE SMOOTH",
"867.333 466 OFFCURVE",
"891.333 474.333 OFFCURVE",
"908 491 CURVE SMOOTH",
"917.333 500.333 OFFCURVE",
"922 508.333 OFFCURVE",
"922 515 CURVE SMOOTH",
"922 520.333 OFFCURVE",
"918.333 523 OFFCURVE",
"911 523 CURVE SMOOTH",
"903.667 523 OFFCURVE",
"898 520.333 OFFCURVE",
"894 515 CURVE SMOOTH",
"888.667 507 OFFCURVE",
"875.333 503 OFFCURVE",
"858 503 CURVE SMOOTH",
"818 503 OFFCURVE",
"751 522.667 OFFCURVE",
"667 552 CURVE",
"667 560.779 OFFCURVE",
"680.922 591 OFFCURVE",
"691 591 CURVE SMOOTH",
"693.667 591 OFFCURVE",
"696.333 589 OFFCURVE",
"699 585 CURVE",
"709 575.667 OFFCURVE",
"716.667 571 OFFCURVE",
"722 571 CURVE SMOOTH",
"726 571 OFFCURVE",
"729 575.667 OFFCURVE",
"729 581 CURVE SMOOTH",
"729 586.027 OFFCURVE",
"725.157 597.529 OFFCURVE",
"723 604 CURVE SMOOTH",
"721.717 606.567 OFFCURVE",
"709.886 624.893 OFFCURVE",
"705 631 CURVE SMOOTH",
"699.76 637.55 OFFCURVE",
"688.428 644 OFFCURVE",
"678 644 CURVE",
"664 642 LINE SMOOTH",
"659.333 641.333 OFFCURVE",
"648.333 616 OFFCURVE",
"631 566 CURVE",
"568.735 589.948 OFFCURVE",
"479.529 628.157 OFFCURVE",
"411 651 CURVE SMOOTH",
"367 665.667 OFFCURVE",
"275.333 687 OFFCURVE",
"202 687 CURVE SMOOTH",
"76.667 687 OFFCURVE",
"14 641.667 OFFCURVE",
"14 551 CURVE SMOOTH",
"14 543.667 OFFCURVE",
"14.333 536.333 OFFCURVE",
"15 529 CURVE SMOOTH",
"28.333 401 OFFCURVE",
"170.333 238.667 OFFCURVE",
"309 208 CURVE SMOOTH",
"317 206 OFFCURVE",
"321 209 OFFCURVE",
"321 212 CURVE SMOOTH",
"321 214 OFFCURVE",
"319 217 OFFCURVE",
"315 220 CURVE SMOOTH",
"309 224 OFFCURVE",
"295.833 231.667 OFFCURVE",
"275.5 243 CURVE SMOOTH",
"255.167 254.333 OFFCURVE",
"238.333 264.667 OFFCURVE",
"225 274 CURVE SMOOTH",
"149 327.333 OFFCURVE",
"47 474 OFFCURVE",
"47 550 CURVE SMOOTH",
"47 608.667 OFFCURVE",
"118 640 OFFCURVE",
"222 640 CURVE SMOOTH",
"355.333 640 OFFCURVE",
"471.333 603.333 OFFCURVE",
"622 538 CURVE",
"588 432 LINE",
"552 319 LINE",
"524 319 OFFCURVE",
"492.667 318.333 OFFCURVE",
"458 317 CURVE SMOOTH",
"405 315 LINE SMOOTH",
"399 315 OFFCURVE",
"396 310.5 OFFCURVE",
"396 301.5 CURVE SMOOTH",
"396 292.5 OFFCURVE",
"399 286.333 OFFCURVE",
"405 283 CURVE",
"417 281 OFFCURVE",
"445.333 280 OFFCURVE",
"490 280 CURVE SMOOTH",
"541 280 LINE",
"523.667 225.333 OFFCURVE",
"514.833 201.333 OFFCURVE",
"487.5 132 CURVE SMOOTH",
"473.833 97.333 OFFCURVE",
"460 68 OFFCURVE",
"446 44 CURVE SMOOTH",
"418 -4 OFFCURVE",
"383.5 -60.833 OFFCURVE",
"341.5 -89.5 CURVE SMOOTH",
"320.5 -103.833 OFFCURVE",
"299.333 -112 OFFCURVE",
"278 -114 CURVE SMOOTH",
"273.333 -114.667 OFFCURVE",
"268.667 -115 OFFCURVE",
"264 -115 CURVE SMOOTH",
"214.667 -115 OFFCURVE",
"169.667 -85.5 OFFCURVE",
"143 -47.5 CURVE SMOOTH",
"129.667 -28.5 OFFCURVE",
"118.333 -8.167 OFFCURVE",
"109 13.5 CURVE SMOOTH",
"90.333 56.833 OFFCURVE",
"83 91.333 OFFCURVE",
"83 110 CURVE SMOOTH",
"81 128.667 OFFCURVE",
"77.667 138 OFFCURVE",
"73 138 CURVE SMOOTH",
"69 138 OFFCURVE",
"65.833 133 OFFCURVE",
"63.5 123 CURVE SMOOTH",
"61.167 113 OFFCURVE",
"60 102 OFFCURVE",
"60 90 CURVE SMOOTH",
"60 47.333 OFFCURVE",
"72.333 -5.667 OFFCURVE",
"99 -51 CURVE SMOOTH",
"132.333 -105.667 OFFCURVE",
"201.333 -134 OFFCURVE",
"268 -134 CURVE SMOOTH"
);
}
);
width = 735;
}
);
note = F;
},
